<?xml version='1.0' encoding='UTF-8' standalone='no'?>
<svg width="640pt" xmlns="http://www.w3.org/2000/svg" height="400pt" viewBox="0 0 640 400" xmlns:xlink="http://www.w3.org/1999/xlink">
 <title>gl2ps_renderer figure</title>
 <desc>
Creator: GL2PS 1.4.0, (C) 1999-2017 C. Geuzaine
For: Octave
CreationDate: Sat Oct  3 00:12:15 2020
</desc>
 <defs/>
 <polygon fill="#ffffff" points="0,0 640,0 640,400 0,400"/>
 <g>
  <polygon fill="#ffffff" points="0,400 640,400 640,0 0,0" shape-rendering="crispEdges"/>
  <clipPath id="cp00640400">
   <polygon points="0,400 640,400 640,0 0,0"/>
  </clipPath>
  <g clip-path="url(#cp00640400)">
   <polygon fill="#ffffff" points="83.2002,165.384 579.2,165.384 579.2,32.3843 83.2002,32.3843" shape-rendering="crispEdges"/>
   <polyline fill="none" points="83.2002,165.384 83.2002,160.424" stroke="#262626" stroke-linejoin="miter" stroke-linecap="butt" stroke-width="0.5"/>
   <polyline fill="none" points="83.2002,32.3843 83.2002,37.3442" stroke="#262626" stroke-linejoin="miter" stroke-linecap="butt" stroke-width="0.5"/>
   <polyline fill="none" points="182.4,165.384 182.4,160.424" stroke="#262626" stroke-linejoin="miter" stroke-linecap="butt" stroke-width="0.5"/>
   <polyline fill="none" points="182.4,32.3843 182.4,37.3442" stroke="#262626" stroke-linejoin="miter" stroke-linecap="butt" stroke-width="0.5"/>
   <polyline fill="none" points="281.6,165.384 281.6,160.424" stroke="#262626" stroke-linejoin="miter" stroke-linecap="butt" stroke-width="0.5"/>
   <polyline fill="none" points="281.6,32.3843 281.6,37.3442" stroke="#262626" stroke-linejoin="miter" stroke-linecap="butt" stroke-width="0.5"/>
   <polyline fill="none" points="380.8,165.384 380.8,160.424" stroke="#262626" stroke-linejoin="miter" stroke-linecap="butt" stroke-width="0.5"/>
   <polyline fill="none" points="380.8,32.3843 380.8,37.3442" stroke="#262626" stroke-linejoin="miter" stroke-linecap="butt" stroke-width="0.5"/>
   <polyline fill="none" points="480,165.384 480,160.424" stroke="#262626" stroke-linejoin="miter" stroke-linecap="butt" stroke-width="0.5"/>
   <polyline fill="none" points="480,32.3843 480,37.3442" stroke="#262626" stroke-linejoin="miter" stroke-linecap="butt" stroke-width="0.5"/>
   <polyline fill="none" points="579.2,165.384 579.2,160.424" stroke="#262626" stroke-linejoin="miter" stroke-linecap="butt" stroke-width="0.5"/>
   <polyline fill="none" points="579.2,32.3843 579.2,37.3442" stroke="#262626" stroke-linejoin="miter" stroke-linecap="butt" stroke-width="0.5"/>
   <text font-family="FreeSans" font-style="normal" font-weight="normal" xml:space="preserve" transform="translate(80.2,180.884) rotate(-0,3,-8)" font-size="10">
    <tspan x="0 " y="-0" fill="rgb(38,38,38)">0</tspan>
   </text>
   <text font-family="FreeSans" font-style="normal" font-weight="normal" xml:space="preserve" transform="translate(173.4,180.884) rotate(-0,9,-8)" font-size="10">
    <tspan x="0 6 12 " y="-0" fill="rgb(38,38,38)">100</tspan>
   </text>
   <text font-family="FreeSans" font-style="normal" font-weight="normal" xml:space="preserve" transform="translate(272.6,180.884) rotate(-0,9,-8)" font-size="10">
    <tspan x="0 6 12 " y="-0" fill="rgb(38,38,38)">200</tspan>
   </text>
   <text font-family="FreeSans" font-style="normal" font-weight="normal" xml:space="preserve" transform="translate(371.8,180.884) rotate(-0,9,-8)" font-size="10">
    <tspan x="0 6 12 " y="-0" fill="rgb(38,38,38)">300</tspan>
   </text>
   <text font-family="FreeSans" font-style="normal" font-weight="normal" xml:space="preserve" transform="translate(471,180.884) rotate(-0,9,-8)" font-size="10">
    <tspan x="0 6 12 " y="-0" fill="rgb(38,38,38)">400</tspan>
   </text>
   <text font-family="FreeSans" font-style="normal" font-weight="normal" xml:space="preserve" transform="translate(570.2,180.884) rotate(-0,9,-8)" font-size="10">
    <tspan x="0 6 12 " y="-0" fill="rgb(38,38,38)">500</tspan>
   </text>
   <polyline fill="none" points="83.2002,165.384 88.1602,165.384" stroke="#262626" stroke-linejoin="miter" stroke-linecap="butt" stroke-width="0.5"/>
   <polyline fill="none" points="579.2,165.384 574.24,165.384" stroke="#262626" stroke-linejoin="miter" stroke-linecap="butt" stroke-width="0.5"/>
   <polyline fill="none" points="83.2002,132.134 88.1602,132.134" stroke="#262626" stroke-linejoin="miter" stroke-linecap="butt" stroke-width="0.5"/>
   <polyline fill="none" points="579.2,132.134 574.24,132.134" stroke="#262626" stroke-linejoin="miter" stroke-linecap="butt" stroke-width="0.5"/>
   <polyline fill="none" points="83.2002,98.8843 88.1602,98.8843" stroke="#262626" stroke-linejoin="miter" stroke-linecap="butt" stroke-width="0.5"/>
   <polyline fill="none" points="579.2,98.8843 574.24,98.8843" stroke="#262626" stroke-linejoin="miter" stroke-linecap="butt" stroke-width="0.5"/>
   <polyline fill="none" points="83.2002,65.6343 88.1602,65.6343" stroke="#262626" stroke-linejoin="miter" stroke-linecap="butt" stroke-width="0.5"/>
   <polyline fill="none" points="579.2,65.6343 574.24,65.6343" stroke="#262626" stroke-linejoin="miter" stroke-linecap="butt" stroke-width="0.5"/>
   <polyline fill="none" points="83.2002,32.3843 88.1602,32.3843" stroke="#262626" stroke-linejoin="miter" stroke-linecap="butt" stroke-width="0.5"/>
   <polyline fill="none" points="579.2,32.3843 574.24,32.3843" stroke="#262626" stroke-linejoin="miter" stroke-linecap="butt" stroke-width="0.5"/>
   <text font-family="FreeSans" font-style="normal" font-weight="normal" xml:space="preserve" transform="translate(72.2,169.384) rotate(-0,6,-4)" font-size="10">
    <tspan x="0 " y="-0" fill="rgb(38,38,38)">0</tspan>
   </text>
   <text font-family="FreeSans" font-style="normal" font-weight="normal" xml:space="preserve" transform="translate(66.2,136.134) rotate(-0,12,-4)" font-size="10">
    <tspan x="0 6 " y="-0" fill="rgb(38,38,38)">10</tspan>
   </text>
   <text font-family="FreeSans" font-style="normal" font-weight="normal" xml:space="preserve" transform="translate(66.2,102.884) rotate(-0,12,-4)" font-size="10">
    <tspan x="0 6 " y="-0" fill="rgb(38,38,38)">20</tspan>
   </text>
   <text font-family="FreeSans" font-style="normal" font-weight="normal" xml:space="preserve" transform="translate(66.2,69.6343) rotate(-0,12,-4)" font-size="10">
    <tspan x="0 6 " y="-0" fill="rgb(38,38,38)">30</tspan>
   </text>
   <text font-family="FreeSans" font-style="normal" font-weight="normal" xml:space="preserve" transform="translate(66.2,36.3843) rotate(-0,12,-4)" font-size="10">
    <tspan x="0 6 " y="-0" fill="rgb(38,38,38)">40</tspan>
   </text>
   <polyline stroke-dasharray="16,0" fill="none" points="83.2002,165.384 579.2,165.384" stroke="#262626" stroke-linejoin="miter" stroke-linecap="square" stroke-width="0.5"/>
   <polyline stroke-dasharray="16,0" fill="none" points="83.2002,32.3843 579.2,32.3843" stroke="#262626" stroke-linejoin="miter" stroke-linecap="square" stroke-width="0.5"/>
   <polyline stroke-dasharray="16,0" fill="none" points="83.2002,165.384 83.2002,32.3843" stroke="#262626" stroke-linejoin="miter" stroke-linecap="square" stroke-width="0.5"/>
   <polyline stroke-dasharray="16,0" fill="none" points="579.2,165.384 579.2,32.3843" stroke="#262626" stroke-linejoin="miter" stroke-linecap="square" stroke-width="0.5"/>
   <text font-family="FreeSans" font-style="normal" font-weight="normal" xml:space="preserve" transform="translate(49.7,98.8843) rotate(-90,11.5,0)" font-size="11">
    <tspan x="0 7 10 13 " y="-2" fill="rgb(38,38,38)">P, W</tspan>
   </text>
   <text font-family="FreeSans" font-style="normal" font-weight="normal" xml:space="preserve" transform="translate(323.2,196.884) rotate(-0,8,-11)" font-size="11">
    <tspan x="0 3 6 9 " y="-2" fill="rgb(38,38,38)">t, S</tspan>
   </text>
   <polyline fill="none" points="83.2002,105.534 84.1919,105.534 85.1841,105.534 86.1758,105.534 87.168,105.534 88.1602,105.534 89.1519,105.534 90.144,105.534 91.1362,105.534 92.1279,105.534 93.1201,105.534 94.1118,105.534 95.104,105.534 96.0962,105.534 97.0879,105.534 98.0801,105.534 99.0723,105.534 100.064,105.534 101.056,105.534 102.048,105.534 103.04,105.534 104.032,105.534 105.024,105.534 106.016,105.534 107.008,105.534 108,105.534 108.992,105.534 109.984,105.534 110.976,105.534 111.968,105.534 112.96,105.534 113.952,105.534 114.944,105.534 115.936,105.534 116.928,105.534 117.92,105.534 118.912,105.534 119.904,105.534 120.896,105.534 121.888,105.534 122.88,105.534 123.872,105.534 124.864,105.534 125.856,105.534 126.848,105.534 127.84,105.534 128.832,105.534 129.824,105.534 130.816,105.534 131.808,105.534 132.8,105.534 133.792,105.534 134.784,105.534 135.776,105.534 136.768,105.534 137.76,105.534 138.752,105.534 139.744,105.534 140.736,105.534 141.728,105.534 142.72,105.534 143.712,105.534 144.704,105.534 145.696,105.534 146.688,105.534 147.68,105.534 148.672,105.534 149.664,105.534 150.656,105.534 151.648,105.534 152.64,105.534 153.632,105.534 154.624,105.534 155.616,105.534 156.608,105.534 157.6,105.534 158.592,105.534 159.584,105.534 160.576,105.534 161.568,105.534 162.56,105.534 163.552,105.534 164.544,105.534 165.536,105.534 166.528,105.534 167.52,105.534 168.512,105.534 169.504,105.534 170.496,105.534 171.488,105.534 172.48,105.534 173.472,105.534 174.464,105.534 175.456,105.534 176.448,105.534 177.44,105.534 178.432,105.534 179.424,105.534 180.416,105.534 181.408,105.534 182.4,78.9341 183.392,78.9341 184.384,78.9341 185.376,78.9341 186.368,78.9341 187.36,78.9341 188.352,78.9341 189.344,78.9341 190.336,78.9341 191.328,78.9341 192.32,78.9341 193.312,78.9341 194.304,78.9341 195.296,78.9341 196.288,78.9341 197.28,78.9341 198.272,78.9341 199.264,78.9341 200.256,78.9341 201.248,78.9341 202.24,78.9341 203.232,78.9341 204.224,78.9341 205.216,78.9341 206.208,78.9341 207.2,78.9341 208.192,78.9341 209.184,78.9341 210.176,78.9341 211.168,78.9341 212.16,78.9341 213.152,78.9341 214.144,78.9341 215.136,78.9341 216.128,78.9341 217.12,78.9341 218.112,78.9341 219.104,78.9341 220.096,78.9341 221.088,78.9341 222.08,78.9341 223.072,78.9341 224.064,78.9341 225.056,78.9341 226.048,78.9341 227.04,78.9341 228.032,78.9341 229.024,78.9341 230.016,78.9341 231.008,78.9341 232,78.9341 232.992,78.9341 233.984,78.9341 234.976,78.9341 235.968,78.9341 236.96,78.9341 237.952,78.9341 238.944,78.9341 239.936,78.9341 240.928,78.9341 241.92,78.9341 242.912,78.9341 243.904,78.9341 244.896,78.9341 245.888,78.9341 246.88,78.9341 247.872,78.9341 248.864,78.9341 249.856,78.9341 250.848,78.9341 251.84,78.9341 252.832,78.9341 253.824,78.9341 254.816,78.9341 255.808,78.9341 256.8,78.9341 257.792,78.9341 258.784,78.9341 259.776,78.9341 260.768,78.9341 261.76,78.9341 262.752,78.9341 263.744,78.9341 264.736,78.9341 265.728,78.9341 266.72,78.9341 267.712,78.9341 268.704,78.9341 269.696,78.9341 270.688,78.9341 271.68,78.9341 272.672,78.9341 273.664,78.9341 274.656,78.9341 275.648,78.9341 276.64,78.9341 277.632,78.9341 278.624,78.9341 279.616,78.9341 280.608,78.9341 281.6,32.3843 282.592,32.3843 283.584,32.3843 284.576,32.3843 285.568,32.3843 286.56,32.3843 287.552,32.3843 288.544,32.3843 289.536,32.3843 290.528,32.3843 291.52,32.3843 292.512,32.3843 293.504,32.3843 294.496,32.3843 295.488,32.3843 296.48,32.3843 297.472,32.3843 298.464,32.3843 299.456,32.3843 300.448,32.3843 301.44,32.3843 302.432,32.3843 303.424,32.3843 304.416,32.3843 305.408,32.3843 306.4,32.3843 307.392,32.3843 308.384,32.3843 309.376,32.3843 310.368,32.3843 311.36,32.3843 312.352,32.3843 313.344,32.3843 314.336,32.3843 315.328,32.3843 316.32,32.3843 317.312,32.3843 318.304,32.3843 319.296,32.3843 320.288,32.3843 321.28,32.3843 322.272,32.3843 323.264,32.3843 324.256,32.3843 325.248,32.3843 326.24,32.3843 327.232,32.3843 328.224,32.3843 329.216,32.3843 330.208,32.3843 331.2,32.3843 332.192,32.3843 333.184,32.3843 334.176,32.3843 335.168,32.3843 336.16,32.3843 337.152,32.3843 338.144,32.3843 339.136,32.3843 340.128,32.3843 341.12,32.3843 342.112,32.3843 343.104,32.3843 344.096,32.3843 345.088,32.3843 346.08,32.3843 347.072,32.3843 348.064,32.3843 349.056,32.3843 350.048,32.3843 351.04,32.3843 352.032,32.3843 353.024,32.3843 354.016,32.3843 355.008,32.3843 356,32.3843 356.992,32.3843 357.984,32.3843 358.976,32.3843 359.968,32.3843 360.96,32.3843 361.952,32.3843 362.944,32.3843 363.936,32.3843 364.928,32.3843 365.92,32.3843 366.912,32.3843 367.904,32.3843 368.896,32.3843 369.888,32.3843 370.88,32.3843 371.872,32.3843 372.864,32.3843 373.856,32.3843 374.848,32.3843 375.84,32.3843 376.832,32.3843 377.824,32.3843 378.816,32.3843 379.808,32.3843 380.8,165.384 381.792,165.384 382.784,165.384 383.776,165.384 384.768,165.384 385.76,165.384 386.752,165.384 387.744,165.384 388.736,165.384 389.728,165.384 390.72,165.384 391.712,165.384 392.704,165.384 393.696,165.384 394.688,165.384 395.68,165.384 396.672,165.384 397.664,165.384 398.656,165.384 399.648,165.384 400.64,165.384 401.632,165.384 402.624,165.384 403.616,165.384 404.608,165.384 405.6,165.384 406.592,165.384 407.584,165.384 408.576,165.384 409.568,165.384 410.56,165.384 411.552,165.384 412.544,165.384 413.536,165.384 414.528,165.384 415.52,165.384 416.512,165.384 417.504,165.384 418.496,165.384 419.488,165.384 420.48,165.384 421.472,165.384 422.464,165.384 423.456,165.384 424.448,165.384 425.44,165.384 426.432,165.384 427.424,165.384 428.416,165.384 429.408,165.384 430.4,165.384 431.392,165.384 432.384,165.384 433.376,165.384 434.368,165.384 435.36,165.384 436.352,165.384 437.344,165.384 438.336,165.384 439.328,165.384 440.32,165.384 441.312,165.384 442.304,165.384 443.296,165.384 444.288,165.384 445.28,165.384 446.272,165.384 447.264,165.384 448.256,165.384 449.248,165.384 450.24,165.384 451.232,165.384 452.224,165.384 453.216,165.384 454.208,165.384 455.2,165.384 456.192,165.384 457.184,165.384 458.176,165.384 459.168,165.384 460.16,165.384 461.152,165.384 462.144,165.384 463.136,165.384 464.128,165.384 465.12,165.384 466.112,165.384 467.104,165.384 468.096,165.384 469.088,165.384 470.08,165.384 471.072,165.384 472.064,165.384 473.056,165.384 474.048,165.384 475.04,165.384 476.032,165.384 477.024,165.384 478.016,165.384 479.008,165.384 480,165.384 480.992,165.384 481.984,165.384 482.976,165.384 483.968,165.384 484.96,165.384 485.952,165.384 486.944,165.384 487.936,165.384 488.928,165.384 489.92,165.384 490.912,165.384 491.904,165.384 492.896,165.384 493.888,165.384 494.88,165.384 495.872,165.384 496.864,165.384 497.856,165.384 498.848,165.384 499.84,165.384 500.832,165.384 501.824,165.384 502.816,165.384 503.808,165.384 504.8,165.384 505.792,165.384 506.784,165.384 507.776,165.384 508.768,165.384 509.76,165.384 510.752,165.384 511.744,165.384 512.736,165.384 513.728,165.384 514.72,165.384 515.712,165.384 516.704,165.384 517.696,165.384 518.688,165.384 519.68,165.384 520.672,165.384 521.664,165.384 522.656,165.384 523.648,165.384 524.64,165.384 525.632,165.384 526.624,165.384 527.616,165.384 528.608,165.384 529.6,165.384 530.592,165.384 531.584,165.384 532.576,165.384 533.568,165.384 534.56,165.384 535.552,165.384 536.544,165.384 537.536,165.384 538.528,165.384 539.52,165.384 540.512,165.384 541.504,165.384 542.496,165.384 543.488,165.384 544.48,165.384 545.472,165.384 546.464,165.384 547.456,165.384 548.448,165.384 549.44,165.384 550.432,165.384 551.424,165.384 552.416,165.384 553.408,165.384 554.4,165.384 555.392,165.384 556.384,165.384 557.376,165.384 558.368,165.384 559.36,165.384 560.352,165.384 561.344,165.384 562.336,165.384 563.328,165.384 564.32,165.384 565.312,165.384 566.304,165.384 567.296,165.384 568.288,165.384 569.28,165.384 570.272,165.384 571.264,165.384 572.256,165.384 573.248,165.384 574.24,165.384 575.232,165.384 576.224,165.384 577.216,165.384 578.208,165.384" stroke="#0071bc" stroke-linejoin="round" stroke-linecap="butt" stroke-width="0.5"/>
  </g>
  <clipPath id="cp00640400">
   <polygon points="0,400 640,400 640,0 0,0"/>
  </clipPath>
  <g clip-path="url(#cp00640400)">
   <polygon fill="#ffffff" points="468.363,54.7554 567.015,54.7554 567.015,40.1543 468.363,40.1543" shape-rendering="crispEdges"/>
   <polyline stroke-dasharray="16,0" fill="none" points="468.363,54.7554 567.015,54.7554" stroke="#262626" stroke-linejoin="miter" stroke-linecap="square" stroke-width="0.5"/>
   <polyline stroke-dasharray="16,0" fill="none" points="468.363,40.1543 567.015,40.1543" stroke="#262626" stroke-linejoin="miter" stroke-linecap="square" stroke-width="0.5"/>
   <polyline stroke-dasharray="16,0" fill="none" points="468.363,54.7554 468.363,40.1543" stroke="#262626" stroke-linejoin="miter" stroke-linecap="square" stroke-width="0.5"/>
   <polyline stroke-dasharray="16,0" fill="none" points="567.015,54.7554 567.015,40.1543" stroke="#262626" stroke-linejoin="miter" stroke-linecap="square" stroke-width="0.5"/>
   <text font-family="FreeSans" font-style="normal" font-weight="normal" xml:space="preserve" transform="translate(498.318,52.4548) rotate(-0,-0,-5)" font-size="9">
    <tspan x="0 6 11 16 18 20 25 30 32 37 42 49 54 " y="-2" fill="rgb(0,0,0)">Applied power</tspan>
   </text>
   <polyline fill="none" points="471.917,47.4546 494.764,47.4546" stroke="#0071bc" stroke-linejoin="round" stroke-linecap="butt" stroke-width="0.5"/>
  </g>
  <clipPath id="cp00640400">
   <polygon points="0,400 640,400 640,0 0,0"/>
  </clipPath>
  <g clip-path="url(#cp00640400)">
   <polygon fill="#ffffff" points="83.2002,356 579.2,356 579.2,223 83.2002,223" shape-rendering="crispEdges"/>
   <polyline fill="none" points="83.2002,356 83.2002,351.04" stroke="#262626" stroke-linejoin="miter" stroke-linecap="butt" stroke-width="0.5"/>
   <polyline fill="none" points="83.2002,223 83.2002,227.96" stroke="#262626" stroke-linejoin="miter" stroke-linecap="butt" stroke-width="0.5"/>
   <polyline fill="none" points="182.4,356 182.4,351.04" stroke="#262626" stroke-linejoin="miter" stroke-linecap="butt" stroke-width="0.5"/>
   <polyline fill="none" points="182.4,223 182.4,227.96" stroke="#262626" stroke-linejoin="miter" stroke-linecap="butt" stroke-width="0.5"/>
   <polyline fill="none" points="281.6,356 281.6,351.04" stroke="#262626" stroke-linejoin="miter" stroke-linecap="butt" stroke-width="0.5"/>
   <polyline fill="none" points="281.6,223 281.6,227.96" stroke="#262626" stroke-linejoin="miter" stroke-linecap="butt" stroke-width="0.5"/>
   <polyline fill="none" points="380.8,356 380.8,351.04" stroke="#262626" stroke-linejoin="miter" stroke-linecap="butt" stroke-width="0.5"/>
   <polyline fill="none" points="380.8,223 380.8,227.96" stroke="#262626" stroke-linejoin="miter" stroke-linecap="butt" stroke-width="0.5"/>
   <polyline fill="none" points="480,356 480,351.04" stroke="#262626" stroke-linejoin="miter" stroke-linecap="butt" stroke-width="0.5"/>
   <polyline fill="none" points="480,223 480,227.96" stroke="#262626" stroke-linejoin="miter" stroke-linecap="butt" stroke-width="0.5"/>
   <polyline fill="none" points="579.2,356 579.2,351.04" stroke="#262626" stroke-linejoin="miter" stroke-linecap="butt" stroke-width="0.5"/>
   <polyline fill="none" points="579.2,223 579.2,227.96" stroke="#262626" stroke-linejoin="miter" stroke-linecap="butt" stroke-width="0.5"/>
   <text font-family="FreeSans" font-style="normal" font-weight="normal" xml:space="preserve" transform="translate(80.2,371.5) rotate(-0,3,-8)" font-size="10">
    <tspan x="0 " y="-0" fill="rgb(38,38,38)">0</tspan>
   </text>
   <text font-family="FreeSans" font-style="normal" font-weight="normal" xml:space="preserve" transform="translate(173.4,371.5) rotate(-0,9,-8)" font-size="10">
    <tspan x="0 6 12 " y="-0" fill="rgb(38,38,38)">100</tspan>
   </text>
   <text font-family="FreeSans" font-style="normal" font-weight="normal" xml:space="preserve" transform="translate(272.6,371.5) rotate(-0,9,-8)" font-size="10">
    <tspan x="0 6 12 " y="-0" fill="rgb(38,38,38)">200</tspan>
   </text>
   <text font-family="FreeSans" font-style="normal" font-weight="normal" xml:space="preserve" transform="translate(371.8,371.5) rotate(-0,9,-8)" font-size="10">
    <tspan x="0 6 12 " y="-0" fill="rgb(38,38,38)">300</tspan>
   </text>
   <text font-family="FreeSans" font-style="normal" font-weight="normal" xml:space="preserve" transform="translate(471,371.5) rotate(-0,9,-8)" font-size="10">
    <tspan x="0 6 12 " y="-0" fill="rgb(38,38,38)">400</tspan>
   </text>
   <text font-family="FreeSans" font-style="normal" font-weight="normal" xml:space="preserve" transform="translate(570.2,371.5) rotate(-0,9,-8)" font-size="10">
    <tspan x="0 6 12 " y="-0" fill="rgb(38,38,38)">500</tspan>
   </text>
   <polyline fill="none" points="83.2002,356 88.1602,356" stroke="#262626" stroke-linejoin="miter" stroke-linecap="butt" stroke-width="0.5"/>
   <polyline fill="none" points="579.2,356 574.24,356" stroke="#262626" stroke-linejoin="miter" stroke-linecap="butt" stroke-width="0.5"/>
   <polyline fill="none" points="83.2002,337 88.1602,337" stroke="#262626" stroke-linejoin="miter" stroke-linecap="butt" stroke-width="0.5"/>
   <polyline fill="none" points="579.2,337 574.24,337" stroke="#262626" stroke-linejoin="miter" stroke-linecap="butt" stroke-width="0.5"/>
   <polyline fill="none" points="83.2002,318 88.1602,318" stroke="#262626" stroke-linejoin="miter" stroke-linecap="butt" stroke-width="0.5"/>
   <polyline fill="none" points="579.2,318 574.24,318" stroke="#262626" stroke-linejoin="miter" stroke-linecap="butt" stroke-width="0.5"/>
   <polyline fill="none" points="83.2002,299 88.1602,299" stroke="#262626" stroke-linejoin="miter" stroke-linecap="butt" stroke-width="0.5"/>
   <polyline fill="none" points="579.2,299 574.24,299" stroke="#262626" stroke-linejoin="miter" stroke-linecap="butt" stroke-width="0.5"/>
   <polyline fill="none" points="83.2002,280 88.1602,280" stroke="#262626" stroke-linejoin="miter" stroke-linecap="butt" stroke-width="0.5"/>
   <polyline fill="none" points="579.2,280 574.24,280" stroke="#262626" stroke-linejoin="miter" stroke-linecap="butt" stroke-width="0.5"/>
   <polyline fill="none" points="83.2002,261 88.1602,261" stroke="#262626" stroke-linejoin="miter" stroke-linecap="butt" stroke-width="0.5"/>
   <polyline fill="none" points="579.2,261 574.24,261" stroke="#262626" stroke-linejoin="miter" stroke-linecap="butt" stroke-width="0.5"/>
   <polyline fill="none" points="83.2002,242 88.1602,242" stroke="#262626" stroke-linejoin="miter" stroke-linecap="butt" stroke-width="0.5"/>
   <polyline fill="none" points="579.2,242 574.24,242" stroke="#262626" stroke-linejoin="miter" stroke-linecap="butt" stroke-width="0.5"/>
   <polyline fill="none" points="83.2002,223 88.1602,223" stroke="#262626" stroke-linejoin="miter" stroke-linecap="butt" stroke-width="0.5"/>
   <polyline fill="none" points="579.2,223 574.24,223" stroke="#262626" stroke-linejoin="miter" stroke-linecap="butt" stroke-width="0.5"/>
   <text font-family="FreeSans" font-style="normal" font-weight="normal" xml:space="preserve" transform="translate(72.2,360) rotate(-0,6,-4)" font-size="10">
    <tspan x="0 " y="-0" fill="rgb(38,38,38)">0</tspan>
   </text>
   <text font-family="FreeSans" font-style="normal" font-weight="normal" xml:space="preserve" transform="translate(66.2,341) rotate(-0,12,-4)" font-size="10">
    <tspan x="0 6 " y="-0" fill="rgb(38,38,38)">50</tspan>
   </text>
   <text font-family="FreeSans" font-style="normal" font-weight="normal" xml:space="preserve" transform="translate(60.2,322) rotate(-0,18,-4)" font-size="10">
    <tspan x="0 6 12 " y="-0" fill="rgb(38,38,38)">100</tspan>
   </text>
   <text font-family="FreeSans" font-style="normal" font-weight="normal" xml:space="preserve" transform="translate(60.2,303) rotate(-0,18,-4)" font-size="10">
    <tspan x="0 6 12 " y="-0" fill="rgb(38,38,38)">150</tspan>
   </text>
   <text font-family="FreeSans" font-style="normal" font-weight="normal" xml:space="preserve" transform="translate(60.2,284) rotate(-0,18,-4)" font-size="10">
    <tspan x="0 6 12 " y="-0" fill="rgb(38,38,38)">200</tspan>
   </text>
   <text font-family="FreeSans" font-style="normal" font-weight="normal" xml:space="preserve" transform="translate(60.2,265) rotate(-0,18,-4)" font-size="10">
    <tspan x="0 6 12 " y="-0" fill="rgb(38,38,38)">250</tspan>
   </text>
   <text font-family="FreeSans" font-style="normal" font-weight="normal" xml:space="preserve" transform="translate(60.2,246) rotate(-0,18,-4)" font-size="10">
    <tspan x="0 6 12 " y="-0" fill="rgb(38,38,38)">300</tspan>
   </text>
   <text font-family="FreeSans" font-style="normal" font-weight="normal" xml:space="preserve" transform="translate(60.2,227) rotate(-0,18,-4)" font-size="10">
    <tspan x="0 6 12 " y="-0" fill="rgb(38,38,38)">350</tspan>
   </text>
   <polyline stroke-dasharray="16,0" fill="none" points="83.2002,356 579.2,356" stroke="#262626" stroke-linejoin="miter" stroke-linecap="square" stroke-width="0.5"/>
   <polyline stroke-dasharray="16,0" fill="none" points="83.2002,223 579.2,223" stroke="#262626" stroke-linejoin="miter" stroke-linecap="square" stroke-width="0.5"/>
   <polyline stroke-dasharray="16,0" fill="none" points="83.2002,356 83.2002,223" stroke="#262626" stroke-linejoin="miter" stroke-linecap="square" stroke-width="0.5"/>
   <polyline stroke-dasharray="16,0" fill="none" points="579.2,356 579.2,223" stroke="#262626" stroke-linejoin="miter" stroke-linecap="square" stroke-width="0.5"/>
   <text font-family="FreeSans" font-style="normal" font-weight="normal" xml:space="preserve" transform="translate(42.7,289.5) rotate(-90,12.5,0)" font-size="11">
    <tspan x="0 7 10 13 17 " y="-2" fill="rgb(38,38,38)">T, *C</tspan>
   </text>
   <text font-family="FreeSans" font-style="normal" font-weight="normal" xml:space="preserve" transform="translate(323.2,387.5) rotate(-0,8,-11)" font-size="11">
    <tspan x="0 3 6 9 " y="-2" fill="rgb(38,38,38)">t, S</tspan>
   </text>
   <polyline fill="none" points="83.2002,345.494 84.1919,344.506 85.1841,343.536 86.1758,342.582 87.168,341.645 88.1602,340.724 89.1519,339.819 90.144,338.931 91.1362,338.058 92.1279,337.2 93.1201,336.357 94.1118,335.529 95.104,334.715 96.0962,333.916 97.0879,333.13 98.0801,332.359 99.0723,331.601 100.064,330.855 101.056,330.124 102.048,329.405 103.04,328.698 104.032,328.004 105.024,327.322 106.016,326.652 107.008,325.994 108,325.347 108.992,324.712 109.984,324.088 110.976,323.474 111.968,322.872 112.96,322.28 113.952,321.698 114.944,321.126 115.936,320.565 116.928,320.013 117.92,319.471 118.912,318.938 119.904,318.415 120.896,317.901 121.888,317.396 122.88,316.9 123.872,316.412 124.864,315.933 125.856,315.462 126.848,315 127.84,314.546 128.832,314.1 129.824,313.661 130.816,313.23 131.808,312.807 132.8,312.391 133.792,311.982 134.784,311.581 135.776,311.186 136.768,310.799 137.76,310.418 138.752,310.044 139.744,309.676 140.736,309.315 141.728,308.96 142.72,308.612 143.712,308.269 144.704,307.933 145.696,307.602 146.688,307.277 147.68,306.958 148.672,306.645 149.664,306.336 150.656,306.034 151.648,305.736 152.64,305.444 153.632,305.157 154.624,304.875 155.616,304.598 156.608,304.326 157.6,304.059 158.592,303.795 159.584,303.538 160.576,303.284 161.568,303.035 162.56,302.79 163.552,302.549 164.544,302.312 165.536,302.081 166.528,301.852 167.52,301.628 168.512,301.408 169.504,301.191 170.496,300.979 171.488,300.77 172.48,300.564 173.472,300.363 174.464,300.165 175.456,299.97 176.448,299.779 177.44,299.591 178.432,299.407 179.424,299.225 180.416,299.047 181.408,298.872 182.4,298.253 183.392,297.645 184.384,297.047 185.376,296.46 186.368,295.883 187.36,295.317 188.352,294.76 189.344,294.213 190.336,293.676 191.328,293.147 192.32,292.629 193.312,292.119 194.304,291.618 195.296,291.126 196.288,290.643 197.28,290.168 198.272,289.701 199.264,289.243 200.256,288.792 201.248,288.35 202.24,287.915 203.232,287.488 204.224,287.068 205.216,286.656 206.208,286.25 207.2,285.853 208.192,285.461 209.184,285.077 210.176,284.7 211.168,284.329 212.16,283.964 213.152,283.606 214.144,283.254 215.136,282.909 216.128,282.569 217.12,282.236 218.112,281.908 219.104,281.586 220.096,281.27 221.088,280.958 222.08,280.653 223.072,280.353 224.064,280.058 225.056,279.769 226.048,279.484 227.04,279.204 228.032,278.93 229.024,278.66 230.016,278.395 231.008,278.134 232,277.878 232.992,277.626 233.984,277.379 234.976,277.136 235.968,276.898 236.96,276.664 237.952,276.433 238.944,276.207 239.936,275.985 240.928,275.766 241.92,275.552 242.912,275.341 243.904,275.134 244.896,274.93 245.888,274.73 246.88,274.534 247.872,274.341 248.864,274.151 249.856,273.965 250.848,273.782 251.84,273.602 252.832,273.426 253.824,273.252 254.816,273.082 255.808,272.914 256.8,272.749 257.792,272.587 258.784,272.429 259.776,272.272 260.768,272.119 261.76,271.968 262.752,271.82 263.744,271.675 264.736,271.532 265.728,271.391 266.72,271.253 267.712,271.118 268.704,270.984 269.696,270.854 270.688,270.725 271.68,270.599 272.672,270.475 273.664,270.353 274.656,270.233 275.648,270.115 276.64,270 277.632,269.886 278.624,269.774 279.616,269.665 280.608,269.557 281.6,268.669 282.592,267.796 283.584,266.939 284.576,266.097 285.568,265.27 286.56,264.457 287.552,263.658 288.544,262.873 289.536,262.102 290.528,261.344 291.52,260.6 292.512,259.869 293.504,259.15 294.496,258.444 295.488,257.75 296.48,257.069 297.472,256.4 298.464,255.742 299.456,255.096 300.448,254.461 301.44,253.837 302.432,253.224 303.424,252.622 304.416,252.03 305.408,251.449 306.4,250.878 307.392,250.317 308.384,249.766 309.376,249.224 310.368,248.692 311.36,248.169 312.352,247.655 313.344,247.15 314.336,246.655 315.328,246.167 316.32,245.689 317.312,245.219 318.304,244.757 319.296,244.303 320.288,243.856 321.28,243.418 322.272,242.988 323.264,242.565 324.256,242.149 325.248,241.741 326.24,241.34 327.232,240.946 328.224,240.558 329.216,240.178 330.208,239.804 331.2,239.437 332.192,239.076 333.184,238.721 334.176,238.373 335.168,238.031 336.16,237.695 337.152,237.364 338.144,237.04 339.136,236.721 340.128,236.407 341.12,236.1 342.112,235.797 343.104,235.5 344.096,235.208 345.088,234.921 346.08,234.64 347.072,234.363 348.064,234.09 349.056,233.823 350.048,233.561 351.04,233.303 352.032,233.049 353.024,232.8 354.016,232.556 355.008,232.315 356,232.079 356.992,231.847 357.984,231.619 358.976,231.395 359.968,231.175 360.96,230.958 361.952,230.746 362.944,230.537 363.936,230.332 364.928,230.131 365.92,229.933 366.912,229.738 367.904,229.547 368.896,229.359 369.888,229.175 370.88,228.994 371.872,228.815 372.864,228.641 373.856,228.469 374.848,228.3 375.84,228.134 376.832,227.971 377.824,227.811 378.816,227.653 379.808,227.499 380.8,229.582 381.792,231.628 382.784,233.639 383.776,235.614 384.768,237.555 385.76,239.462 386.752,241.335 387.744,243.176 388.736,244.984 389.728,246.761 390.72,248.507 391.712,250.222 392.704,251.908 393.696,253.563 394.688,255.19 395.68,256.788 396.672,258.358 397.664,259.901 398.656,261.417 399.648,262.906 400.64,264.369 401.632,265.807 402.624,267.219 403.616,268.607 404.608,269.97 405.6,271.31 406.592,272.625 407.584,273.918 408.576,275.189 409.568,276.437 410.56,277.664 411.552,278.868 412.544,280.052 413.536,281.215 414.528,282.358 415.52,283.48 416.512,284.583 417.504,285.667 418.496,286.732 419.488,287.778 420.48,288.806 421.472,289.816 422.464,290.808 423.456,291.783 424.448,292.74 425.44,293.681 426.432,294.606 427.424,295.514 428.416,296.407 429.408,297.283 430.4,298.145 431.392,298.991 432.384,299.823 433.376,300.64 434.368,301.442 435.36,302.231 436.352,303.006 437.344,303.767 438.336,304.515 439.328,305.25 440.32,305.972 441.312,306.681 442.304,307.378 443.296,308.063 444.288,308.736 445.28,309.397 446.272,310.046 447.264,310.684 448.256,311.311 449.248,311.927 450.24,312.532 451.232,313.126 452.224,313.711 453.216,314.285 454.208,314.849 455.2,315.403 456.192,315.947 457.184,316.481 458.176,317.007 459.168,317.523 460.16,318.03 461.152,318.529 462.144,319.019 463.136,319.5 464.128,319.972 465.12,320.437 466.112,320.893 467.104,321.341 468.096,321.781 469.088,322.214 470.08,322.639 471.072,323.057 472.064,323.467 473.056,323.87 474.048,324.266 475.04,324.655 476.032,325.038 477.024,325.413 478.016,325.782 479.008,326.145 480,326.501 480.992,326.851 481.984,327.195 482.976,327.533 483.968,327.865 484.96,328.191 485.952,328.512 486.944,328.827 487.936,329.136 488.928,329.44 489.92,329.738 490.912,330.032 491.904,330.32 492.896,330.603 493.888,330.881 494.88,331.155 495.872,331.423 496.864,331.687 497.856,331.946 498.848,332.201 499.84,332.452 500.832,332.697 501.824,332.939 502.816,333.176 503.808,333.41 504.8,333.639 505.792,333.864 506.784,334.085 507.776,334.302 508.768,334.516 509.76,334.726 510.752,334.932 511.744,335.134 512.736,335.333 513.728,335.528 514.72,335.721 515.712,335.909 516.704,336.095 517.696,336.277 518.688,336.456 519.68,336.631 520.672,336.804 521.664,336.974 522.656,337.141 523.648,337.304 524.64,337.465 525.632,337.624 526.624,337.779 527.616,337.932 528.608,338.082 529.6,338.229 530.592,338.374 531.584,338.516 532.576,338.656 533.568,338.793 534.56,338.928 535.552,339.061 536.544,339.19 537.536,339.318 538.528,339.444 539.52,339.568 540.512,339.689 541.504,339.808 542.496,339.925 543.488,340.041 544.48,340.153 545.472,340.265 546.464,340.374 547.456,340.481 548.448,340.586 549.44,340.69 550.432,340.792 551.424,340.892 552.416,340.99 553.408,341.086 554.4,341.181 555.392,341.274 556.384,341.365 557.376,341.455 558.368,341.543 559.36,341.63 560.352,341.715 561.344,341.799 562.336,341.881 563.328,341.962 564.32,342.042 565.312,342.12 566.304,342.196 567.296,342.272 568.288,342.346 569.28,342.418 570.272,342.49 571.264,342.56 572.256,342.629 573.248,342.697 574.24,342.763 575.232,342.829 576.224,342.893 577.216,342.956 578.208,343.018" stroke="#0071bc" stroke-linejoin="round" stroke-linecap="butt" stroke-width="0.5"/>
   <polyline fill="none" points="83.2002,346.5 84.1919,346.5 85.1841,346.5 86.1758,346.5 87.168,346.5 88.1602,346.5 89.1519,346.5 90.144,346.5 91.1362,346.5 92.1279,346.5 93.1201,346.5 94.1118,346.5 95.104,346.5 96.0962,346.5 97.0879,346.5 98.0801,346.5 99.0723,346.5 100.064,346.5 101.056,346.5 102.048,346.5 103.04,346.5 104.032,346.5 105.024,346.5 106.016,346.5 107.008,346.5 108,346.5 108.992,346.5 109.984,346.5 110.976,346.5 111.968,346.5 112.96,346.5 113.952,346.5 114.944,346.5 115.936,346.5 116.928,346.5 117.92,346.5 118.912,346.5 119.904,346.5 120.896,346.5 121.888,346.5 122.88,346.5 123.872,346.5 124.864,346.5 125.856,346.5 126.848,346.5 127.84,346.5 128.832,346.5 129.824,346.5 130.816,346.5 131.808,346.5 132.8,346.5 133.792,346.5 134.784,346.5 135.776,346.5 136.768,346.5 137.76,346.5 138.752,346.5 139.744,346.5 140.736,346.5 141.728,346.5 142.72,346.5 143.712,346.5 144.704,346.5 145.696,346.5 146.688,346.5 147.68,346.5 148.672,346.5 149.664,346.5 150.656,346.5 151.648,346.5 152.64,346.5 153.632,346.5 154.624,346.5 155.616,346.5 156.608,346.5 157.6,346.5 158.592,346.5 159.584,346.5 160.576,346.5 161.568,346.5 162.56,346.5 163.552,346.5 164.544,346.5 165.536,346.5 166.528,346.5 167.52,346.5 168.512,346.5 169.504,346.5 170.496,346.5 171.488,346.5 172.48,346.5 173.472,346.5 174.464,346.5 175.456,346.5 176.448,346.5 177.44,346.5 178.432,346.5 179.424,346.5 180.416,346.5 181.408,346.5 182.4,346.5 183.392,346.5 184.384,346.5 185.376,346.5 186.368,346.5 187.36,346.5 188.352,346.5 189.344,346.5 190.336,346.5 191.328,346.5 192.32,346.5 193.312,346.5 194.304,346.5 195.296,346.5 196.288,346.5 197.28,346.5 198.272,346.5 199.264,346.5 200.256,346.5 201.248,346.5 202.24,346.5 203.232,346.5 204.224,346.5 205.216,346.5 206.208,346.5 207.2,346.5 208.192,346.5 209.184,346.5 210.176,346.5 211.168,346.5 212.16,346.5 213.152,346.5 214.144,346.5 215.136,346.5 216.128,346.5 217.12,346.5 218.112,346.5 219.104,346.5 220.096,346.5 221.088,346.5 222.08,346.5 223.072,346.5 224.064,346.5 225.056,346.5 226.048,346.5 227.04,346.5 228.032,346.5 229.024,346.5 230.016,346.5 231.008,346.5 232,346.5 232.992,346.5 233.984,346.5 234.976,346.5 235.968,346.5 236.96,346.5 237.952,346.5 238.944,346.5 239.936,346.5 240.928,346.5 241.92,346.5 242.912,346.5 243.904,346.5 244.896,346.5 245.888,346.5 246.88,346.5 247.872,346.5 248.864,346.5 249.856,346.5 250.848,346.5 251.84,346.5 252.832,346.5 253.824,346.5 254.816,346.5 255.808,346.5 256.8,346.5 257.792,346.5 258.784,346.5 259.776,346.5 260.768,346.5 261.76,346.5 262.752,346.5 263.744,346.5 264.736,346.5 265.728,346.5 266.72,346.5 267.712,346.5 268.704,346.5 269.696,346.5 270.688,346.5 271.68,346.5 272.672,346.5 273.664,346.5 274.656,346.5 275.648,346.5 276.64,346.5 277.632,346.5 278.624,346.5 279.616,346.5 280.608,346.5 281.6,346.5 282.592,346.5 283.584,346.5 284.576,346.5 285.568,346.5 286.56,346.5 287.552,346.5 288.544,346.5 289.536,346.5 290.528,346.5 291.52,346.5 292.512,346.5 293.504,346.5 294.496,346.5 295.488,346.5 296.48,346.5 297.472,346.5 298.464,346.5 299.456,346.5 300.448,346.5 301.44,346.5 302.432,346.5 303.424,346.5 304.416,346.5 305.408,346.5 306.4,346.5 307.392,346.5 308.384,346.5 309.376,346.5 310.368,346.5 311.36,346.5 312.352,346.5 313.344,346.5 314.336,346.5 315.328,346.5 316.32,346.5 317.312,346.5 318.304,346.5 319.296,346.5 320.288,346.5 321.28,346.5 322.272,346.5 323.264,346.5 324.256,346.5 325.248,346.5 326.24,346.5 327.232,346.5 328.224,346.5 329.216,346.5 330.208,346.5 331.2,346.5 332.192,346.5 333.184,346.5 334.176,346.5 335.168,346.5 336.16,346.5 337.152,346.5 338.144,346.5 339.136,346.5 340.128,346.5 341.12,346.5 342.112,346.5 343.104,346.5 344.096,346.5 345.088,346.5 346.08,346.5 347.072,346.5 348.064,346.5 349.056,346.5 350.048,346.5 351.04,346.5 352.032,346.5 353.024,346.5 354.016,346.5 355.008,346.5 356,346.5 356.992,346.5 357.984,346.5 358.976,346.5 359.968,346.5 360.96,346.5 361.952,346.5 362.944,346.5 363.936,346.5 364.928,346.5 365.92,346.5 366.912,346.5 367.904,346.5 368.896,346.5 369.888,346.5 370.88,346.5 371.872,346.5 372.864,346.5 373.856,346.5 374.848,346.5 375.84,346.5 376.832,346.5 377.824,346.5 378.816,346.5 379.808,346.5 380.8,346.5 381.792,346.5 382.784,346.5 383.776,346.5 384.768,346.5 385.76,346.5 386.752,346.5 387.744,346.5 388.736,346.5 389.728,346.5 390.72,346.5 391.712,346.5 392.704,346.5 393.696,346.5 394.688,346.5 395.68,346.5 396.672,346.5 397.664,346.5 398.656,346.5 399.648,346.5 400.64,346.5 401.632,346.5 402.624,346.5 403.616,346.5 404.608,346.5 405.6,346.5 406.592,346.5 407.584,346.5 408.576,346.5 409.568,346.5 410.56,346.5 411.552,346.5 412.544,346.5 413.536,346.5 414.528,346.5 415.52,346.5 416.512,346.5 417.504,346.5 418.496,346.5 419.488,346.5 420.48,346.5 421.472,346.5 422.464,346.5 423.456,346.5 424.448,346.5 425.44,346.5 426.432,346.5 427.424,346.5 428.416,346.5 429.408,346.5 430.4,346.5 431.392,346.5 432.384,346.5 433.376,346.5 434.368,346.5 435.36,346.5 436.352,346.5 437.344,346.5 438.336,346.5 439.328,346.5 440.32,346.5 441.312,346.5 442.304,346.5 443.296,346.5 444.288,346.5 445.28,346.5 446.272,346.5 447.264,346.5 448.256,346.5 449.248,346.5 450.24,346.5 451.232,346.5 452.224,346.5 453.216,346.5 454.208,346.5 455.2,346.5 456.192,346.5 457.184,346.5 458.176,346.5 459.168,346.5 460.16,346.5 461.152,346.5 462.144,346.5 463.136,346.5 464.128,346.5 465.12,346.5 466.112,346.5 467.104,346.5 468.096,346.5 469.088,346.5 470.08,346.5 471.072,346.5 472.064,346.5 473.056,346.5 474.048,346.5 475.04,346.5 476.032,346.5 477.024,346.5 478.016,346.5 479.008,346.5 480,346.5 480.992,346.5 481.984,346.5 482.976,346.5 483.968,346.5 484.96,346.5 485.952,346.5 486.944,346.5 487.936,346.5 488.928,346.5 489.92,346.5 490.912,346.5 491.904,346.5 492.896,346.5 493.888,346.5 494.88,346.5 495.872,346.5 496.864,346.5 497.856,346.5 498.848,346.5 499.84,346.5 500.832,346.5 501.824,346.5 502.816,346.5 503.808,346.5 504.8,346.5 505.792,346.5 506.784,346.5 507.776,346.5 508.768,346.5 509.76,346.5 510.752,346.5 511.744,346.5 512.736,346.5 513.728,346.5 514.72,346.5 515.712,346.5 516.704,346.5 517.696,346.5 518.688,346.5 519.68,346.5 520.672,346.5 521.664,346.5 522.656,346.5 523.648,346.5 524.64,346.5 525.632,346.5 526.624,346.5 527.616,346.5 528.608,346.5 529.6,346.5 530.592,346.5 531.584,346.5 532.576,346.5 533.568,346.5 534.56,346.5 535.552,346.5 536.544,346.5 537.536,346.5 538.528,346.5 539.52,346.5 540.512,346.5 541.504,346.5 542.496,346.5 543.488,346.5 544.48,346.5 545.472,346.5 546.464,346.5 547.456,346.5 548.448,346.5 549.44,346.5 550.432,346.5 551.424,346.5 552.416,346.5 553.408,346.5 554.4,346.5 555.392,346.5 556.384,346.5 557.376,346.5 558.368,346.5 559.36,346.5 560.352,346.5 561.344,346.5 562.336,346.5 563.328,346.5 564.32,346.5 565.312,346.5 566.304,346.5 567.296,346.5 568.288,346.5 569.28,346.5 570.272,346.5 571.264,346.5 572.256,346.5 573.248,346.5 574.24,346.5 575.232,346.5 576.224,346.5 577.216,346.5 578.208,346.5" stroke="#d85218" stroke-linejoin="round" stroke-linecap="butt" stroke-width="0.5"/>
  </g>
  <clipPath id="cp00640400">
   <polygon points="0,400 640,400 640,0 0,0"/>
  </clipPath>
  <g clip-path="url(#cp00640400)">
   <polygon fill="#ffffff" points="469.506,261.88 567.015,261.88 567.015,232.678 469.506,232.678" shape-rendering="crispEdges"/>
   <polyline stroke-dasharray="16,0" fill="none" points="469.506,261.88 567.015,261.88" stroke="#262626" stroke-linejoin="miter" stroke-linecap="square" stroke-width="0.5"/>
   <polyline stroke-dasharray="16,0" fill="none" points="469.506,232.678 567.015,232.678" stroke="#262626" stroke-linejoin="miter" stroke-linecap="square" stroke-width="0.5"/>
   <polyline stroke-dasharray="16,0" fill="none" points="469.506,261.88 469.506,232.678" stroke="#262626" stroke-linejoin="miter" stroke-linecap="square" stroke-width="0.5"/>
   <polyline stroke-dasharray="16,0" fill="none" points="567.015,261.88 567.015,232.678" stroke="#262626" stroke-linejoin="miter" stroke-linecap="square" stroke-width="0.5"/>
   <text font-family="FreeSans" font-style="normal" font-weight="normal" xml:space="preserve" transform="translate(499.461,244.979) rotate(-0,-0,-5)" font-size="9">
    <tspan x="0 6 11 16 19 24 27 29 32 37 44 49 " y="-2" fill="rgb(0,0,0)">Heater temp.</tspan>
   </text>
   <text font-family="FreeSans" font-style="normal" font-weight="normal" xml:space="preserve" transform="translate(499.461,259.58) rotate(-0,-0,-5)" font-size="9">
    <tspan x="0 6 11 15 17 20 25 30 32 34 37 42 49 54 " y="-2" fill="rgb(0,0,0)">Environ. temp.</tspan>
   </text>
   <polyline fill="none" points="473.06,239.979 495.907,239.979" stroke="#0071bc" stroke-linejoin="round" stroke-linecap="butt" stroke-width="0.5"/>
   <polyline fill="none" points="473.06,254.58 495.907,254.58" stroke="#d85218" stroke-linejoin="round" stroke-linecap="butt" stroke-width="0.5"/>
  </g>
 </g>
</svg>
