<?xml version='1.0' encoding='UTF-8' standalone='no'?>
<svg width="640pt" xmlns="http://www.w3.org/2000/svg" height="600pt" viewBox="0 0 640 600" xmlns:xlink="http://www.w3.org/1999/xlink">
 <title>gl2ps_renderer figure</title>
 <desc>
Creator: GL2PS 1.4.0, (C) 1999-2017 C. Geuzaine
For: Octave
CreationDate: Sat Oct  3 00:12:27 2020
</desc>
 <defs/>
 <polygon fill="#ffffff" points="0,0 640,0 640,600 0,600"/>
 <g>
  <polygon fill="#ffffff" points="0,600 640,600 640,0 0,0" shape-rendering="crispEdges"/>
  <clipPath id="cp00640600">
   <polygon points="0,600 640,600 640,0 0,0"/>
  </clipPath>
  <g clip-path="url(#cp00640600)">
   <polygon fill="#ffffff" points="83.2002,219.692 579.2,219.692 579.2,45 83.2002,45" shape-rendering="crispEdges"/>
   <polyline fill="none" points="83.2002,219.692 83.2002,214.74" stroke="#262626" stroke-linejoin="miter" stroke-linecap="butt" stroke-width="0.5"/>
   <polyline fill="none" points="83.2002,45 83.2002,49.9512" stroke="#262626" stroke-linejoin="miter" stroke-linecap="butt" stroke-width="0.5"/>
   <polyline fill="none" points="182.4,219.692 182.4,214.74" stroke="#262626" stroke-linejoin="miter" stroke-linecap="butt" stroke-width="0.5"/>
   <polyline fill="none" points="182.4,45 182.4,49.9512" stroke="#262626" stroke-linejoin="miter" stroke-linecap="butt" stroke-width="0.5"/>
   <polyline fill="none" points="281.6,219.692 281.6,214.74" stroke="#262626" stroke-linejoin="miter" stroke-linecap="butt" stroke-width="0.5"/>
   <polyline fill="none" points="281.6,45 281.6,49.9512" stroke="#262626" stroke-linejoin="miter" stroke-linecap="butt" stroke-width="0.5"/>
   <polyline fill="none" points="380.8,219.692 380.8,214.74" stroke="#262626" stroke-linejoin="miter" stroke-linecap="butt" stroke-width="0.5"/>
   <polyline fill="none" points="380.8,45 380.8,49.9512" stroke="#262626" stroke-linejoin="miter" stroke-linecap="butt" stroke-width="0.5"/>
   <polyline fill="none" points="480,219.692 480,214.74" stroke="#262626" stroke-linejoin="miter" stroke-linecap="butt" stroke-width="0.5"/>
   <polyline fill="none" points="480,45 480,49.9512" stroke="#262626" stroke-linejoin="miter" stroke-linecap="butt" stroke-width="0.5"/>
   <polyline fill="none" points="579.2,219.692 579.2,214.74" stroke="#262626" stroke-linejoin="miter" stroke-linecap="butt" stroke-width="0.5"/>
   <polyline fill="none" points="579.2,45 579.2,49.9512" stroke="#262626" stroke-linejoin="miter" stroke-linecap="butt" stroke-width="0.5"/>
   <text font-family="FreeSans" font-style="normal" font-weight="normal" xml:space="preserve" transform="translate(80.2,235.178) rotate(-0,3,-8)" font-size="10">
    <tspan x="0 " y="-0" fill="rgb(38,38,38)">0</tspan>
   </text>
   <text font-family="FreeSans" font-style="normal" font-weight="normal" xml:space="preserve" transform="translate(168.9,235.178) rotate(-0,13.5,-8)" font-size="10">
    <tspan x="0 6 9 15 21 " y="-0" fill="rgb(38,38,38)">0.005</tspan>
   </text>
   <text font-family="FreeSans" font-style="normal" font-weight="normal" xml:space="preserve" transform="translate(271.1,235.178) rotate(-0,10.5,-8)" font-size="10">
    <tspan x="0 6 9 15 " y="-0" fill="rgb(38,38,38)">0.01</tspan>
   </text>
   <text font-family="FreeSans" font-style="normal" font-weight="normal" xml:space="preserve" transform="translate(367.3,235.178) rotate(-0,13.5,-8)" font-size="10">
    <tspan x="0 6 9 15 21 " y="-0" fill="rgb(38,38,38)">0.015</tspan>
   </text>
   <text font-family="FreeSans" font-style="normal" font-weight="normal" xml:space="preserve" transform="translate(469.5,235.178) rotate(-0,10.5,-8)" font-size="10">
    <tspan x="0 6 9 15 " y="-0" fill="rgb(38,38,38)">0.02</tspan>
   </text>
   <text font-family="FreeSans" font-style="normal" font-weight="normal" xml:space="preserve" transform="translate(565.7,235.178) rotate(-0,13.5,-8)" font-size="10">
    <tspan x="0 6 9 15 21 " y="-0" fill="rgb(38,38,38)">0.025</tspan>
   </text>
   <polyline fill="none" points="83.2002,219.692 88.1602,219.692" stroke="#262626" stroke-linejoin="miter" stroke-linecap="butt" stroke-width="0.5"/>
   <polyline fill="none" points="579.2,219.692 574.24,219.692" stroke="#262626" stroke-linejoin="miter" stroke-linecap="butt" stroke-width="0.5"/>
   <polyline fill="none" points="83.2002,176.019 88.1602,176.019" stroke="#262626" stroke-linejoin="miter" stroke-linecap="butt" stroke-width="0.5"/>
   <polyline fill="none" points="579.2,176.019 574.24,176.019" stroke="#262626" stroke-linejoin="miter" stroke-linecap="butt" stroke-width="0.5"/>
   <polyline fill="none" points="83.2002,132.346 88.1602,132.346" stroke="#262626" stroke-linejoin="miter" stroke-linecap="butt" stroke-width="0.5"/>
   <polyline fill="none" points="579.2,132.346 574.24,132.346" stroke="#262626" stroke-linejoin="miter" stroke-linecap="butt" stroke-width="0.5"/>
   <polyline fill="none" points="83.2002,88.6729 88.1602,88.6729" stroke="#262626" stroke-linejoin="miter" stroke-linecap="butt" stroke-width="0.5"/>
   <polyline fill="none" points="579.2,88.6729 574.24,88.6729" stroke="#262626" stroke-linejoin="miter" stroke-linecap="butt" stroke-width="0.5"/>
   <polyline fill="none" points="83.2002,45 88.1602,45" stroke="#262626" stroke-linejoin="miter" stroke-linecap="butt" stroke-width="0.5"/>
   <polyline fill="none" points="579.2,45 574.24,45" stroke="#262626" stroke-linejoin="miter" stroke-linecap="butt" stroke-width="0.5"/>
   <text font-family="FreeSans" font-style="normal" font-weight="normal" xml:space="preserve" transform="translate(69.2,223.692) rotate(-0,9,-4)" font-size="10">
    <tspan x="0 3 " y="-0" fill="rgb(38,38,38)">-2</tspan>
   </text>
   <text font-family="FreeSans" font-style="normal" font-weight="normal" xml:space="preserve" transform="translate(69.2,180.019) rotate(-0,9,-4)" font-size="10">
    <tspan x="0 3 " y="-0" fill="rgb(38,38,38)">-1</tspan>
   </text>
   <text font-family="FreeSans" font-style="normal" font-weight="normal" xml:space="preserve" transform="translate(72.2,136.346) rotate(-0,6,-4)" font-size="10">
    <tspan x="0 " y="-0" fill="rgb(38,38,38)">0</tspan>
   </text>
   <text font-family="FreeSans" font-style="normal" font-weight="normal" xml:space="preserve" transform="translate(72.2,92.6729) rotate(-0,6,-4)" font-size="10">
    <tspan x="0 " y="-0" fill="rgb(38,38,38)">1</tspan>
   </text>
   <text font-family="FreeSans" font-style="normal" font-weight="normal" xml:space="preserve" transform="translate(72.2,49) rotate(-0,6,-4)" font-size="10">
    <tspan x="0 " y="-0" fill="rgb(38,38,38)">2</tspan>
   </text>
   <polyline stroke-dasharray="16,0" fill="none" points="83.2002,219.692 579.2,219.692" stroke="#262626" stroke-linejoin="miter" stroke-linecap="square" stroke-width="0.5"/>
   <polyline stroke-dasharray="16,0" fill="none" points="83.2002,45 579.2,45" stroke="#262626" stroke-linejoin="miter" stroke-linecap="square" stroke-width="0.5"/>
   <polyline stroke-dasharray="16,0" fill="none" points="83.2002,219.692 83.2002,45" stroke="#262626" stroke-linejoin="miter" stroke-linecap="square" stroke-width="0.5"/>
   <polyline stroke-dasharray="16,0" fill="none" points="579.2,219.692 579.2,45" stroke="#262626" stroke-linejoin="miter" stroke-linecap="square" stroke-width="0.5"/>
   <text font-family="FreeSans" font-style="normal" font-weight="bold" xml:space="preserve" transform="translate(267.7,35) rotate(-0,63.5,0)" font-size="11">
    <tspan x="0 8 14 18 25 29 35 38 45 52 58 64 70 73 79 86 90 94 100 106 110 113 120 " y="-3" fill="rgb(0,0,0)">Before phase correction</tspan>
   </text>
   <text font-family="FreeSans" font-style="normal" font-weight="normal" xml:space="preserve" transform="translate(53.7,132.346) rotate(-90,10.5,0)" font-size="11">
    <tspan x="0 8 11 14 " y="-2" fill="rgb(38,38,38)">U, V</tspan>
   </text>
   <text font-family="FreeSans" font-style="normal" font-weight="normal" xml:space="preserve" transform="translate(323.2,251.178) rotate(-0,8,-11)" font-size="11">
    <tspan x="0 3 6 9 " y="-2" fill="rgb(38,38,38)">t, S</tspan>
   </text>
   <polyline stroke-dasharray="1,1,1,1,1,1,1,1,1,1" fill="none" points="83.2002,131.909 85.1841,131.472 87.168,131.036 89.1519,130.599 91.1362,130.162 93.1201,129.726 95.104,129.289 97.0879,128.852 99.0723,128.416 101.056,127.979 103.04,127.542 105.024,127.105 107.008,126.668 108.992,126.231 110.976,125.795 112.96,125.358 114.944,124.921 116.928,124.485 118.912,124.048 120.896,123.611 122.88,123.174 124.864,122.738 126.848,122.301 128.832,121.864 130.816,121.428 132.8,120.991 134.784,120.554 136.768,120.118 138.752,119.681 140.736,119.244 142.72,118.807 144.704,118.371 146.688,117.934 148.672,117.497 150.656,117.061 152.64,116.624 154.624,116.187 156.608,115.75 158.592,115.313 160.576,114.876 162.56,114.44 164.544,114.003 166.528,113.566 168.512,113.13 170.496,112.693 172.48,112.256 174.464,111.82 176.448,111.383 178.432,110.946 180.416,110.509 182.4,110.073 184.384,109.636 186.368,109.199 188.352,108.763 190.336,108.326 192.32,107.889 194.304,107.452 196.288,107.016 198.272,106.579 200.256,106.142 202.24,105.706 204.224,105.269 206.208,104.832 208.192,104.395 210.176,103.958 212.16,103.521 214.144,103.085 216.128,102.648 218.112,102.211 220.096,101.775 222.08,101.338 224.064,100.901 226.048,100.465 228.032,100.028 230.016,99.5913 232,99.1543 233.984,98.7178 235.968,98.2808 237.952,97.8442 239.936,97.4077 241.92,96.9707 243.904,96.5342 245.888,96.0972 247.872,95.6606 249.856,95.2241 251.84,94.7871 253.824,94.3506 255.808,93.9136 257.792,93.4771 259.776,93.04 261.76,92.6035 263.744,92.167 265.728,91.73 267.712,91.2935 269.696,90.8564 271.68,90.4199 273.664,89.9829 275.648,89.5464 277.632,89.1099 279.616,88.6729 281.6,88.2363 283.584,87.7993 285.568,87.3628 287.552,86.9263 289.536,86.4893 291.52,86.0527 293.504,85.6157 295.488,85.1792 297.472,84.7422 299.456,84.3057 301.44,83.8691 303.424,83.4321 305.408,82.9956 307.392,82.5586 309.376,82.1221 311.36,81.6855 313.344,81.2485 315.328,80.812 317.312,80.375 319.296,79.9385 321.28,79.5015 323.264,79.0649 325.248,78.6284 327.232,78.1914 329.216,77.7549 331.2,77.3179 333.184,76.8813 335.168,76.4443 337.152,76.0078 339.136,75.5713 341.12,75.1343 343.104,74.6978 345.088,74.2607 347.072,73.8242 349.056,73.3872 351.04,72.9507 353.024,72.5142 355.008,72.0771 356.992,71.6406 358.976,71.2036 360.96,70.7671 362.944,70.3306 364.928,69.8936 366.912,69.457 368.896,69.02 370.88,68.5835 372.864,68.1465 374.848,67.71 376.832,67.2734 378.816,66.8364 380.8,66.3999 382.784,65.9629 384.768,65.5264 386.752,65.0894 388.736,64.6528 390.72,64.2163 392.704,63.7793 394.688,63.3428 396.672,62.9058 398.656,62.4692 400.64,62.0327 402.624,61.5957 404.608,61.1592 406.592,60.7222 408.576,60.2856 410.56,59.8486 412.544,59.4121 414.528,58.9756 416.512,58.5386 418.496,58.1021 420.48,57.665 422.464,57.2285 424.448,56.7915 426.432,56.355 428.416,55.9185 430.4,55.4814 432.384,55.0449 434.368,54.6079 436.352,54.1714 438.336,53.7349 440.32,53.2979 442.304,52.8613 444.288,52.4243 446.272,51.9878 448.256,51.5508 450.24,51.1143 452.224,50.6777 454.208,50.2407 456.192,49.8042 458.176,49.3672 460.16,48.9307 462.144,48.4937 464.128,48.0571 466.112,47.6206 468.096,47.1836 470.08,46.7471 472.064,46.3101 474.048,45.8735 476.032,45.437 478.016,45 480,131.909 481.984,131.473 483.968,131.036 485.952,130.599 487.936,130.162 489.92,129.726 491.904,129.289 493.888,128.852 495.872,128.416 497.856,127.979 499.84,127.542 501.824,127.105 503.808,126.668 505.792,126.232 507.776,125.795 509.76,125.358 511.744,124.921 513.728,124.485 515.712,124.048 517.696,123.611 519.68,123.175 521.664,122.738 523.648,122.301 525.632,121.864 527.616,121.428 529.6,120.991 531.584,120.554 533.568,120.118 535.552,119.681 537.536,119.244 539.52,118.807 541.504,118.371 543.488,117.934 545.472,117.497 547.456,117.061 549.44,116.624 551.424,116.187 553.408,115.75 555.392,115.313 557.376,114.877 559.36,114.44 561.344,114.003 563.328,113.566 565.312,113.13 567.296,112.693 569.28,112.256 571.264,111.82 573.248,111.383 575.232,110.946 577.216,110.509" stroke="#0071bc" stroke-linejoin="round" stroke-linecap="butt" stroke-width="0.5"/>
   <polyline fill="none" points="83.2002,170.841 85.1841,171.469 87.168,172.058 89.1519,172.607 91.1362,173.117 93.1201,173.587 95.104,174.016 97.0879,174.404 99.0723,174.75 101.056,175.056 103.04,175.318 105.024,175.539 107.008,175.717 108.992,175.853 110.976,175.946 112.96,175.996 114.944,176.003 116.928,175.967 118.912,175.889 120.896,175.767 122.88,175.603 124.864,175.396 126.848,175.148 128.832,174.857 130.816,174.524 132.8,174.15 134.784,173.734 136.768,173.278 138.752,172.782 140.736,172.245 142.72,171.669 144.704,171.054 146.688,170.401 148.672,168.795 150.656,166.695 152.64,164.562 154.624,162.396 156.608,160.2 158.592,157.977 160.576,155.729 162.56,153.457 164.544,151.164 166.528,148.853 168.512,146.525 170.496,144.184 172.48,141.83 174.464,139.467 176.448,137.098 178.432,134.723 180.416,132.346 182.4,129.969 184.384,127.594 186.368,125.225 188.352,122.862 190.336,120.508 192.32,118.167 194.304,115.839 196.288,113.528 198.272,111.235 200.256,108.963 202.24,106.715 204.224,104.492 206.208,102.296 208.192,100.13 210.176,97.9966 212.16,95.8965 214.144,94.2905 216.128,93.6372 218.112,93.0225 220.096,92.4468 222.08,91.9102 224.064,91.4136 226.048,90.9575 228.032,90.542 230.016,90.1675 232,89.835 233.984,89.5439 235.968,89.2949 237.952,89.0884 239.936,88.9248 241.92,88.8032 243.904,88.7246 245.888,88.689 247.872,88.6963 249.856,88.7461 251.84,88.8389 253.824,88.9746 255.808,89.1528 257.792,89.3735 259.776,89.6362 261.76,89.9409 263.744,90.2876 265.728,90.6758 267.712,91.105 269.696,91.5747 271.68,92.0845 273.664,92.6343 275.648,93.2231 277.632,93.8506 279.616,94.5166 281.6,93.8511 283.584,93.2231 285.568,92.6343 287.552,92.0845 289.536,91.5747 291.52,91.105 293.504,90.6758 295.488,90.2876 297.472,89.9409 299.456,89.6362 301.44,89.3735 303.424,89.1528 305.408,88.9746 307.392,88.8389 309.376,88.7461 311.36,88.6963 313.344,88.689 315.328,88.7246 317.312,88.8032 319.296,88.9243 321.28,89.0884 323.264,89.2949 325.248,89.5439 327.232,89.835 329.216,90.1675 331.2,90.542 333.184,90.957 335.168,91.4136 337.152,91.9102 339.136,92.4468 341.12,93.0225 343.104,93.6372 345.088,94.2905 347.072,95.8965 349.056,97.9961 351.04,100.13 353.024,102.296 355.008,104.491 356.992,106.714 358.976,108.963 360.96,111.235 362.944,113.527 364.928,115.839 366.912,118.167 368.896,120.508 370.88,122.861 372.864,125.224 374.848,127.594 376.832,129.969 378.816,132.346 380.8,134.723 382.784,137.097 384.768,139.467 386.752,141.83 388.736,144.183 390.72,146.525 392.704,148.853 394.688,151.164 396.672,153.457 398.656,155.728 400.64,157.977 402.624,160.2 404.608,162.396 406.592,164.561 408.576,166.695 410.56,168.795 412.544,170.401 414.528,171.054 416.512,171.669 418.496,172.245 420.48,172.782 422.464,173.278 424.448,173.734 426.432,174.15 428.416,174.524 430.4,174.857 432.384,175.148 434.368,175.396 436.352,175.603 438.336,175.767 440.32,175.888 442.304,175.967 444.288,176.003 446.272,175.996 448.256,175.946 450.24,175.853 452.224,175.717 454.208,175.539 456.192,175.318 458.176,175.056 460.16,174.75 462.144,174.404 464.128,174.016 466.112,173.587 468.096,173.117 470.08,172.607 472.064,172.058 474.048,171.469 476.032,170.841 478.016,170.175 480,170.841 481.984,171.468 483.968,172.058 485.952,172.607 487.936,173.117 489.92,173.587 491.904,174.016 493.888,174.404 495.872,174.75 497.856,175.056 499.84,175.318 501.824,175.539 503.808,175.717 505.792,175.853 507.776,175.946 509.76,175.996 511.744,176.003 513.728,175.967 515.712,175.889 517.696,175.767 519.68,175.603 521.664,175.396 523.648,175.148 525.632,174.857 527.616,174.524 529.6,174.15 531.584,173.734 533.568,173.278 535.552,172.782 537.536,172.245 539.52,171.669 541.504,171.055 543.488,170.401 545.472,168.795 547.456,166.696 549.44,164.562 551.424,162.396 553.408,160.201 555.392,157.978 557.376,155.729 559.36,153.457 561.344,151.165 563.328,148.853 565.312,146.526 567.296,144.184 569.28,141.831 571.264,139.468 573.248,137.098 575.232,134.723 577.216,132.346" stroke="#d85218" stroke-linejoin="round" stroke-linecap="butt" stroke-width="0.5"/>
   <polyline fill="none" points="83.2002,96.5923 85.1841,98.7041 87.168,100.849 89.1519,103.024 91.1362,105.229 93.1201,107.461 95.104,109.718 97.0879,111.997 99.0723,114.296 101.056,116.613 103.04,118.946 105.024,121.292 107.008,123.648 108.992,126.014 110.976,128.385 112.96,130.761 114.944,133.138 116.928,135.515 118.912,137.888 120.896,140.256 122.88,142.616 124.864,144.965 126.848,147.303 128.832,149.625 130.816,151.931 132.8,154.216 134.784,156.48 136.768,158.721 138.752,160.935 140.736,163.121 142.72,165.276 144.704,167.399 146.688,169.487 148.672,170.623 150.656,171.264 152.64,171.866 154.624,172.428 156.608,172.952 158.592,173.435 160.576,173.877 162.56,174.279 164.544,174.64 166.528,174.958 168.512,175.235 170.496,175.47 172.48,175.663 174.464,175.812 176.448,175.919 178.432,175.984 180.416,176.005 182.4,175.984 184.384,175.919 186.368,175.812 188.352,175.663 190.336,175.47 192.32,175.235 194.304,174.958 196.288,174.64 198.272,174.279 200.256,173.877 202.24,173.435 204.224,172.952 206.208,172.428 208.192,171.866 210.176,171.264 212.16,170.623 214.144,170.401 216.128,171.054 218.112,171.669 220.096,172.245 222.08,172.782 224.064,173.278 226.048,173.734 228.032,174.15 230.016,174.524 232,174.857 233.984,175.148 235.968,175.396 237.952,175.603 239.936,175.767 241.92,175.889 243.904,175.967 245.888,176.003 247.872,175.996 249.856,175.946 251.84,175.853 253.824,175.717 255.808,175.539 257.792,175.318 259.776,175.056 261.76,174.75 263.744,174.404 265.728,174.016 267.712,173.587 269.696,173.117 271.68,172.607 273.664,172.058 275.648,171.469 277.632,170.841 279.616,170.175 281.6,168.099 283.584,165.988 285.568,163.843 287.552,161.667 289.536,159.462 291.52,157.23 293.504,154.974 295.488,152.695 297.472,150.396 299.456,148.079 301.44,145.746 303.424,143.4 305.408,141.043 307.392,138.678 309.376,136.307 311.36,133.931 313.344,131.554 315.328,129.177 317.312,126.804 319.296,124.436 321.28,122.076 323.264,119.727 325.248,117.389 327.232,115.067 329.216,112.761 331.2,110.476 333.184,108.211 335.168,105.971 337.152,103.757 339.136,101.571 341.12,99.4155 343.104,97.2925 345.088,95.2046 347.072,94.0684 349.056,93.4282 351.04,92.8262 353.024,92.2632 355.008,91.7402 356.992,91.2568 358.976,90.8145 360.96,90.4126 362.944,90.0522 364.928,89.7334 366.912,89.4561 368.896,89.2217 370.88,89.0293 372.864,88.8794 374.848,88.7725 376.832,88.708 378.816,88.6865 380.8,88.708 382.784,88.7725 384.768,88.8794 386.752,89.0293 388.736,89.2217 390.72,89.4561 392.704,89.7329 394.688,90.0518 396.672,90.4126 398.656,90.814 400.64,91.2568 402.624,91.7402 404.608,92.2632 406.592,92.8262 408.576,93.4282 410.56,94.0684 412.544,94.2905 414.528,93.6372 416.512,93.0225 418.496,92.4468 420.48,91.9102 422.464,91.4136 424.448,90.9575 426.432,90.542 428.416,90.1675 430.4,89.835 432.384,89.5439 434.368,89.2949 436.352,89.0884 438.336,88.9248 440.32,88.8032 442.304,88.7246 444.288,88.689 446.272,88.6963 448.256,88.7461 450.24,88.8389 452.224,88.9746 454.208,89.1528 456.192,89.3735 458.176,89.6362 460.16,89.9409 462.144,90.2876 464.128,90.6758 466.112,91.105 468.096,91.5747 470.08,92.0845 472.064,92.6343 474.048,93.2231 476.032,93.8506 478.016,94.5161 480,96.5923 481.984,98.7036 483.968,100.848 485.952,103.024 487.936,105.229 489.92,107.461 491.904,109.718 493.888,111.997 495.872,114.296 497.856,116.613 499.84,118.945 501.824,121.291 503.808,123.648 505.792,126.013 507.776,128.385 509.76,130.761 511.744,133.138 513.728,135.514 515.712,137.888 517.696,140.255 519.68,142.615 521.664,144.965 523.648,147.302 525.632,149.625 527.616,151.93 529.6,154.216 531.584,156.48 533.568,158.721 535.552,160.935 537.536,163.121 539.52,165.276 541.504,167.399 543.488,169.487 545.472,170.623 547.456,171.264 549.44,171.865 551.424,172.428 553.408,172.952 555.392,173.435 557.376,173.877 559.36,174.279 561.344,174.64 563.328,174.958 565.312,175.235 567.296,175.47 569.28,175.663 571.264,175.812 573.248,175.919 575.232,175.984 577.216,176.005" stroke="#ecb01f" stroke-linejoin="round" stroke-linecap="butt" stroke-width="0.5"/>
   <polyline fill="none" points="83.2002,93.8506 85.1841,93.2231 87.168,92.6343 89.1519,92.0845 91.1362,91.5747 93.1201,91.105 95.104,90.6758 97.0879,90.2876 99.0723,89.9409 101.056,89.6362 103.04,89.3735 105.024,89.1528 107.008,88.9746 108.992,88.8389 110.976,88.7461 112.96,88.6963 114.944,88.689 116.928,88.7246 118.912,88.8032 120.896,88.9248 122.88,89.0884 124.864,89.2949 126.848,89.5439 128.832,89.835 130.816,90.1675 132.8,90.542 134.784,90.957 136.768,91.4136 138.752,91.9102 140.736,92.4468 142.72,93.0225 144.704,93.6372 146.688,94.2905 148.672,94.0684 150.656,93.4282 152.64,92.8262 154.624,92.2632 156.608,91.7402 158.592,91.2568 160.576,90.814 162.56,90.4126 164.544,90.0522 166.528,89.7334 168.512,89.4561 170.496,89.2217 172.48,89.0293 174.464,88.8794 176.448,88.7725 178.432,88.708 180.416,88.6865 182.4,88.708 184.384,88.7725 186.368,88.8794 188.352,89.0293 190.336,89.2217 192.32,89.4561 194.304,89.7334 196.288,90.0518 198.272,90.4126 200.256,90.814 202.24,91.2568 204.224,91.7402 206.208,92.2632 208.192,92.8262 210.176,93.4282 212.16,94.0684 214.144,95.2046 216.128,97.2925 218.112,99.415 220.096,101.571 222.08,103.756 224.064,105.971 226.048,108.211 228.032,110.475 230.016,112.761 232,115.066 233.984,117.389 235.968,119.726 237.952,122.076 239.936,124.436 241.92,126.804 243.904,129.177 245.888,131.553 247.872,133.931 249.856,136.306 251.84,138.678 253.824,141.043 255.808,143.4 257.792,145.746 259.776,148.079 261.76,150.396 263.744,152.695 265.728,154.974 267.712,157.23 269.696,159.462 271.68,161.667 273.664,163.843 275.648,165.988 277.632,168.099 279.616,170.175 281.6,170.841 283.584,171.468 285.568,172.058 287.552,172.607 289.536,173.117 291.52,173.587 293.504,174.016 295.488,174.404 297.472,174.75 299.456,175.056 301.44,175.318 303.424,175.539 305.408,175.717 307.392,175.853 309.376,175.946 311.36,175.996 313.344,176.003 315.328,175.967 317.312,175.889 319.296,175.767 321.28,175.603 323.264,175.396 325.248,175.148 327.232,174.857 329.216,174.524 331.2,174.15 333.184,173.734 335.168,173.278 337.152,172.782 339.136,172.245 341.12,171.669 343.104,171.055 345.088,170.401 347.072,170.623 349.056,171.264 351.04,171.865 353.024,172.428 355.008,172.952 356.992,173.435 358.976,173.877 360.96,174.279 362.944,174.64 364.928,174.958 366.912,175.235 368.896,175.47 370.88,175.663 372.864,175.812 374.848,175.919 376.832,175.984 378.816,176.005 380.8,175.984 382.784,175.919 384.768,175.812 386.752,175.663 388.736,175.47 390.72,175.235 392.704,174.958 394.688,174.64 396.672,174.279 398.656,173.877 400.64,173.435 402.624,172.952 404.608,172.428 406.592,171.866 408.576,171.264 410.56,170.624 412.544,169.488 414.528,167.399 416.512,165.277 418.496,163.122 420.48,160.936 422.464,158.721 424.448,156.481 426.432,154.217 428.416,151.931 430.4,149.625 432.384,147.303 434.368,144.966 436.352,142.616 438.336,140.256 440.32,137.888 442.304,135.515 444.288,133.139 446.272,130.761 448.256,128.386 450.24,126.014 452.224,123.648 454.208,121.292 456.192,118.946 458.176,116.613 460.16,114.296 462.144,111.997 464.128,109.718 466.112,107.462 468.096,105.23 470.08,103.025 472.064,100.849 474.048,98.7041 476.032,96.5928 478.016,94.5166 480,93.8511 481.984,93.2231 483.968,92.6343 485.952,92.0845 487.936,91.5747 489.92,91.105 491.904,90.6758 493.888,90.2876 495.872,89.9409 497.856,89.6362 499.84,89.3735 501.824,89.1528 503.808,88.9746 505.792,88.8389 507.776,88.7461 509.76,88.6963 511.744,88.689 513.728,88.7246 515.712,88.8032 517.696,88.9243 519.68,89.0884 521.664,89.2949 523.648,89.5439 525.632,89.835 527.616,90.1675 529.6,90.5415 531.584,90.957 533.568,91.4136 535.552,91.9102 537.536,92.4463 539.52,93.0225 541.504,93.6372 543.488,94.29 545.472,94.0684 547.456,93.4282 549.44,92.8262 551.424,92.2637 553.408,91.7402 555.392,91.2568 557.376,90.8145 559.36,90.4126 561.344,90.0522 563.328,89.7334 565.312,89.4565 567.296,89.2217 569.28,89.0293 571.264,88.8794 573.248,88.7725 575.232,88.708 577.216,88.6865" stroke="#7d2e8d" stroke-linejoin="round" stroke-linecap="butt" stroke-width="0.5"/>
   <polyline stroke-dasharray="4,4,4,4" fill="none" points="83.2002,58.0977 85.1841,59.5811 87.168,61.1372 89.1519,62.7632 91.1362,64.4585 93.1201,66.2202 95.104,68.0479 97.0879,69.939 99.0723,71.8911 101.056,73.9033 103.04,75.9731 105.024,78.0981 107.008,80.2769 108.992,82.5068 110.976,84.7856 112.96,87.1113 114.944,89.4814 116.928,91.8936 118.912,94.3452 120.896,96.8345 122.88,99.3584 124.864,101.915 126.848,104.501 128.832,107.114 130.816,109.752 132.8,112.413 134.784,115.092 136.768,117.789 138.752,120.5 140.736,123.222 142.72,125.953 144.704,128.691 146.688,131.432 148.672,134.174 150.656,136.914 152.64,139.65 154.624,142.378 156.608,145.097 158.592,147.804 160.576,150.495 162.56,153.168 164.544,155.821 166.528,158.452 168.512,161.056 170.496,163.632 172.48,166.178 174.464,168.691 176.448,171.168 178.432,173.607 180.416,176.005 182.4,178.36 184.384,180.671 186.368,182.934 188.352,185.147 190.336,187.308 192.32,189.415 194.304,191.465 196.288,193.458 198.272,195.39 200.256,197.26 202.24,199.066 204.224,200.806 206.208,202.478 208.192,204.081 210.176,205.613 212.16,207.073 214.144,208.457 216.128,209.763 218.112,210.993 220.096,212.145 222.08,213.217 224.064,214.21 226.048,215.123 228.032,215.954 230.016,216.703 232,217.368 233.984,217.95 235.968,218.447 237.952,218.86 239.936,219.188 241.92,219.431 243.904,219.588 245.888,219.66 247.872,219.646 249.856,219.545 251.84,219.36 253.824,219.088 255.808,218.732 257.792,218.291 259.776,217.765 261.76,217.155 263.744,216.462 265.728,215.686 267.712,214.828 269.696,213.889 271.68,212.869 273.664,211.769 275.648,210.591 277.632,209.336 279.616,208.005 281.6,206.594 283.584,205.111 285.568,203.555 287.552,201.929 289.536,200.233 291.52,198.471 293.504,196.644 295.488,194.753 297.472,192.801 299.456,190.789 301.44,188.719 303.424,186.594 305.408,184.415 307.392,182.185 309.376,179.906 311.36,177.581 313.344,175.21 315.328,172.798 317.312,170.347 319.296,167.857 321.28,165.333 323.264,162.777 325.248,160.191 327.232,157.578 329.216,154.939 331.2,152.28 333.184,149.6 335.168,146.903 337.152,144.192 339.136,141.47 341.12,138.739 343.104,136.001 345.088,133.26 347.072,130.518 349.056,127.778 351.04,125.042 353.024,122.313 355.008,119.595 356.992,116.888 358.976,114.197 360.96,111.523 362.944,108.871 364.928,106.24 366.912,103.636 368.896,101.06 370.88,98.5137 372.864,96.001 374.848,93.5239 376.832,91.0854 378.816,88.687 380.8,86.3315 382.784,84.021 384.768,81.7583 386.752,79.5454 388.736,77.3843 390.72,75.2773 392.704,73.2266 394.688,71.2339 396.672,69.3018 398.656,67.4316 400.64,65.626 402.624,63.8857 404.608,62.2139 406.592,60.6108 408.576,59.0786 410.56,57.6191 412.544,56.2354 414.528,54.9292 416.512,53.6992 418.496,52.5474 420.48,51.4746 422.464,50.4814 424.448,49.5688 426.432,48.7378 428.416,47.9893 430.4,47.3237 432.384,46.7422 434.368,46.2446 436.352,45.8315 438.336,45.5034 440.32,45.2607 442.304,45.1035 444.288,45.0322 446.272,45.0464 448.256,45.1465 450.24,45.332 452.224,45.603 454.208,45.9595 456.192,46.4009 458.176,46.9263 460.16,47.5361 462.144,48.2295 464.128,49.0054 466.112,49.8638 468.096,50.8032 470.08,51.8232 472.064,52.9224 474.048,54.1001 476.032,55.3555 478.016,56.687 480,58.0972 481.984,59.5811 483.968,61.1367 485.952,62.7632 487.936,64.458 489.92,66.2202 491.904,68.0474 493.888,69.9385 495.872,71.8911 497.856,73.9033 499.84,75.9727 501.824,78.0981 503.808,80.2764 505.792,82.5063 507.776,84.7852 509.76,87.1108 511.744,89.481 513.728,91.8931 515.712,94.3452 517.696,96.834 519.68,99.3579 521.664,101.915 523.648,104.5 525.632,107.114 527.616,109.752 529.6,112.412 531.584,115.092 533.568,117.788 535.552,120.499 537.536,123.221 539.52,125.953 541.504,128.69 543.488,131.431 545.472,134.173 547.456,136.914 549.44,139.649 551.424,142.378 553.408,145.097 555.392,147.803 557.376,150.495 559.36,153.168 561.344,155.821 563.328,158.451 565.312,161.056 567.296,163.632 569.28,166.178 571.264,168.69 573.248,171.167 575.232,173.606 577.216,176.005" stroke="#76ab2f" stroke-linejoin="round" stroke-linecap="butt" stroke-width="0.5"/>
   <polyline stroke-dasharray="4,4,4,4" fill="none" points="83.2002,129.604 85.1841,126.865 87.168,124.131 89.1519,121.406 91.1362,118.691 93.1201,115.989 95.104,113.304 97.0879,110.637 99.0723,107.991 101.056,105.369 103.04,102.773 105.024,100.207 107.008,97.6719 108.992,95.1709 110.976,92.7065 112.96,90.2808 114.944,87.8965 116.928,85.5557 118.912,83.2612 120.896,81.0146 122.88,78.8188 124.864,76.6753 126.848,74.5869 128.832,72.5557 130.816,70.583 132.8,68.6714 134.784,66.8223 136.768,65.0381 138.752,63.3208 140.736,61.6714 142.72,60.0918 144.704,58.584 146.688,57.1489 148.672,55.791 150.656,54.5103 152.64,53.3066 154.624,52.1807 156.608,51.1343 158.592,50.168 160.576,49.2827 162.56,48.479 164.544,47.7583 166.528,47.1206 168.512,46.5669 170.496,46.0972 172.48,45.7124 174.464,45.4131 176.448,45.1987 178.432,45.0703 180.416,45.0273 182.4,45.0703 184.384,45.1987 186.368,45.4131 188.352,45.7124 190.336,46.0972 192.32,46.5669 194.304,47.1206 196.288,47.7583 198.272,48.479 200.256,49.2827 202.24,50.168 204.224,51.1343 206.208,52.1807 208.192,53.3066 210.176,54.5103 212.16,55.791 214.144,57.1489 216.128,58.584 218.112,60.0918 220.096,61.6714 222.08,63.3208 224.064,65.0381 226.048,66.8223 228.032,68.6709 230.016,70.583 232,72.5552 233.984,74.5869 235.968,76.6753 237.952,78.8188 239.936,81.0146 241.92,83.2612 243.904,85.5557 245.888,87.8965 247.872,90.2808 249.856,92.7065 251.84,95.1709 253.824,97.6719 255.808,100.207 257.792,102.773 259.776,105.369 261.76,107.991 263.744,110.637 265.728,113.303 267.712,115.989 269.696,118.69 271.68,121.406 273.664,124.131 275.648,126.865 277.632,129.604 279.616,132.346 281.6,135.087 283.584,137.827 285.568,140.56 287.552,143.286 289.536,146 291.52,148.702 293.504,151.388 295.488,154.055 297.472,156.701 299.456,159.322 301.44,161.918 303.424,164.484 305.408,167.02 307.392,169.521 309.376,171.985 311.36,174.411 313.344,176.795 315.328,179.136 317.312,181.431 319.296,183.677 321.28,185.873 323.264,188.016 325.248,190.104 327.232,192.136 329.216,194.109 331.2,196.021 333.184,197.869 335.168,199.653 337.152,201.371 339.136,203.02 341.12,204.6 343.104,206.108 345.088,207.542 347.072,208.9 349.056,210.181 351.04,211.385 353.024,212.511 355.008,213.557 356.992,214.524 358.976,215.409 360.96,216.212 362.944,216.934 364.928,217.571 366.912,218.125 368.896,218.594 370.88,218.979 372.864,219.279 374.848,219.493 376.832,219.622 378.816,219.665 380.8,219.622 382.784,219.493 384.768,219.279 386.752,218.979 388.736,218.595 390.72,218.125 392.704,217.571 394.688,216.934 396.672,216.213 398.656,215.409 400.64,214.524 402.624,213.558 404.608,212.511 406.592,211.385 408.576,210.182 410.56,208.901 412.544,207.543 414.528,206.108 416.512,204.6 418.496,203.021 420.48,201.371 422.464,199.654 424.448,197.87 426.432,196.021 428.416,194.109 430.4,192.137 432.384,190.105 434.368,188.017 436.352,185.874 438.336,183.677 440.32,181.431 442.304,179.136 444.288,176.795 446.272,174.411 448.256,171.985 450.24,169.521 452.224,167.02 454.208,164.485 456.192,161.918 458.176,159.323 460.16,156.701 462.144,154.056 464.128,151.389 466.112,148.703 468.096,146.001 470.08,143.286 472.064,140.561 474.048,137.827 476.032,135.088 478.016,132.346 480,129.604 481.984,126.866 483.968,124.132 485.952,121.406 487.936,118.691 489.92,115.99 491.904,113.304 493.888,110.637 495.872,107.991 497.856,105.37 499.84,102.774 501.824,100.208 503.808,97.6724 505.792,95.1714 507.776,92.707 509.76,90.2812 511.744,87.897 513.728,85.5562 515.712,83.2612 517.696,81.0151 519.68,78.8188 521.664,76.6758 523.648,74.5874 525.632,72.5557 527.616,70.583 529.6,68.6714 531.584,66.8228 533.568,65.0386 535.552,63.3208 537.536,61.6714 539.52,60.0923 541.504,58.584 543.488,57.1489 545.472,55.7915 547.456,54.5107 549.44,53.3066 551.424,52.1812 553.408,51.1343 555.392,50.168 557.376,49.2827 559.36,48.479 561.344,47.7583 563.328,47.1206 565.312,46.5669 567.296,46.0972 569.28,45.7124 571.264,45.4131 573.248,45.1987 575.232,45.0703 577.216,45.0273" stroke="#4cbded" stroke-linejoin="round" stroke-linecap="butt" stroke-width="0.5"/>
   <polyline stroke-dasharray="4,4,4,4" fill="none" points="83.2002,209.336 85.1841,210.591 87.168,211.769 89.1519,212.869 91.1362,213.889 93.1201,214.828 95.104,215.686 97.0879,216.462 99.0723,217.155 101.056,217.765 103.04,218.291 105.024,218.732 107.008,219.088 108.992,219.36 110.976,219.545 112.96,219.646 114.944,219.66 116.928,219.588 118.912,219.431 120.896,219.188 122.88,218.86 124.864,218.447 126.848,217.95 128.832,217.368 130.816,216.703 132.8,215.954 134.784,215.123 136.768,214.21 138.752,213.217 140.736,212.145 142.72,210.993 144.704,209.763 146.688,208.457 148.672,207.073 150.656,205.613 152.64,204.081 154.624,202.478 156.608,200.806 158.592,199.066 160.576,197.26 162.56,195.39 164.544,193.458 166.528,191.466 168.512,189.415 170.496,187.308 172.48,185.147 174.464,182.934 176.448,180.671 178.432,178.361 180.416,176.005 182.4,173.607 184.384,171.168 186.368,168.691 188.352,166.178 190.336,163.633 192.32,161.056 194.304,158.452 196.288,155.821 198.272,153.168 200.256,150.495 202.24,147.804 204.224,145.097 206.208,142.378 208.192,139.65 210.176,136.914 212.16,134.174 214.144,131.432 216.128,128.691 218.112,125.953 220.096,123.222 222.08,120.5 224.064,117.789 226.048,115.092 228.032,112.413 230.016,109.752 232,107.114 233.984,104.501 235.968,101.915 237.952,99.3584 239.936,96.8345 241.92,94.3457 243.904,91.8936 245.888,89.4814 247.872,87.1113 249.856,84.7856 251.84,82.5068 253.824,80.2773 255.808,78.0986 257.792,75.9731 259.776,73.9033 261.76,71.8916 263.744,69.939 265.728,68.0479 267.712,66.2207 269.696,64.4585 271.68,62.7632 273.664,61.1372 275.648,59.5815 277.632,58.0977 279.616,56.687 281.6,55.356 283.584,54.1006 285.568,52.9229 287.552,51.8232 289.536,50.8032 291.52,49.8638 293.504,49.0059 295.488,48.2295 297.472,47.5361 299.456,46.9268 301.44,46.4009 303.424,45.9595 305.408,45.603 307.392,45.332 309.376,45.1465 311.36,45.0464 313.344,45.0322 315.328,45.1035 317.312,45.2607 319.296,45.5034 321.28,45.8311 323.264,46.2441 325.248,46.7417 327.232,47.3237 329.216,47.9893 331.2,48.7378 333.184,49.5684 335.168,50.481 337.152,51.4741 339.136,52.5474 341.12,53.6992 343.104,54.9287 345.088,56.2349 347.072,57.6191 349.056,59.0786 351.04,60.6104 353.024,62.2134 355.008,63.8857 356.992,65.6255 358.976,67.4312 360.96,69.3013 362.944,71.2334 364.928,73.2261 366.912,75.2769 368.896,77.3838 370.88,79.5449 372.864,81.7578 374.848,84.0205 376.832,86.3311 378.816,88.6865 380.8,91.085 382.784,93.5234 384.768,96.0005 386.752,98.5132 388.736,101.059 390.72,103.635 392.704,106.24 394.688,108.87 396.672,111.523 398.656,114.197 400.64,116.888 402.624,119.594 404.608,122.313 406.592,125.042 408.576,127.777 410.56,130.518 412.544,133.26 414.528,136 416.512,138.738 418.496,141.47 420.48,144.192 422.464,146.903 424.448,149.599 426.432,152.279 428.416,154.939 430.4,157.577 432.384,160.19 434.368,162.776 436.352,165.333 438.336,167.857 440.32,170.346 442.304,172.798 444.288,175.21 446.272,177.58 448.256,179.906 450.24,182.185 452.224,184.415 454.208,186.593 456.192,188.718 458.176,190.788 460.16,192.8 462.144,194.752 464.128,196.644 466.112,198.471 468.096,200.233 470.08,201.928 472.064,203.555 474.048,205.11 476.032,206.594 478.016,208.004 480,209.336 481.984,210.591 483.968,211.769 485.952,212.869 487.936,213.888 489.92,214.828 491.904,215.686 493.888,216.462 495.872,217.155 497.856,217.765 499.84,218.291 501.824,218.732 503.808,219.088 505.792,219.36 507.776,219.545 509.76,219.646 511.744,219.66 513.728,219.588 515.712,219.431 517.696,219.188 519.68,218.86 521.664,218.447 523.648,217.95 525.632,217.368 527.616,216.703 529.6,215.954 531.584,215.123 533.568,214.211 535.552,213.218 537.536,212.145 539.52,210.993 541.504,209.763 543.488,208.457 545.472,207.073 547.456,205.613 549.44,204.082 551.424,202.479 553.408,200.806 555.392,199.066 557.376,197.26 559.36,195.391 561.344,193.458 563.328,191.466 565.312,189.415 567.296,187.308 569.28,185.147 571.264,182.934 573.248,180.671 575.232,178.361 577.216,176.005" stroke="#a1132e" stroke-linejoin="round" stroke-linecap="butt" stroke-width="0.5"/>
  </g>
  <clipPath id="cp00640600">
   <polygon points="0,600 640,600 640,0 0,0"/>
  </clipPath>
  <g clip-path="url(#cp00640600)">
   <polygon fill="#ffffff" points="506.077,213.542 567.015,213.542 567.015,60.2314 506.077,60.2314" shape-rendering="crispEdges"/>
   <polyline stroke-dasharray="16,0" fill="none" points="506.077,213.542 567.015,213.542" stroke="#262626" stroke-linejoin="miter" stroke-linecap="square" stroke-width="0.5"/>
   <polyline stroke-dasharray="16,0" fill="none" points="506.077,60.2314 567.015,60.2314" stroke="#262626" stroke-linejoin="miter" stroke-linecap="square" stroke-width="0.5"/>
   <polyline stroke-dasharray="16,0" fill="none" points="506.077,213.542 506.077,60.2314" stroke="#262626" stroke-linejoin="miter" stroke-linecap="square" stroke-width="0.5"/>
   <polyline stroke-dasharray="16,0" fill="none" points="567.015,213.542 567.015,60.2314" stroke="#262626" stroke-linejoin="miter" stroke-linecap="square" stroke-width="0.5"/>
   <text font-family="FreeSans" font-style="normal" font-weight="normal" xml:space="preserve" transform="translate(536.032,76.1822) rotate(-0,-0,-5)" font-size="9">
    <tspan x="0 5 10 15 19 " y="-2" fill="rgb(0,0,0)">phase</tspan>
   </text>
   <text font-family="FreeSans" font-style="normal" font-weight="normal" xml:space="preserve" transform="translate(536.032,97.0836) rotate(-0,-0,-4)" font-size="9">
    <tspan x="0 6 " y="-0" fill="rgb(0,0,0)">Va</tspan>
   </text>
   <text font-family="FreeSans" font-style="normal" font-weight="normal" xml:space="preserve" transform="translate(536.032,118.985) rotate(-0,-0,-4)" font-size="9">
    <tspan x="0 6 " y="-0" fill="rgb(0,0,0)">Vb</tspan>
   </text>
   <text font-family="FreeSans" font-style="normal" font-weight="normal" xml:space="preserve" transform="translate(536.032,140.886) rotate(-0,-0,-4)" font-size="9">
    <tspan x="0 6 " y="-0" fill="rgb(0,0,0)">Vc</tspan>
   </text>
   <text font-family="FreeSans" font-style="normal" font-weight="normal" xml:space="preserve" transform="translate(536.032,162.788) rotate(-0,-0,-4)" font-size="9">
    <tspan x="0 6 11 " y="-0" fill="rgb(0,0,0)">Vab</tspan>
   </text>
   <text font-family="FreeSans" font-style="normal" font-weight="normal" xml:space="preserve" transform="translate(536.032,184.689) rotate(-0,-0,-4)" font-size="9">
    <tspan x="0 6 11 " y="-0" fill="rgb(0,0,0)">Vbc</tspan>
   </text>
   <text font-family="FreeSans" font-style="normal" font-weight="normal" xml:space="preserve" transform="translate(536.032,206.591) rotate(-0,-0,-4)" font-size="9">
    <tspan x="0 6 11 " y="-0" fill="rgb(0,0,0)">Vca</tspan>
   </text>
   <polyline stroke-dasharray="1,1,1,1,1,1,1,1,1,1" fill="none" points="509.631,71.1821 532.479,71.1821" stroke="#0071bc" stroke-linejoin="round" stroke-linecap="butt" stroke-width="0.5"/>
   <polyline fill="none" points="509.631,93.0835 532.479,93.0835" stroke="#d85218" stroke-linejoin="round" stroke-linecap="butt" stroke-width="0.5"/>
   <polyline fill="none" points="509.631,114.985 532.479,114.985" stroke="#ecb01f" stroke-linejoin="round" stroke-linecap="butt" stroke-width="0.5"/>
   <polyline fill="none" points="509.631,136.886 532.479,136.886" stroke="#7d2e8d" stroke-linejoin="round" stroke-linecap="butt" stroke-width="0.5"/>
   <polyline stroke-dasharray="4,4,4,4" fill="none" points="509.631,158.788 532.479,158.788" stroke="#76ab2f" stroke-linejoin="round" stroke-linecap="butt" stroke-width="0.5"/>
   <polyline stroke-dasharray="4,4,4,4" fill="none" points="509.631,180.689 532.479,180.689" stroke="#4cbded" stroke-linejoin="round" stroke-linecap="butt" stroke-width="0.5"/>
   <polyline stroke-dasharray="4,4,4,4" fill="none" points="509.631,202.591 532.479,202.591" stroke="#a1132e" stroke-linejoin="round" stroke-linecap="butt" stroke-width="0.5"/>
  </g>
  <clipPath id="cp00640600">
   <polygon points="0,600 640,600 640,0 0,0"/>
  </clipPath>
  <g clip-path="url(#cp00640600)">
   <polygon fill="#ffffff" points="83.2002,324.461 579.2,324.461 579.2,254.539 83.2002,254.539" shape-rendering="crispEdges"/>
   <polyline fill="none" points="83.2002,324.461 83.2002,319.507" stroke="#262626" stroke-linejoin="miter" stroke-linecap="butt" stroke-width="0.5"/>
   <polyline fill="none" points="83.2002,254.539 83.2002,259.493" stroke="#262626" stroke-linejoin="miter" stroke-linecap="butt" stroke-width="0.5"/>
   <polyline fill="none" points="182.4,324.461 182.4,319.507" stroke="#262626" stroke-linejoin="miter" stroke-linecap="butt" stroke-width="0.5"/>
   <polyline fill="none" points="182.4,254.539 182.4,259.493" stroke="#262626" stroke-linejoin="miter" stroke-linecap="butt" stroke-width="0.5"/>
   <polyline fill="none" points="281.6,324.461 281.6,319.507" stroke="#262626" stroke-linejoin="miter" stroke-linecap="butt" stroke-width="0.5"/>
   <polyline fill="none" points="281.6,254.539 281.6,259.493" stroke="#262626" stroke-linejoin="miter" stroke-linecap="butt" stroke-width="0.5"/>
   <polyline fill="none" points="380.8,324.461 380.8,319.507" stroke="#262626" stroke-linejoin="miter" stroke-linecap="butt" stroke-width="0.5"/>
   <polyline fill="none" points="380.8,254.539 380.8,259.493" stroke="#262626" stroke-linejoin="miter" stroke-linecap="butt" stroke-width="0.5"/>
   <polyline fill="none" points="480,324.461 480,319.507" stroke="#262626" stroke-linejoin="miter" stroke-linecap="butt" stroke-width="0.5"/>
   <polyline fill="none" points="480,254.539 480,259.493" stroke="#262626" stroke-linejoin="miter" stroke-linecap="butt" stroke-width="0.5"/>
   <polyline fill="none" points="579.2,324.461 579.2,319.507" stroke="#262626" stroke-linejoin="miter" stroke-linecap="butt" stroke-width="0.5"/>
   <polyline fill="none" points="579.2,254.539 579.2,259.493" stroke="#262626" stroke-linejoin="miter" stroke-linecap="butt" stroke-width="0.5"/>
   <text font-family="FreeSans" font-style="normal" font-weight="normal" xml:space="preserve" transform="translate(80.2,339.953) rotate(-0,3,-8)" font-size="10">
    <tspan x="0 " y="-0" fill="rgb(38,38,38)">0</tspan>
   </text>
   <text font-family="FreeSans" font-style="normal" font-weight="normal" xml:space="preserve" transform="translate(168.9,339.953) rotate(-0,13.5,-8)" font-size="10">
    <tspan x="0 6 9 15 21 " y="-0" fill="rgb(38,38,38)">0.005</tspan>
   </text>
   <text font-family="FreeSans" font-style="normal" font-weight="normal" xml:space="preserve" transform="translate(271.1,339.953) rotate(-0,10.5,-8)" font-size="10">
    <tspan x="0 6 9 15 " y="-0" fill="rgb(38,38,38)">0.01</tspan>
   </text>
   <text font-family="FreeSans" font-style="normal" font-weight="normal" xml:space="preserve" transform="translate(367.3,339.953) rotate(-0,13.5,-8)" font-size="10">
    <tspan x="0 6 9 15 21 " y="-0" fill="rgb(38,38,38)">0.015</tspan>
   </text>
   <text font-family="FreeSans" font-style="normal" font-weight="normal" xml:space="preserve" transform="translate(469.5,339.953) rotate(-0,10.5,-8)" font-size="10">
    <tspan x="0 6 9 15 " y="-0" fill="rgb(38,38,38)">0.02</tspan>
   </text>
   <text font-family="FreeSans" font-style="normal" font-weight="normal" xml:space="preserve" transform="translate(565.7,339.953) rotate(-0,13.5,-8)" font-size="10">
    <tspan x="0 6 9 15 21 " y="-0" fill="rgb(38,38,38)">0.025</tspan>
   </text>
   <polyline fill="none" points="83.2002,324.461 88.1602,324.461" stroke="#262626" stroke-linejoin="miter" stroke-linecap="butt" stroke-width="0.5"/>
   <polyline fill="none" points="579.2,324.461 574.24,324.461" stroke="#262626" stroke-linejoin="miter" stroke-linecap="butt" stroke-width="0.5"/>
   <polyline fill="none" points="83.2002,306.98 88.1602,306.98" stroke="#262626" stroke-linejoin="miter" stroke-linecap="butt" stroke-width="0.5"/>
   <polyline fill="none" points="579.2,306.98 574.24,306.98" stroke="#262626" stroke-linejoin="miter" stroke-linecap="butt" stroke-width="0.5"/>
   <polyline fill="none" points="83.2002,289.5 88.1602,289.5" stroke="#262626" stroke-linejoin="miter" stroke-linecap="butt" stroke-width="0.5"/>
   <polyline fill="none" points="579.2,289.5 574.24,289.5" stroke="#262626" stroke-linejoin="miter" stroke-linecap="butt" stroke-width="0.5"/>
   <polyline fill="none" points="83.2002,272.02 88.1602,272.02" stroke="#262626" stroke-linejoin="miter" stroke-linecap="butt" stroke-width="0.5"/>
   <polyline fill="none" points="579.2,272.02 574.24,272.02" stroke="#262626" stroke-linejoin="miter" stroke-linecap="butt" stroke-width="0.5"/>
   <polyline fill="none" points="83.2002,254.539 88.1602,254.539" stroke="#262626" stroke-linejoin="miter" stroke-linecap="butt" stroke-width="0.5"/>
   <polyline fill="none" points="579.2,254.539 574.24,254.539" stroke="#262626" stroke-linejoin="miter" stroke-linecap="butt" stroke-width="0.5"/>
   <text font-family="FreeSans" font-style="normal" font-weight="normal" xml:space="preserve" transform="translate(72.2,328.461) rotate(-0,6,-4)" font-size="10">
    <tspan x="0 " y="-0" fill="rgb(38,38,38)">0</tspan>
   </text>
   <text font-family="FreeSans" font-style="normal" font-weight="normal" xml:space="preserve" transform="translate(63.2,310.981) rotate(-0,15,-4)" font-size="10">
    <tspan x="0 6 9 " y="-0" fill="rgb(38,38,38)">0.5</tspan>
   </text>
   <text font-family="FreeSans" font-style="normal" font-weight="normal" xml:space="preserve" transform="translate(72.2,293.5) rotate(-0,6,-4)" font-size="10">
    <tspan x="0 " y="-0" fill="rgb(38,38,38)">1</tspan>
   </text>
   <text font-family="FreeSans" font-style="normal" font-weight="normal" xml:space="preserve" transform="translate(63.2,276.019) rotate(-0,15,-4)" font-size="10">
    <tspan x="0 6 9 " y="-0" fill="rgb(38,38,38)">1.5</tspan>
   </text>
   <text font-family="FreeSans" font-style="normal" font-weight="normal" xml:space="preserve" transform="translate(72.2,258.539) rotate(-0,6,-4)" font-size="10">
    <tspan x="0 " y="-0" fill="rgb(38,38,38)">2</tspan>
   </text>
   <polyline stroke-dasharray="16,0" fill="none" points="83.2002,324.461 579.2,324.461" stroke="#262626" stroke-linejoin="miter" stroke-linecap="square" stroke-width="0.5"/>
   <polyline stroke-dasharray="16,0" fill="none" points="83.2002,254.539 579.2,254.539" stroke="#262626" stroke-linejoin="miter" stroke-linecap="square" stroke-width="0.5"/>
   <polyline stroke-dasharray="16,0" fill="none" points="83.2002,324.461 83.2002,254.539" stroke="#262626" stroke-linejoin="miter" stroke-linecap="square" stroke-width="0.5"/>
   <polyline stroke-dasharray="16,0" fill="none" points="579.2,324.461 579.2,254.539" stroke="#262626" stroke-linejoin="miter" stroke-linecap="square" stroke-width="0.5"/>
   <text font-family="FreeSans" font-style="normal" font-weight="bold" xml:space="preserve" transform="translate(298.7,244.539) rotate(-0,32.5,0)" font-size="11">
    <tspan x="0 7 16 19 23 29 36 39 45 49 55 59 " y="-1" fill="rgb(0,0,0)">Switch state</tspan>
   </text>
   <polyline fill="none" points="83.2002,254.539 85.1841,254.539 87.168,254.539 89.1519,254.539 91.1362,254.539 93.1201,254.539 95.104,254.539 97.0879,254.539 99.0723,254.539 101.056,254.539 103.04,254.539 105.024,254.539 107.008,254.539 108.992,254.539 110.976,254.539 112.96,254.539 114.944,254.539 116.928,254.539 118.912,254.539 120.896,254.539 122.88,254.539 124.864,254.539 126.848,254.539 128.832,254.539 130.816,254.539 132.8,254.539 134.784,254.539 136.768,254.539 138.752,254.539 140.736,254.539 142.72,254.539 144.704,254.539 146.688,254.539 148.672,254.539 150.656,254.539 152.64,254.539 154.624,254.539 156.608,254.539 158.592,254.539 160.576,254.539 162.56,254.539 164.544,254.539 166.528,254.539 168.512,254.539 170.496,254.539 172.48,254.539 174.464,254.539 176.448,254.539 178.432,254.539 180.416,254.539 182.4,254.539 184.384,254.539 186.368,254.539 188.352,254.539 190.336,254.539 192.32,254.539 194.304,254.539 196.288,254.539 198.272,254.539 200.256,254.539 202.24,254.539 204.224,254.539 206.208,254.539 208.192,254.539 210.176,254.539 212.16,254.539 214.144,324.461 216.128,324.461 218.112,324.461 220.096,324.461 222.08,324.461 224.064,324.461 226.048,324.461 228.032,324.461 230.016,324.461 232,324.461 233.984,324.461 235.968,324.461 237.952,324.461 239.936,324.461 241.92,324.461 243.904,324.461 245.888,324.461 247.872,324.461 249.856,324.461 251.84,324.461 253.824,324.461 255.808,324.461 257.792,324.461 259.776,324.461 261.76,324.461 263.744,324.461 265.728,324.461 267.712,324.461 269.696,324.461 271.68,324.461 273.664,324.461 275.648,324.461 277.632,324.461 279.616,324.461 281.6,324.461 283.584,324.461 285.568,324.461 287.552,324.461 289.536,324.461 291.52,324.461 293.504,324.461 295.488,324.461 297.472,324.461 299.456,324.461 301.44,324.461 303.424,324.461 305.408,324.461 307.392,324.461 309.376,324.461 311.36,324.461 313.344,324.461 315.328,324.461 317.312,324.461 319.296,324.461 321.28,324.461 323.264,324.461 325.248,324.461 327.232,324.461 329.216,324.461 331.2,324.461 333.184,324.461 335.168,324.461 337.152,324.461 339.136,324.461 341.12,324.461 343.104,324.461 345.088,324.461 347.072,324.461 349.056,289.5 351.04,289.5 353.024,289.5 355.008,289.5 356.992,289.5 358.976,289.5 360.96,289.5 362.944,289.5 364.928,289.5 366.912,289.5 368.896,289.5 370.88,289.5 372.864,289.5 374.848,289.5 376.832,289.5 378.816,289.5 380.8,289.5 382.784,289.5 384.768,289.5 386.752,289.5 388.736,289.5 390.72,289.5 392.704,289.5 394.688,289.5 396.672,289.5 398.656,289.5 400.64,289.5 402.624,289.5 404.608,289.5 406.592,289.5 408.576,289.5 410.56,289.5 412.544,289.5 414.528,289.5 416.512,289.5 418.496,289.5 420.48,289.5 422.464,289.5 424.448,289.5 426.432,289.5 428.416,289.5 430.4,289.5 432.384,289.5 434.368,289.5 436.352,289.5 438.336,289.5 440.32,289.5 442.304,289.5 444.288,289.5 446.272,289.5 448.256,289.5 450.24,289.5 452.224,289.5 454.208,289.5 456.192,289.5 458.176,289.5 460.16,289.5 462.144,289.5 464.128,289.5 466.112,289.5 468.096,289.5 470.08,289.5 472.064,289.5 474.048,289.5 476.032,289.5 478.016,289.5 480,254.539 481.984,254.539 483.968,254.539 485.952,254.539 487.936,254.539 489.92,254.539 491.904,254.539 493.888,254.539 495.872,254.539 497.856,254.539 499.84,254.539 501.824,254.539 503.808,254.539 505.792,254.539 507.776,254.539 509.76,254.539 511.744,254.539 513.728,254.539 515.712,254.539 517.696,254.539 519.68,254.539 521.664,254.539 523.648,254.539 525.632,254.539 527.616,254.539 529.6,254.539 531.584,254.539 533.568,254.539 535.552,254.539 537.536,254.539 539.52,254.539 541.504,254.539 543.488,254.539 545.472,254.539 547.456,254.539 549.44,254.539 551.424,254.539 553.408,254.539 555.392,254.539 557.376,254.539 559.36,254.539 561.344,254.539 563.328,254.539 565.312,254.539 567.296,254.539 569.28,254.539 571.264,254.539 573.248,254.539 575.232,254.539 577.216,254.539" stroke="#0071bc" stroke-linejoin="round" stroke-linecap="butt" stroke-width="0.5"/>
   <polyline fill="none" points="83.2002,324.461 85.1841,324.461 87.168,324.461 89.1519,324.461 91.1362,324.461 93.1201,324.461 95.104,324.461 97.0879,324.461 99.0723,324.461 101.056,324.461 103.04,324.461 105.024,324.461 107.008,324.461 108.992,324.461 110.976,324.461 112.96,324.461 114.944,324.461 116.928,324.461 118.912,324.461 120.896,324.461 122.88,324.461 124.864,324.461 126.848,324.461 128.832,324.461 130.816,324.461 132.8,324.461 134.784,324.461 136.768,324.461 138.752,324.461 140.736,324.461 142.72,324.461 144.704,324.461 146.688,324.461 148.672,324.461 150.656,289.5 152.64,289.5 154.624,289.5 156.608,289.5 158.592,289.5 160.576,289.5 162.56,289.5 164.544,289.5 166.528,289.5 168.512,289.5 170.496,289.5 172.48,289.5 174.464,289.5 176.448,289.5 178.432,289.5 180.416,289.5 182.4,289.5 184.384,289.5 186.368,289.5 188.352,289.5 190.336,289.5 192.32,289.5 194.304,289.5 196.288,289.5 198.272,289.5 200.256,289.5 202.24,289.5 204.224,289.5 206.208,289.5 208.192,289.5 210.176,289.5 212.16,289.5 214.144,289.5 216.128,289.5 218.112,289.5 220.096,289.5 222.08,289.5 224.064,289.5 226.048,289.5 228.032,289.5 230.016,289.5 232,289.5 233.984,289.5 235.968,289.5 237.952,289.5 239.936,289.5 241.92,289.5 243.904,289.5 245.888,289.5 247.872,289.5 249.856,289.5 251.84,289.5 253.824,289.5 255.808,289.5 257.792,289.5 259.776,289.5 261.76,289.5 263.744,289.5 265.728,289.5 267.712,289.5 269.696,289.5 271.68,289.5 273.664,289.5 275.648,289.5 277.632,289.5 279.616,289.5 281.6,254.539 283.584,254.539 285.568,254.539 287.552,254.539 289.536,254.539 291.52,254.539 293.504,254.539 295.488,254.539 297.472,254.539 299.456,254.539 301.44,254.539 303.424,254.539 305.408,254.539 307.392,254.539 309.376,254.539 311.36,254.539 313.344,254.539 315.328,254.539 317.312,254.539 319.296,254.539 321.28,254.539 323.264,254.539 325.248,254.539 327.232,254.539 329.216,254.539 331.2,254.539 333.184,254.539 335.168,254.539 337.152,254.539 339.136,254.539 341.12,254.539 343.104,254.539 345.088,254.539 347.072,254.539 349.056,254.539 351.04,254.539 353.024,254.539 355.008,254.539 356.992,254.539 358.976,254.539 360.96,254.539 362.944,254.539 364.928,254.539 366.912,254.539 368.896,254.539 370.88,254.539 372.864,254.539 374.848,254.539 376.832,254.539 378.816,254.539 380.8,254.539 382.784,254.539 384.768,254.539 386.752,254.539 388.736,254.539 390.72,254.539 392.704,254.539 394.688,254.539 396.672,254.539 398.656,254.539 400.64,254.539 402.624,254.539 404.608,254.539 406.592,254.539 408.576,254.539 410.56,254.539 412.544,324.461 414.528,324.461 416.512,324.461 418.496,324.461 420.48,324.461 422.464,324.461 424.448,324.461 426.432,324.461 428.416,324.461 430.4,324.461 432.384,324.461 434.368,324.461 436.352,324.461 438.336,324.461 440.32,324.461 442.304,324.461 444.288,324.461 446.272,324.461 448.256,324.461 450.24,324.461 452.224,324.461 454.208,324.461 456.192,324.461 458.176,324.461 460.16,324.461 462.144,324.461 464.128,324.461 466.112,324.461 468.096,324.461 470.08,324.461 472.064,324.461 474.048,324.461 476.032,324.461 478.016,324.461 480,324.461 481.984,324.461 483.968,324.461 485.952,324.461 487.936,324.461 489.92,324.461 491.904,324.461 493.888,324.461 495.872,324.461 497.856,324.461 499.84,324.461 501.824,324.461 503.808,324.461 505.792,324.461 507.776,324.461 509.76,324.461 511.744,324.461 513.728,324.461 515.712,324.461 517.696,324.461 519.68,324.461 521.664,324.461 523.648,324.461 525.632,324.461 527.616,324.461 529.6,324.461 531.584,324.461 533.568,324.461 535.552,324.461 537.536,324.461 539.52,324.461 541.504,324.461 543.488,324.461 545.472,324.461 547.456,289.5 549.44,289.5 551.424,289.5 553.408,289.5 555.392,289.5 557.376,289.5 559.36,289.5 561.344,289.5 563.328,289.5 565.312,289.5 567.296,289.5 569.28,289.5 571.264,289.5 573.248,289.5 575.232,289.5 577.216,289.5" stroke="#d85218" stroke-linejoin="round" stroke-linecap="butt" stroke-width="0.5"/>
  </g>
  <clipPath id="cp00640600">
   <polygon points="0,600 640,600 640,0 0,0"/>
  </clipPath>
  <g clip-path="url(#cp00640600)">
   <polygon fill="#ffffff" points="524.363,307.859 567.015,307.859 567.015,269.771 524.363,269.771" shape-rendering="crispEdges"/>
   <polyline stroke-dasharray="16,0" fill="none" points="524.363,307.859 567.015,307.859" stroke="#262626" stroke-linejoin="miter" stroke-linecap="square" stroke-width="0.5"/>
   <polyline stroke-dasharray="16,0" fill="none" points="524.363,269.771 567.015,269.771" stroke="#262626" stroke-linejoin="miter" stroke-linecap="square" stroke-width="0.5"/>
   <polyline stroke-dasharray="16,0" fill="none" points="524.363,307.859 524.363,269.771" stroke="#262626" stroke-linejoin="miter" stroke-linecap="square" stroke-width="0.5"/>
   <polyline stroke-dasharray="16,0" fill="none" points="567.015,307.859 567.015,269.771" stroke="#262626" stroke-linejoin="miter" stroke-linecap="square" stroke-width="0.5"/>
   <text font-family="FreeSans" font-style="normal" font-weight="normal" xml:space="preserve" transform="translate(554.318,283.292) rotate(-0,-0,-4)" font-size="9">
    <tspan x="0 3 " y="-0" fill="rgb(0,0,0)">Ia</tspan>
   </text>
   <text font-family="FreeSans" font-style="normal" font-weight="normal" xml:space="preserve" transform="translate(554.318,302.337) rotate(-0,-0,-4)" font-size="9">
    <tspan x="0 3 " y="-0" fill="rgb(0,0,0)">Ib</tspan>
   </text>
   <polyline fill="none" points="527.917,279.292 550.764,279.292" stroke="#0071bc" stroke-linejoin="round" stroke-linecap="butt" stroke-width="0.5"/>
   <polyline fill="none" points="527.917,298.337 550.764,298.337" stroke="#d85218" stroke-linejoin="round" stroke-linecap="butt" stroke-width="0.5"/>
  </g>
  <clipPath id="cp00640600">
   <polygon points="0,600 640,600 640,0 0,0"/>
  </clipPath>
  <g clip-path="url(#cp00640600)">
   <polygon fill="#ffffff" points="83.2002,534 579.2,534 579.2,359.308 83.2002,359.308" shape-rendering="crispEdges"/>
   <polyline fill="none" points="83.2002,534 83.2002,529.049" stroke="#262626" stroke-linejoin="miter" stroke-linecap="butt" stroke-width="0.5"/>
   <polyline fill="none" points="83.2002,359.308 83.2002,364.26" stroke="#262626" stroke-linejoin="miter" stroke-linecap="butt" stroke-width="0.5"/>
   <polyline fill="none" points="182.4,534 182.4,529.049" stroke="#262626" stroke-linejoin="miter" stroke-linecap="butt" stroke-width="0.5"/>
   <polyline fill="none" points="182.4,359.308 182.4,364.26" stroke="#262626" stroke-linejoin="miter" stroke-linecap="butt" stroke-width="0.5"/>
   <polyline fill="none" points="281.6,534 281.6,529.049" stroke="#262626" stroke-linejoin="miter" stroke-linecap="butt" stroke-width="0.5"/>
   <polyline fill="none" points="281.6,359.308 281.6,364.26" stroke="#262626" stroke-linejoin="miter" stroke-linecap="butt" stroke-width="0.5"/>
   <polyline fill="none" points="380.8,534 380.8,529.049" stroke="#262626" stroke-linejoin="miter" stroke-linecap="butt" stroke-width="0.5"/>
   <polyline fill="none" points="380.8,359.308 380.8,364.26" stroke="#262626" stroke-linejoin="miter" stroke-linecap="butt" stroke-width="0.5"/>
   <polyline fill="none" points="480,534 480,529.049" stroke="#262626" stroke-linejoin="miter" stroke-linecap="butt" stroke-width="0.5"/>
   <polyline fill="none" points="480,359.308 480,364.26" stroke="#262626" stroke-linejoin="miter" stroke-linecap="butt" stroke-width="0.5"/>
   <polyline fill="none" points="579.2,534 579.2,529.049" stroke="#262626" stroke-linejoin="miter" stroke-linecap="butt" stroke-width="0.5"/>
   <polyline fill="none" points="579.2,359.308 579.2,364.26" stroke="#262626" stroke-linejoin="miter" stroke-linecap="butt" stroke-width="0.5"/>
   <text font-family="FreeSans" font-style="normal" font-weight="normal" xml:space="preserve" transform="translate(80.2,549.487) rotate(-0,3,-8)" font-size="10">
    <tspan x="0 " y="-0" fill="rgb(38,38,38)">0</tspan>
   </text>
   <text font-family="FreeSans" font-style="normal" font-weight="normal" xml:space="preserve" transform="translate(168.9,549.487) rotate(-0,13.5,-8)" font-size="10">
    <tspan x="0 6 9 15 21 " y="-0" fill="rgb(38,38,38)">0.005</tspan>
   </text>
   <text font-family="FreeSans" font-style="normal" font-weight="normal" xml:space="preserve" transform="translate(271.1,549.487) rotate(-0,10.5,-8)" font-size="10">
    <tspan x="0 6 9 15 " y="-0" fill="rgb(38,38,38)">0.01</tspan>
   </text>
   <text font-family="FreeSans" font-style="normal" font-weight="normal" xml:space="preserve" transform="translate(367.3,549.487) rotate(-0,13.5,-8)" font-size="10">
    <tspan x="0 6 9 15 21 " y="-0" fill="rgb(38,38,38)">0.015</tspan>
   </text>
   <text font-family="FreeSans" font-style="normal" font-weight="normal" xml:space="preserve" transform="translate(469.5,549.487) rotate(-0,10.5,-8)" font-size="10">
    <tspan x="0 6 9 15 " y="-0" fill="rgb(38,38,38)">0.02</tspan>
   </text>
   <text font-family="FreeSans" font-style="normal" font-weight="normal" xml:space="preserve" transform="translate(565.7,549.487) rotate(-0,13.5,-8)" font-size="10">
    <tspan x="0 6 9 15 21 " y="-0" fill="rgb(38,38,38)">0.025</tspan>
   </text>
   <polyline fill="none" points="83.2002,534 88.1602,534" stroke="#262626" stroke-linejoin="miter" stroke-linecap="butt" stroke-width="0.5"/>
   <polyline fill="none" points="579.2,534 574.24,534" stroke="#262626" stroke-linejoin="miter" stroke-linecap="butt" stroke-width="0.5"/>
   <polyline fill="none" points="83.2002,490.327 88.1602,490.327" stroke="#262626" stroke-linejoin="miter" stroke-linecap="butt" stroke-width="0.5"/>
   <polyline fill="none" points="579.2,490.327 574.24,490.327" stroke="#262626" stroke-linejoin="miter" stroke-linecap="butt" stroke-width="0.5"/>
   <polyline fill="none" points="83.2002,446.654 88.1602,446.654" stroke="#262626" stroke-linejoin="miter" stroke-linecap="butt" stroke-width="0.5"/>
   <polyline fill="none" points="579.2,446.654 574.24,446.654" stroke="#262626" stroke-linejoin="miter" stroke-linecap="butt" stroke-width="0.5"/>
   <polyline fill="none" points="83.2002,402.981 88.1602,402.981" stroke="#262626" stroke-linejoin="miter" stroke-linecap="butt" stroke-width="0.5"/>
   <polyline fill="none" points="579.2,402.981 574.24,402.981" stroke="#262626" stroke-linejoin="miter" stroke-linecap="butt" stroke-width="0.5"/>
   <polyline fill="none" points="83.2002,359.308 88.1602,359.308" stroke="#262626" stroke-linejoin="miter" stroke-linecap="butt" stroke-width="0.5"/>
   <polyline fill="none" points="579.2,359.308 574.24,359.308" stroke="#262626" stroke-linejoin="miter" stroke-linecap="butt" stroke-width="0.5"/>
   <text font-family="FreeSans" font-style="normal" font-weight="normal" xml:space="preserve" transform="translate(69.2,538) rotate(-0,9,-4)" font-size="10">
    <tspan x="0 3 " y="-0" fill="rgb(38,38,38)">-2</tspan>
   </text>
   <text font-family="FreeSans" font-style="normal" font-weight="normal" xml:space="preserve" transform="translate(69.2,494.327) rotate(-0,9,-4)" font-size="10">
    <tspan x="0 3 " y="-0" fill="rgb(38,38,38)">-1</tspan>
   </text>
   <text font-family="FreeSans" font-style="normal" font-weight="normal" xml:space="preserve" transform="translate(72.2,450.654) rotate(-0,6,-4)" font-size="10">
    <tspan x="0 " y="-0" fill="rgb(38,38,38)">0</tspan>
   </text>
   <text font-family="FreeSans" font-style="normal" font-weight="normal" xml:space="preserve" transform="translate(72.2,406.981) rotate(-0,6,-4)" font-size="10">
    <tspan x="0 " y="-0" fill="rgb(38,38,38)">1</tspan>
   </text>
   <text font-family="FreeSans" font-style="normal" font-weight="normal" xml:space="preserve" transform="translate(72.2,363.308) rotate(-0,6,-4)" font-size="10">
    <tspan x="0 " y="-0" fill="rgb(38,38,38)">2</tspan>
   </text>
   <polyline stroke-dasharray="16,0" fill="none" points="83.2002,534 579.2,534" stroke="#262626" stroke-linejoin="miter" stroke-linecap="square" stroke-width="0.5"/>
   <polyline stroke-dasharray="16,0" fill="none" points="83.2002,359.308 579.2,359.308" stroke="#262626" stroke-linejoin="miter" stroke-linecap="square" stroke-width="0.5"/>
   <polyline stroke-dasharray="16,0" fill="none" points="83.2002,534 83.2002,359.308" stroke="#262626" stroke-linejoin="miter" stroke-linecap="square" stroke-width="0.5"/>
   <polyline stroke-dasharray="16,0" fill="none" points="579.2,534 579.2,359.308" stroke="#262626" stroke-linejoin="miter" stroke-linecap="square" stroke-width="0.5"/>
   <text font-family="FreeSans" font-style="normal" font-weight="bold" xml:space="preserve" transform="translate(272.2,349.308) rotate(-0,59,0)" font-size="11">
    <tspan x="0 8 12 16 22 26 29 36 43 49 55 61 64 70 77 81 85 91 97 101 104 111 " y="-3" fill="rgb(0,0,0)">After phase correction</tspan>
   </text>
   <text font-family="FreeSans" font-style="normal" font-weight="normal" xml:space="preserve" transform="translate(53.7,446.654) rotate(-90,10.5,0)" font-size="11">
    <tspan x="0 8 11 14 " y="-2" fill="rgb(38,38,38)">U, V</tspan>
   </text>
   <text font-family="FreeSans" font-style="normal" font-weight="normal" xml:space="preserve" transform="translate(323.2,565.487) rotate(-0,8,-11)" font-size="11">
    <tspan x="0 3 6 9 " y="-2" fill="rgb(38,38,38)">t, S</tspan>
   </text>
   <polyline stroke-dasharray="1,1,1,1,1,1,1,1,1,1" fill="none" points="83.2002,446.217 85.1841,445.781 87.168,445.344 89.1519,444.907 91.1362,444.471 93.1201,444.034 95.104,443.597 97.0879,443.16 99.0723,442.724 101.056,442.287 103.04,441.85 105.024,441.414 107.008,440.977 108.992,440.54 110.976,440.103 112.96,439.667 114.944,439.23 116.928,438.793 118.912,438.356 120.896,437.919 122.88,437.483 124.864,437.046 126.848,436.609 128.832,436.173 130.816,435.736 132.8,435.299 134.784,434.862 136.768,434.426 138.752,433.989 140.736,433.552 142.72,433.116 144.704,432.679 146.688,432.242 148.672,431.805 150.656,431.369 152.64,430.932 154.624,430.495 156.608,430.059 158.592,429.622 160.576,429.185 162.56,428.748 164.544,428.312 166.528,427.875 168.512,427.438 170.496,427.001 172.48,426.564 174.464,426.128 176.448,425.691 178.432,425.254 180.416,424.818 182.4,424.381 184.384,423.944 186.368,423.507 188.352,423.071 190.336,422.634 192.32,422.197 194.304,421.761 196.288,421.324 198.272,420.887 200.256,420.45 202.24,420.014 204.224,419.577 206.208,419.14 208.192,418.704 210.176,418.267 212.16,417.83 214.144,417.393 216.128,416.957 218.112,416.52 220.096,416.083 222.08,415.646 224.064,415.209 226.048,414.773 228.032,414.336 230.016,413.899 232,413.463 233.984,413.026 235.968,412.589 237.952,412.152 239.936,411.716 241.92,411.279 243.904,410.842 245.888,410.406 247.872,409.969 249.856,409.532 251.84,409.096 253.824,408.659 255.808,408.222 257.792,407.785 259.776,407.349 261.76,406.912 263.744,406.475 265.728,406.039 267.712,405.602 269.696,405.165 271.68,404.728 273.664,404.292 275.648,403.854 277.632,403.418 279.616,402.981 281.6,402.544 283.584,402.108 285.568,401.671 287.552,401.234 289.536,400.798 291.52,400.361 293.504,399.924 295.488,399.487 297.472,399.051 299.456,398.614 301.44,398.177 303.424,397.741 305.408,397.304 307.392,396.867 309.376,396.43 311.36,395.994 313.344,395.557 315.328,395.12 317.312,394.684 319.296,394.247 321.28,393.81 323.264,393.373 325.248,392.937 327.232,392.5 329.216,392.063 331.2,391.626 333.184,391.189 335.168,390.753 337.152,390.316 339.136,389.879 341.12,389.443 343.104,389.006 345.088,388.569 347.072,388.132 349.056,387.696 351.04,387.259 353.024,386.822 355.008,386.386 356.992,385.949 358.976,385.512 360.96,385.075 362.944,384.639 364.928,384.202 366.912,383.765 368.896,383.329 370.88,382.892 372.864,382.455 374.848,382.018 376.832,381.582 378.816,381.145 380.8,380.708 382.784,380.271 384.768,379.834 386.752,379.398 388.736,378.961 390.72,378.524 392.704,378.088 394.688,377.651 396.672,377.214 398.656,376.777 400.64,376.341 402.624,375.904 404.608,375.467 406.592,375.031 408.576,374.594 410.56,374.157 412.544,373.72 414.528,373.284 416.512,372.847 418.496,372.41 420.48,371.974 422.464,371.537 424.448,371.1 426.432,370.663 428.416,370.227 430.4,369.79 432.384,369.353 434.368,368.917 436.352,368.479 438.336,368.043 440.32,367.606 442.304,367.169 444.288,366.733 446.272,366.296 448.256,365.859 450.24,365.422 452.224,364.986 454.208,364.549 456.192,364.112 458.176,363.676 460.16,363.239 462.144,362.802 464.128,362.365 466.112,361.929 468.096,361.492 470.08,361.055 472.064,360.619 474.048,360.182 476.032,359.745 478.016,359.309 480,446.217 481.984,445.781 483.968,445.344 485.952,444.907 487.936,444.471 489.92,444.034 491.904,443.597 493.888,443.161 495.872,442.724 497.856,442.287 499.84,441.85 501.824,441.414 503.808,440.977 505.792,440.54 507.776,440.104 509.76,439.667 511.744,439.23 513.728,438.793 515.712,438.356 517.696,437.919 519.68,437.483 521.664,437.046 523.648,436.609 525.632,436.173 527.616,435.736 529.6,435.299 531.584,434.862 533.568,434.426 535.552,433.989 537.536,433.552 539.52,433.116 541.504,432.679 543.488,432.242 545.472,431.806 547.456,431.369 549.44,430.932 551.424,430.495 553.408,430.059 555.392,429.622 557.376,429.185 559.36,428.749 561.344,428.312 563.328,427.875 565.312,427.438 567.296,427.001 569.28,426.564 571.264,426.128 573.248,425.691 575.232,425.254 577.216,424.818" stroke="#0071bc" stroke-linejoin="round" stroke-linecap="butt" stroke-width="0.5"/>
   <polyline fill="none" points="83.2002,485.149 85.1841,485.777 87.168,486.366 89.1519,486.916 91.1362,487.425 93.1201,487.895 95.104,488.324 97.0879,488.712 99.0723,489.059 101.056,489.364 103.04,489.626 105.024,489.847 107.008,490.025 108.992,490.161 110.976,490.254 112.96,490.304 114.944,490.311 116.928,490.275 118.912,490.197 120.896,490.075 122.88,489.912 124.864,489.705 126.848,489.456 128.832,489.165 130.816,488.833 132.8,488.458 134.784,488.043 136.768,487.586 138.752,487.09 140.736,486.553 142.72,485.978 144.704,485.363 146.688,484.709 148.672,483.104 150.656,479.262 152.64,480.611 154.624,476.255 156.608,474.958 158.592,472.285 160.576,470.037 162.56,467.765 164.544,465.473 166.528,463.161 168.512,460.833 170.496,458.492 172.48,456.138 174.464,453.775 176.448,451.406 178.432,449.031 180.416,446.654 182.4,444.277 184.384,441.903 186.368,439.533 188.352,437.17 190.336,434.816 192.32,432.475 194.304,430.147 196.288,427.836 198.272,425.543 200.256,423.271 202.24,421.023 204.224,418.8 206.208,417.053 208.192,413.99 210.176,418.218 212.16,404.292 214.144,408.599 216.128,407.946 218.112,407.331 220.096,406.755 222.08,406.218 224.064,405.722 226.048,405.266 228.032,404.85 230.016,404.476 232,404.143 233.984,403.852 235.968,403.604 237.952,403.397 239.936,403.233 241.92,403.111 243.904,403.033 245.888,402.997 247.872,403.004 249.856,403.054 251.84,403.147 253.824,403.283 255.808,403.461 257.792,403.682 259.776,403.944 261.76,404.25 263.744,404.596 265.728,404.984 267.712,405.413 269.696,405.883 271.68,406.393 273.664,406.942 275.648,407.531 277.632,408.159 279.616,408.825 281.6,408.159 283.584,407.532 285.568,406.942 287.552,406.393 289.536,405.883 291.52,405.413 293.504,404.984 295.488,404.596 297.472,404.25 299.456,403.944 301.44,403.682 303.424,403.461 305.408,403.283 307.392,403.147 309.376,403.054 311.36,403.004 313.344,402.997 315.328,403.033 317.312,403.111 319.296,403.233 321.28,403.397 323.264,403.604 325.248,403.852 327.232,404.143 329.216,404.476 331.2,404.85 333.184,405.266 335.168,405.722 337.152,406.218 339.136,406.755 341.12,407.331 343.104,407.945 345.088,408.599 347.072,410.205 349.056,414.046 351.04,412.696 353.024,417.053 355.008,418.351 356.992,421.023 358.976,423.271 360.96,425.543 362.944,427.835 364.928,430.147 366.912,432.475 368.896,434.816 370.88,437.169 372.864,439.533 374.848,441.902 376.832,444.277 378.816,446.654 380.8,449.031 382.784,451.405 384.768,453.775 386.752,456.138 388.736,458.492 390.72,460.833 392.704,463.161 394.688,465.472 396.672,467.765 398.656,470.037 400.64,472.285 402.624,474.508 404.608,476.255 406.592,479.318 408.576,475.09 410.56,489.016 412.544,484.709 414.528,485.363 416.512,485.978 418.496,486.553 420.48,487.09 422.464,487.586 424.448,488.042 426.432,488.458 428.416,488.833 430.4,489.165 432.384,489.456 434.368,489.705 436.352,489.912 438.336,490.075 440.32,490.197 442.304,490.275 444.288,490.311 446.272,490.304 448.256,490.254 450.24,490.161 452.224,490.025 454.208,489.847 456.192,489.626 458.176,489.364 460.16,489.059 462.144,488.712 464.128,488.324 466.112,487.895 468.096,487.425 470.08,486.916 472.064,486.366 474.048,485.777 476.032,485.149 478.016,484.483 480,485.149 481.984,485.777 483.968,486.366 485.952,486.916 487.936,487.425 489.92,487.895 491.904,488.324 493.888,488.712 495.872,489.059 497.856,489.364 499.84,489.626 501.824,489.847 503.808,490.025 505.792,490.161 507.776,490.254 509.76,490.304 511.744,490.311 513.728,490.275 515.712,490.197 517.696,490.075 519.68,489.912 521.664,489.705 523.648,489.456 525.632,489.165 527.616,488.833 529.6,488.458 531.584,488.043 533.568,487.586 535.552,487.09 537.536,486.554 539.52,485.978 541.504,485.363 543.488,484.71 545.472,483.104 547.456,479.262 549.44,480.612 551.424,476.255 553.408,474.958 555.392,472.286 557.376,470.037 559.36,467.766 561.344,465.473 563.328,463.162 565.312,460.834 567.296,458.492 569.28,456.139 571.264,453.776 573.248,451.406 575.232,449.031 577.216,446.655" stroke="#d85218" stroke-linejoin="round" stroke-linecap="butt" stroke-width="0.5"/>
   <polyline fill="none" points="83.2002,418.641 85.1841,405.272 87.168,417.424 89.1519,415.066 91.1362,419.538 93.1201,421.77 95.104,424.026 97.0879,426.305 99.0723,428.604 101.056,430.921 103.04,433.254 105.024,435.6 107.008,437.957 108.992,440.322 110.976,442.694 112.96,445.069 114.944,447.447 116.928,449.823 118.912,452.196 120.896,454.564 122.88,456.924 124.864,459.274 126.848,461.611 128.832,463.934 130.816,466.239 132.8,468.525 134.784,470.789 136.768,473.029 138.752,475.244 140.736,477.429 142.72,475.496 144.704,485.796 146.688,474.228 148.672,490.327 150.656,489.744 152.64,486.174 154.624,486.737 156.608,487.26 158.592,487.743 160.576,488.186 162.56,488.587 164.544,488.948 166.528,489.267 168.512,489.543 170.496,489.778 172.48,489.971 174.464,490.121 176.448,490.228 178.432,490.292 180.416,490.313 182.4,490.292 184.384,490.228 186.368,490.121 188.352,489.971 190.336,489.778 192.32,489.543 194.304,489.267 196.288,488.948 198.272,488.587 200.256,488.186 202.24,487.743 204.224,487.26 206.208,486.737 208.192,486.174 210.176,485.572 212.16,484.932 214.144,484.709 216.128,485.363 218.112,485.978 220.096,486.553 222.08,487.09 224.064,487.586 226.048,488.042 228.032,488.458 230.016,488.833 232,489.165 233.984,489.456 235.968,489.705 237.952,489.912 239.936,490.075 241.92,490.197 243.904,490.275 245.888,490.311 247.872,490.304 249.856,490.254 251.84,490.161 253.824,490.025 255.808,489.847 257.792,489.626 259.776,489.364 261.76,489.059 263.744,488.712 265.728,488.324 267.712,487.895 269.696,487.425 271.68,486.916 273.664,486.366 275.648,485.777 277.632,485.149 279.616,484.483 281.6,476.563 283.584,486.14 285.568,475.884 287.552,478.243 289.536,473.771 291.52,471.539 293.504,469.282 295.488,467.003 297.472,464.704 299.456,462.387 301.44,460.055 303.424,457.708 305.408,455.352 307.392,452.986 309.376,450.615 311.36,448.239 313.344,445.862 315.328,443.485 317.312,441.112 319.296,438.745 321.28,436.384 323.264,434.035 325.248,431.697 327.232,429.375 329.216,427.07 331.2,424.784 333.184,422.52 335.168,420.279 337.152,418.065 339.136,415.879 341.12,417.812 343.104,407.512 345.088,419.08 347.072,402.981 349.056,403.565 351.04,407.135 353.024,406.572 355.008,406.048 356.992,405.565 358.976,405.123 360.96,404.721 362.944,404.36 364.928,404.042 366.912,403.765 368.896,403.53 370.88,403.337 372.864,403.188 374.848,403.081 376.832,403.016 378.816,402.995 380.8,403.016 382.784,403.081 384.768,403.188 386.752,403.337 388.736,403.53 390.72,403.765 392.704,404.042 394.688,404.36 396.672,404.721 398.656,405.123 400.64,405.565 402.624,406.048 404.608,406.572 406.592,407.134 408.576,407.736 410.56,408.376 412.544,408.599 414.528,407.946 416.512,407.331 418.496,406.755 420.48,406.218 422.464,405.722 424.448,405.266 426.432,404.85 428.416,404.476 430.4,404.143 432.384,403.852 434.368,403.604 436.352,403.397 438.336,403.233 440.32,403.112 442.304,403.033 444.288,402.997 446.272,403.004 448.256,403.054 450.24,403.147 452.224,403.283 454.208,403.461 456.192,403.682 458.176,403.944 460.16,404.25 462.144,404.596 464.128,404.984 466.112,405.413 468.096,405.883 470.08,406.393 472.064,406.942 474.048,407.531 476.032,408.159 478.016,408.825 480,416.745 481.984,407.167 483.968,417.424 485.952,415.065 487.936,419.538 489.92,421.77 491.904,424.026 493.888,426.305 495.872,428.604 497.856,430.921 499.84,433.253 501.824,435.6 503.808,437.956 505.792,440.322 507.776,442.693 509.76,445.069 511.744,447.446 513.728,449.823 515.712,452.196 517.696,454.563 519.68,456.924 521.664,459.273 523.648,461.611 525.632,463.933 527.616,466.238 529.6,468.524 531.584,470.789 533.568,473.029 535.552,475.243 537.536,477.429 539.52,475.496 541.504,485.795 543.488,474.228 545.472,490.327 547.456,489.743 549.44,486.174 551.424,486.736 553.408,487.26 555.392,487.743 557.376,488.186 559.36,488.587 561.344,488.948 563.328,489.267 565.312,489.543 567.296,489.778 569.28,489.971 571.264,490.121 573.248,490.228 575.232,490.292 577.216,490.313" stroke="#ecb01f" stroke-linejoin="round" stroke-linecap="butt" stroke-width="0.5"/>
   <polyline fill="none" points="83.2002,408.159 85.1841,407.531 87.168,406.942 89.1519,406.393 91.1362,405.883 93.1201,405.413 95.104,404.984 97.0879,404.596 99.0723,404.25 101.056,403.944 103.04,403.682 105.024,403.461 107.008,403.283 108.992,403.147 110.976,403.054 112.96,403.004 114.944,402.997 116.928,403.033 118.912,403.111 120.896,403.233 122.88,403.397 124.864,403.604 126.848,403.852 128.832,404.143 130.816,404.476 132.8,404.85 134.784,405.266 136.768,405.722 138.752,406.218 140.736,406.755 142.72,407.331 144.704,407.946 146.688,408.599 148.672,408.377 150.656,407.736 152.64,407.134 154.624,406.572 156.608,406.048 158.592,405.565 160.576,405.123 162.56,404.721 164.544,404.36 166.528,404.042 168.512,403.765 170.496,403.53 172.48,403.337 174.464,403.188 176.448,403.081 178.432,403.016 180.416,402.995 182.4,403.016 184.384,403.081 186.368,403.188 188.352,403.337 190.336,403.53 192.32,403.765 194.304,404.042 196.288,404.36 198.272,404.721 200.256,405.123 202.24,405.565 204.224,406.048 206.208,406.572 208.192,407.134 210.176,407.736 212.16,408.377 214.144,419.08 216.128,402.981 218.112,417.812 220.096,410.842 222.08,418.064 224.064,420.279 226.048,422.519 228.032,424.783 230.016,427.069 232,429.375 233.984,431.697 235.968,434.034 237.952,436.384 239.936,438.744 241.92,441.112 243.904,443.485 245.888,445.862 247.872,448.239 249.856,450.614 251.84,452.986 253.824,455.352 255.808,457.708 257.792,460.054 259.776,462.387 261.76,464.704 263.744,467.003 265.728,469.282 267.712,471.539 269.696,473.771 271.68,475.975 273.664,475.884 275.648,482.563 277.632,474.668 279.616,490.327 281.6,487.045 283.584,485.777 285.568,486.366 287.552,486.916 289.536,487.425 291.52,487.895 293.504,488.324 295.488,488.712 297.472,489.059 299.456,489.364 301.44,489.626 303.424,489.847 305.408,490.025 307.392,490.161 309.376,490.254 311.36,490.304 313.344,490.311 315.328,490.275 317.312,490.197 319.296,490.075 321.28,489.912 323.264,489.705 325.248,489.456 327.232,489.165 329.216,488.833 331.2,488.458 333.184,488.043 335.168,487.586 337.152,487.09 339.136,486.553 341.12,485.978 343.104,485.363 345.088,484.709 347.072,484.932 349.056,485.572 351.04,486.174 353.024,486.737 355.008,487.26 356.992,487.743 358.976,488.186 360.96,488.587 362.944,488.948 364.928,489.267 366.912,489.543 368.896,489.778 370.88,489.971 372.864,490.121 374.848,490.228 376.832,490.292 378.816,490.313 380.8,490.292 382.784,490.228 384.768,490.121 386.752,489.971 388.736,489.778 390.72,489.544 392.704,489.267 394.688,488.948 396.672,488.587 398.656,488.186 400.64,487.743 402.624,487.26 404.608,486.737 406.592,486.174 408.576,485.572 410.56,484.932 412.544,474.228 414.528,490.327 416.512,475.496 418.496,482.467 420.48,475.244 422.464,473.03 424.448,470.789 426.432,468.525 428.416,466.239 430.4,463.934 432.384,461.611 434.368,459.274 436.352,456.924 438.336,454.564 440.32,452.197 442.304,449.823 444.288,447.447 446.272,445.07 448.256,442.694 450.24,440.322 452.224,437.957 454.208,435.6 456.192,433.254 458.176,430.922 460.16,428.604 462.144,426.306 464.128,424.027 466.112,421.77 468.096,419.538 470.08,417.333 472.064,417.424 474.048,410.746 476.032,418.641 478.016,402.981 480,406.264 481.984,407.532 483.968,406.942 485.952,406.393 487.936,405.883 489.92,405.413 491.904,404.984 493.888,404.596 495.872,404.25 497.856,403.944 499.84,403.682 501.824,403.461 503.808,403.283 505.792,403.147 507.776,403.054 509.76,403.004 511.744,402.997 513.728,403.033 515.712,403.111 517.696,403.233 519.68,403.397 521.664,403.604 523.648,403.852 525.632,404.143 527.616,404.476 529.6,404.85 531.584,405.266 533.568,405.722 535.552,406.218 537.536,406.755 539.52,407.331 541.504,407.945 543.488,408.599 545.472,408.377 547.456,407.736 549.44,407.135 551.424,406.572 553.408,406.048 555.392,405.565 557.376,405.123 559.36,404.721 561.344,404.36 563.328,404.042 565.312,403.765 567.296,403.53 569.28,403.337 571.264,403.188 573.248,403.081 575.232,403.016 577.216,402.995" stroke="#7d2e8d" stroke-linejoin="round" stroke-linecap="butt" stroke-width="0.5"/>
   <polyline stroke-dasharray="4,4,4,4" fill="none" points="83.2002,380.146 85.1841,366.15 87.168,377.712 89.1519,374.805 91.1362,378.767 93.1201,380.529 95.104,382.356 97.0879,384.247 99.0723,386.2 101.056,388.212 103.04,390.281 105.024,392.407 107.008,394.585 108.992,396.815 110.976,399.094 112.96,401.419 114.944,403.79 116.928,406.202 118.912,408.654 120.896,411.143 122.88,413.667 124.864,416.223 126.848,418.809 128.832,421.422 130.816,424.061 132.8,426.721 134.784,429.4 136.768,432.097 138.752,434.808 140.736,437.53 142.72,436.173 144.704,447.088 146.688,436.173 148.672,453.877 150.656,457.136 152.64,452.217 154.624,457.136 156.608,458.957 158.592,462.112 160.576,464.803 162.56,467.477 164.544,470.13 166.528,472.76 168.512,475.364 170.496,477.941 172.48,480.486 174.464,482.999 176.448,485.476 178.432,487.915 180.416,490.313 182.4,492.669 184.384,494.979 186.368,497.242 188.352,499.455 190.336,501.616 192.32,503.723 194.304,505.774 196.288,507.766 198.272,509.698 200.256,511.568 202.24,513.374 204.224,515.114 206.208,516.338 208.192,518.838 210.176,514.008 212.16,527.294 214.144,522.765 216.128,524.071 218.112,525.301 220.096,526.453 222.08,527.526 224.064,528.519 226.048,529.431 228.032,530.262 230.016,531.011 232,531.676 233.984,532.258 235.968,532.756 237.952,533.168 239.936,533.497 241.92,533.739 243.904,533.896 245.888,533.968 247.872,533.954 249.856,533.854 251.84,533.668 253.824,533.397 255.808,533.041 257.792,532.599 259.776,532.074 261.76,531.464 263.744,530.771 265.728,529.995 267.712,529.136 269.696,528.197 271.68,527.177 273.664,526.078 275.648,524.899 277.632,523.645 279.616,522.313 281.6,515.059 283.584,525.263 285.568,515.596 287.552,518.504 289.536,514.542 291.52,512.78 293.504,510.952 295.488,509.062 297.472,507.109 299.456,505.097 301.44,503.027 303.424,500.902 305.408,498.723 307.392,496.493 309.376,494.214 311.36,491.889 313.344,489.519 315.328,487.106 317.312,484.655 319.296,482.166 321.28,479.642 323.264,477.085 325.248,474.5 327.232,471.886 329.216,469.248 331.2,466.588 333.184,463.908 335.168,461.211 337.152,458.501 339.136,455.778 341.12,457.136 343.104,446.221 345.088,457.136 347.072,439.431 349.056,436.173 351.04,441.092 353.024,436.173 355.008,434.352 356.992,431.197 358.976,428.505 360.96,425.832 362.944,423.179 364.928,420.549 366.912,417.944 368.896,415.368 370.88,412.822 372.864,410.31 374.848,407.833 376.832,405.394 378.816,402.995 380.8,400.64 382.784,398.33 384.768,396.066 386.752,393.854 388.736,391.692 390.72,389.585 392.704,387.535 394.688,385.542 396.672,383.61 398.656,381.74 400.64,379.934 402.624,378.194 404.608,376.971 406.592,374.47 408.576,379.3 410.56,366.015 412.544,370.543 414.528,369.237 416.512,368.008 418.496,366.856 420.48,365.783 422.464,364.79 424.448,363.877 426.432,363.046 428.416,362.297 430.4,361.632 432.384,361.05 434.368,360.553 436.352,360.14 438.336,359.812 440.32,359.569 442.304,359.412 444.288,359.34 446.272,359.354 448.256,359.455 450.24,359.64 452.224,359.912 454.208,360.268 456.192,360.709 458.176,361.235 460.16,361.845 462.144,362.538 464.128,363.314 466.112,364.172 468.096,365.111 470.08,366.131 472.064,367.23 474.048,368.409 476.032,369.664 478.016,370.995 480,378.25 481.984,368.044 483.968,377.712 485.952,374.804 487.936,378.766 489.92,380.528 491.904,382.356 493.888,384.247 495.872,386.199 497.856,388.211 499.84,390.281 501.824,392.406 503.808,394.585 505.792,396.815 507.776,399.094 509.76,401.419 511.744,403.789 513.728,406.202 515.712,408.653 517.696,411.143 519.68,413.667 521.664,416.223 523.648,418.809 525.632,421.422 527.616,424.06 529.6,426.72 531.584,429.4 533.568,432.097 535.552,434.807 537.536,437.53 539.52,436.173 541.504,447.087 543.488,436.173 545.472,453.877 547.456,457.136 549.44,452.215 551.424,457.136 553.408,458.956 555.392,462.111 557.376,464.803 559.36,467.476 561.344,470.129 563.328,472.759 565.312,475.364 567.296,477.94 569.28,480.486 571.264,482.999 573.248,485.476 575.232,487.915 577.216,490.313" stroke="#76ab2f" stroke-linejoin="round" stroke-linecap="butt" stroke-width="0.5"/>
   <polyline stroke-dasharray="4,4,4,4" fill="none" points="83.2002,436.173 85.1841,448.913 87.168,436.173 89.1519,437.981 91.1362,432.999 93.1201,430.297 95.104,427.612 97.0879,424.945 99.0723,422.299 101.056,419.677 103.04,417.082 105.024,414.516 107.008,411.98 108.992,409.479 110.976,407.015 112.96,404.589 114.944,402.205 116.928,399.864 118.912,397.569 120.896,395.323 122.88,393.127 124.864,390.984 126.848,388.895 128.832,386.864 130.816,384.891 132.8,382.979 134.784,381.131 136.768,379.347 138.752,377.629 140.736,375.979 142.72,378.489 144.704,368.803 146.688,381.025 148.672,364.704 150.656,364.646 152.64,367.615 154.624,366.489 156.608,365.442 158.592,364.476 160.576,363.591 162.56,362.788 164.544,362.066 166.528,361.429 168.512,360.875 170.496,360.406 172.48,360.021 174.464,359.721 176.448,359.507 178.432,359.378 180.416,359.335 182.4,359.378 184.384,359.507 186.368,359.721 188.352,360.021 190.336,360.406 192.32,360.875 194.304,361.429 196.288,362.066 198.272,362.788 200.256,363.591 202.24,364.476 204.224,365.442 206.208,366.489 208.192,367.615 210.176,368.818 212.16,370.099 214.144,381.025 216.128,364.272 218.112,378.489 220.096,370.942 222.08,377.629 224.064,379.347 226.048,381.131 228.032,382.979 230.016,384.891 232,386.864 233.984,388.895 235.968,390.983 237.952,393.127 239.936,395.323 241.92,397.569 243.904,399.864 245.888,402.205 247.872,404.589 249.856,407.015 251.84,409.479 253.824,411.98 255.808,414.515 257.792,417.082 259.776,419.677 261.76,422.299 263.744,424.945 265.728,427.612 267.712,430.297 269.696,432.999 271.68,435.714 273.664,436.173 275.648,443.44 277.632,436.173 279.616,452.498 281.6,457.136 283.584,446.291 285.568,457.136 287.552,455.327 289.536,460.309 291.52,463.011 293.504,465.696 295.488,468.363 297.472,471.009 299.456,473.631 301.44,476.226 303.424,478.793 305.408,481.328 307.392,483.829 309.376,486.293 311.36,488.719 313.344,491.104 315.328,493.444 317.312,495.739 319.296,497.985 321.28,500.181 323.264,502.324 325.248,504.413 327.232,506.444 329.216,508.417 331.2,510.329 333.184,512.177 335.168,513.961 337.152,515.679 339.136,517.329 341.12,514.819 343.104,524.504 345.088,512.284 347.072,528.604 349.056,528.661 351.04,525.693 353.024,526.819 355.008,527.866 356.992,528.832 358.976,529.717 360.96,530.521 362.944,531.242 364.928,531.879 366.912,532.433 368.896,532.903 370.88,533.288 372.864,533.587 374.848,533.801 376.832,533.93 378.816,533.973 380.8,533.93 382.784,533.801 384.768,533.587 386.752,533.288 388.736,532.903 390.72,532.434 392.704,531.879 394.688,531.242 396.672,530.521 398.656,529.717 400.64,528.832 402.624,527.866 404.608,526.819 406.592,525.693 408.576,524.49 410.56,523.209 412.544,512.283 414.528,529.036 416.512,514.819 418.496,522.367 420.48,515.68 422.464,513.962 424.448,512.178 426.432,510.329 428.416,508.417 430.4,506.445 432.384,504.413 434.368,502.325 436.352,500.182 438.336,497.986 440.32,495.739 442.304,493.444 444.288,491.104 446.272,488.719 448.256,486.294 450.24,483.829 452.224,481.328 454.208,478.793 456.192,476.227 458.176,473.631 460.16,471.009 462.144,468.364 464.128,465.697 466.112,463.011 468.096,460.31 470.08,457.595 472.064,457.136 474.048,449.869 476.032,457.136 478.016,440.811 480,436.173 481.984,447.019 483.968,436.173 485.952,437.982 487.936,433 489.92,430.298 491.904,427.612 493.888,424.945 495.872,422.3 497.856,419.678 499.84,417.082 501.824,414.516 503.808,411.981 505.792,409.48 507.776,407.015 509.76,404.589 511.744,402.205 513.728,399.864 515.712,397.57 517.696,395.323 519.68,393.127 521.664,390.984 523.648,388.896 525.632,386.864 527.616,384.892 529.6,382.98 531.584,381.131 533.568,379.347 535.552,377.629 537.536,375.98 539.52,378.489 541.504,368.804 543.488,381.024 545.472,364.704 547.456,364.647 549.44,367.615 551.424,366.489 553.408,365.443 555.392,364.477 557.376,363.591 559.36,362.788 561.344,362.066 563.328,361.429 565.312,360.875 567.296,360.406 569.28,360.021 571.264,359.721 573.248,359.507 575.232,359.378 577.216,359.335" stroke="#4cbded" stroke-linejoin="round" stroke-linecap="butt" stroke-width="0.5"/>
   <polyline stroke-dasharray="4,4,4,4" fill="none" points="83.2002,523.644 85.1841,524.899 87.168,526.078 89.1519,527.177 91.1362,528.197 93.1201,529.136 95.104,529.995 97.0879,530.771 99.0723,531.464 101.056,532.073 103.04,532.599 105.024,533.041 107.008,533.397 108.992,533.668 110.976,533.854 112.96,533.954 114.944,533.968 116.928,533.896 118.912,533.739 120.896,533.497 122.88,533.168 124.864,532.756 126.848,532.258 128.832,531.676 130.816,531.011 132.8,530.262 134.784,529.431 136.768,528.519 138.752,527.526 140.736,526.453 142.72,525.301 144.704,524.071 146.688,522.765 148.672,521.381 150.656,518.18 152.64,520.131 154.624,516.337 156.608,515.563 158.592,513.375 160.576,511.568 162.56,509.699 164.544,507.766 166.528,505.774 168.512,503.723 170.496,501.616 172.48,499.455 174.464,497.242 176.448,494.979 178.432,492.669 180.416,490.313 182.4,487.915 184.384,485.476 186.368,482.999 188.352,480.487 190.336,477.941 192.32,475.364 194.304,472.76 196.288,470.13 198.272,467.477 200.256,464.803 202.24,462.112 204.224,459.406 206.208,457.136 208.192,453.509 210.176,457.136 212.16,442.569 214.144,436.173 216.128,451.619 218.112,436.173 220.096,442.567 222.08,434.808 224.064,432.097 226.048,429.4 228.032,426.721 230.016,424.061 232,421.422 233.984,418.809 235.968,416.223 237.952,413.667 239.936,411.143 241.92,408.654 243.904,406.202 245.888,403.79 247.872,401.42 249.856,399.094 251.84,396.815 253.824,394.585 255.808,392.407 257.792,390.281 259.776,388.212 261.76,386.2 263.744,384.247 265.728,382.356 267.712,380.529 269.696,378.767 271.68,377.072 273.664,377.712 275.648,371.623 277.632,380.146 279.616,365.152 281.6,367.768 283.584,368.409 285.568,367.231 287.552,366.131 289.536,365.112 291.52,364.172 293.504,363.314 295.488,362.538 297.472,361.845 299.456,361.235 301.44,360.709 303.424,360.268 305.408,359.912 307.392,359.64 309.376,359.455 311.36,359.354 313.344,359.34 315.328,359.412 317.312,359.569 319.296,359.812 321.28,360.14 323.264,360.553 325.248,361.05 327.232,361.632 329.216,362.297 331.2,363.046 333.184,363.877 335.168,364.79 337.152,365.783 339.136,366.855 341.12,368.007 343.104,369.237 345.088,370.543 347.072,371.927 349.056,375.128 351.04,373.177 353.024,376.971 355.008,377.745 356.992,379.934 358.976,381.74 360.96,383.61 362.944,385.542 364.928,387.534 366.912,389.585 368.896,391.692 370.88,393.853 372.864,396.066 374.848,398.329 376.832,400.639 378.816,402.995 380.8,405.393 382.784,407.832 384.768,410.309 386.752,412.821 388.736,415.367 390.72,417.943 392.704,420.548 394.688,423.178 396.672,425.832 398.656,428.505 400.64,431.196 402.624,433.902 404.608,436.173 406.592,439.798 408.576,436.173 410.56,450.739 412.544,457.136 414.528,441.689 416.512,457.136 418.496,450.74 420.48,458.5 422.464,461.211 424.448,463.908 426.432,466.587 428.416,469.248 430.4,471.885 432.384,474.499 434.368,477.085 436.352,479.641 438.336,482.165 440.32,484.654 442.304,487.106 444.288,489.518 446.272,491.888 448.256,494.214 450.24,496.493 452.224,498.723 454.208,500.901 456.192,503.026 458.176,505.096 460.16,507.108 462.144,509.061 464.128,510.952 466.112,512.779 468.096,514.542 470.08,516.236 472.064,515.596 474.048,521.685 476.032,513.163 478.016,528.157 480,525.54 481.984,524.899 483.968,526.077 485.952,527.177 487.936,528.197 489.92,529.136 491.904,529.994 493.888,530.771 495.872,531.463 497.856,532.073 499.84,532.599 501.824,533.041 503.808,533.397 505.792,533.668 507.776,533.854 509.76,533.954 511.744,533.968 513.728,533.896 515.712,533.739 517.696,533.497 519.68,533.169 521.664,532.756 523.648,532.258 525.632,531.676 527.616,531.011 529.6,530.262 531.584,529.432 533.568,528.519 535.552,527.526 537.536,526.453 539.52,525.301 541.504,524.071 543.488,522.765 545.472,521.381 547.456,518.179 549.44,520.132 551.424,516.337 553.408,515.564 555.392,513.375 557.376,511.569 559.36,509.699 561.344,507.767 563.328,505.774 565.312,503.724 567.296,501.617 569.28,499.456 571.264,497.243 573.248,494.979 575.232,492.669 577.216,490.314" stroke="#a1132e" stroke-linejoin="round" stroke-linecap="butt" stroke-width="0.5"/>
  </g>
  <clipPath id="cp00640600">
   <polygon points="0,600 640,600 640,0 0,0"/>
  </clipPath>
  <g clip-path="url(#cp00640600)">
   <polygon fill="#ffffff" points="506.077,527.85 567.015,527.85 567.015,374.54 506.077,374.54" shape-rendering="crispEdges"/>
   <polyline stroke-dasharray="16,0" fill="none" points="506.077,527.85 567.015,527.85" stroke="#262626" stroke-linejoin="miter" stroke-linecap="square" stroke-width="0.5"/>
   <polyline stroke-dasharray="16,0" fill="none" points="506.077,374.54 567.015,374.54" stroke="#262626" stroke-linejoin="miter" stroke-linecap="square" stroke-width="0.5"/>
   <polyline stroke-dasharray="16,0" fill="none" points="506.077,527.85 506.077,374.54" stroke="#262626" stroke-linejoin="miter" stroke-linecap="square" stroke-width="0.5"/>
   <polyline stroke-dasharray="16,0" fill="none" points="567.015,527.85 567.015,374.54" stroke="#262626" stroke-linejoin="miter" stroke-linecap="square" stroke-width="0.5"/>
   <text font-family="FreeSans" font-style="normal" font-weight="normal" xml:space="preserve" transform="translate(536.032,390.49) rotate(-0,-0,-5)" font-size="9">
    <tspan x="0 5 10 15 19 " y="-2" fill="rgb(0,0,0)">phase</tspan>
   </text>
   <text font-family="FreeSans" font-style="normal" font-weight="normal" xml:space="preserve" transform="translate(536.032,411.392) rotate(-0,-0,-4)" font-size="9">
    <tspan x="0 6 " y="-0" fill="rgb(0,0,0)">Va</tspan>
   </text>
   <text font-family="FreeSans" font-style="normal" font-weight="normal" xml:space="preserve" transform="translate(536.032,433.293) rotate(-0,-0,-4)" font-size="9">
    <tspan x="0 6 " y="-0" fill="rgb(0,0,0)">Vb</tspan>
   </text>
   <text font-family="FreeSans" font-style="normal" font-weight="normal" xml:space="preserve" transform="translate(536.032,455.195) rotate(-0,-0,-4)" font-size="9">
    <tspan x="0 6 " y="-0" fill="rgb(0,0,0)">Vc</tspan>
   </text>
   <text font-family="FreeSans" font-style="normal" font-weight="normal" xml:space="preserve" transform="translate(536.032,477.096) rotate(-0,-0,-4)" font-size="9">
    <tspan x="0 6 11 " y="-0" fill="rgb(0,0,0)">Vab</tspan>
   </text>
   <text font-family="FreeSans" font-style="normal" font-weight="normal" xml:space="preserve" transform="translate(536.032,498.998) rotate(-0,-0,-4)" font-size="9">
    <tspan x="0 6 11 " y="-0" fill="rgb(0,0,0)">Vbc</tspan>
   </text>
   <text font-family="FreeSans" font-style="normal" font-weight="normal" xml:space="preserve" transform="translate(536.032,520.899) rotate(-0,-0,-4)" font-size="9">
    <tspan x="0 6 11 " y="-0" fill="rgb(0,0,0)">Vca</tspan>
   </text>
   <polyline stroke-dasharray="1,1,1,1,1,1,1,1,1,1" fill="none" points="509.631,385.49 532.479,385.49" stroke="#0071bc" stroke-linejoin="round" stroke-linecap="butt" stroke-width="0.5"/>
   <polyline fill="none" points="509.631,407.392 532.479,407.392" stroke="#d85218" stroke-linejoin="round" stroke-linecap="butt" stroke-width="0.5"/>
   <polyline fill="none" points="509.631,429.293 532.479,429.293" stroke="#ecb01f" stroke-linejoin="round" stroke-linecap="butt" stroke-width="0.5"/>
   <polyline fill="none" points="509.631,451.195 532.479,451.195" stroke="#7d2e8d" stroke-linejoin="round" stroke-linecap="butt" stroke-width="0.5"/>
   <polyline stroke-dasharray="4,4,4,4" fill="none" points="509.631,473.096 532.479,473.096" stroke="#76ab2f" stroke-linejoin="round" stroke-linecap="butt" stroke-width="0.5"/>
   <polyline stroke-dasharray="4,4,4,4" fill="none" points="509.631,494.998 532.479,494.998" stroke="#4cbded" stroke-linejoin="round" stroke-linecap="butt" stroke-width="0.5"/>
   <polyline stroke-dasharray="4,4,4,4" fill="none" points="509.631,516.899 532.479,516.899" stroke="#a1132e" stroke-linejoin="round" stroke-linecap="butt" stroke-width="0.5"/>
  </g>
 </g>
</svg>
