<?xml version='1.0' encoding='UTF-8' standalone='no'?>
<svg width="640pt" xmlns="http://www.w3.org/2000/svg" height="600pt" viewBox="0 0 640 600" xmlns:xlink="http://www.w3.org/1999/xlink">
 <title>gl2ps_renderer figure</title>
 <desc>
Creator: GL2PS 1.4.0, (C) 1999-2017 C. Geuzaine
For: Octave
CreationDate: Sat Oct  3 00:12:24 2020
</desc>
 <defs/>
 <polygon fill="#ffffff" points="0,0 640,0 640,600 0,600"/>
 <g>
  <polygon fill="#ffffff" points="0,600 640,600 640,0 0,0" shape-rendering="crispEdges"/>
  <clipPath id="cp00640600">
   <polygon points="0,600 640,600 640,0 0,0"/>
  </clipPath>
  <g clip-path="url(#cp00640600)">
   <polygon fill="#ffffff" points="83.2002,166.102 579.2,166.102 579.2,55.5767 83.2002,55.5767" shape-rendering="crispEdges"/>
   <polyline fill="none" points="83.2002,166.102 83.2002,161.163" stroke="#262626" stroke-linejoin="miter" stroke-linecap="butt" stroke-width="0.5"/>
   <polyline fill="none" points="83.2002,55.5767 83.2002,60.5151" stroke="#262626" stroke-linejoin="miter" stroke-linecap="butt" stroke-width="0.5"/>
   <polyline fill="none" points="182.4,166.102 182.4,161.163" stroke="#262626" stroke-linejoin="miter" stroke-linecap="butt" stroke-width="0.5"/>
   <polyline fill="none" points="182.4,55.5767 182.4,60.5151" stroke="#262626" stroke-linejoin="miter" stroke-linecap="butt" stroke-width="0.5"/>
   <polyline fill="none" points="281.6,166.102 281.6,161.163" stroke="#262626" stroke-linejoin="miter" stroke-linecap="butt" stroke-width="0.5"/>
   <polyline fill="none" points="281.6,55.5767 281.6,60.5151" stroke="#262626" stroke-linejoin="miter" stroke-linecap="butt" stroke-width="0.5"/>
   <polyline fill="none" points="380.8,166.102 380.8,161.163" stroke="#262626" stroke-linejoin="miter" stroke-linecap="butt" stroke-width="0.5"/>
   <polyline fill="none" points="380.8,55.5767 380.8,60.5151" stroke="#262626" stroke-linejoin="miter" stroke-linecap="butt" stroke-width="0.5"/>
   <polyline fill="none" points="480,166.102 480,161.163" stroke="#262626" stroke-linejoin="miter" stroke-linecap="butt" stroke-width="0.5"/>
   <polyline fill="none" points="480,55.5767 480,60.5151" stroke="#262626" stroke-linejoin="miter" stroke-linecap="butt" stroke-width="0.5"/>
   <polyline fill="none" points="579.2,166.102 579.2,161.163" stroke="#262626" stroke-linejoin="miter" stroke-linecap="butt" stroke-width="0.5"/>
   <polyline fill="none" points="579.2,55.5767 579.2,60.5151" stroke="#262626" stroke-linejoin="miter" stroke-linecap="butt" stroke-width="0.5"/>
   <text font-family="FreeSans" font-style="normal" font-weight="normal" xml:space="preserve" transform="translate(80.2,181.57) rotate(-0,3,-8)" font-size="10">
    <tspan x="0 " y="-0" fill="rgb(38,38,38)">0</tspan>
   </text>
   <text font-family="FreeSans" font-style="normal" font-weight="normal" xml:space="preserve" transform="translate(171.9,181.57) rotate(-0,10.5,-8)" font-size="10">
    <tspan x="0 6 9 15 " y="-0" fill="rgb(38,38,38)">0.01</tspan>
   </text>
   <text font-family="FreeSans" font-style="normal" font-weight="normal" xml:space="preserve" transform="translate(271.1,181.57) rotate(-0,10.5,-8)" font-size="10">
    <tspan x="0 6 9 15 " y="-0" fill="rgb(38,38,38)">0.02</tspan>
   </text>
   <text font-family="FreeSans" font-style="normal" font-weight="normal" xml:space="preserve" transform="translate(370.3,181.57) rotate(-0,10.5,-8)" font-size="10">
    <tspan x="0 6 9 15 " y="-0" fill="rgb(38,38,38)">0.03</tspan>
   </text>
   <text font-family="FreeSans" font-style="normal" font-weight="normal" xml:space="preserve" transform="translate(469.5,181.57) rotate(-0,10.5,-8)" font-size="10">
    <tspan x="0 6 9 15 " y="-0" fill="rgb(38,38,38)">0.04</tspan>
   </text>
   <text font-family="FreeSans" font-style="normal" font-weight="normal" xml:space="preserve" transform="translate(568.7,181.57) rotate(-0,10.5,-8)" font-size="10">
    <tspan x="0 6 9 15 " y="-0" fill="rgb(38,38,38)">0.05</tspan>
   </text>
   <polyline fill="none" points="83.2002,166.102 88.1602,166.102" stroke="#262626" stroke-linejoin="miter" stroke-linecap="butt" stroke-width="0.5"/>
   <polyline fill="none" points="579.2,166.102 574.24,166.102" stroke="#262626" stroke-linejoin="miter" stroke-linecap="butt" stroke-width="0.5"/>
   <polyline fill="none" points="83.2002,138.471 88.1602,138.471" stroke="#262626" stroke-linejoin="miter" stroke-linecap="butt" stroke-width="0.5"/>
   <polyline fill="none" points="579.2,138.471 574.24,138.471" stroke="#262626" stroke-linejoin="miter" stroke-linecap="butt" stroke-width="0.5"/>
   <polyline fill="none" points="83.2002,110.839 88.1602,110.839" stroke="#262626" stroke-linejoin="miter" stroke-linecap="butt" stroke-width="0.5"/>
   <polyline fill="none" points="579.2,110.839 574.24,110.839" stroke="#262626" stroke-linejoin="miter" stroke-linecap="butt" stroke-width="0.5"/>
   <polyline fill="none" points="83.2002,83.208 88.1602,83.208" stroke="#262626" stroke-linejoin="miter" stroke-linecap="butt" stroke-width="0.5"/>
   <polyline fill="none" points="579.2,83.208 574.24,83.208" stroke="#262626" stroke-linejoin="miter" stroke-linecap="butt" stroke-width="0.5"/>
   <polyline fill="none" points="83.2002,55.5767 88.1602,55.5767" stroke="#262626" stroke-linejoin="miter" stroke-linecap="butt" stroke-width="0.5"/>
   <polyline fill="none" points="579.2,55.5767 574.24,55.5767" stroke="#262626" stroke-linejoin="miter" stroke-linecap="butt" stroke-width="0.5"/>
   <text font-family="FreeSans" font-style="normal" font-weight="normal" xml:space="preserve" transform="translate(69.2,170.102) rotate(-0,9,-4)" font-size="10">
    <tspan x="0 3 " y="-0" fill="rgb(38,38,38)">-1</tspan>
   </text>
   <text font-family="FreeSans" font-style="normal" font-weight="normal" xml:space="preserve" transform="translate(60.2,142.471) rotate(-0,18,-4)" font-size="10">
    <tspan x="0 3 9 12 " y="-0" fill="rgb(38,38,38)">-0.5</tspan>
   </text>
   <text font-family="FreeSans" font-style="normal" font-weight="normal" xml:space="preserve" transform="translate(72.2,114.839) rotate(-0,6,-4)" font-size="10">
    <tspan x="0 " y="-0" fill="rgb(38,38,38)">0</tspan>
   </text>
   <text font-family="FreeSans" font-style="normal" font-weight="normal" xml:space="preserve" transform="translate(63.2,87.2078) rotate(-0,15,-4)" font-size="10">
    <tspan x="0 6 9 " y="-0" fill="rgb(38,38,38)">0.5</tspan>
   </text>
   <text font-family="FreeSans" font-style="normal" font-weight="normal" xml:space="preserve" transform="translate(72.2,59.5764) rotate(-0,6,-4)" font-size="10">
    <tspan x="0 " y="-0" fill="rgb(38,38,38)">1</tspan>
   </text>
   <polyline stroke-dasharray="16,0" fill="none" points="83.2002,166.102 579.2,166.102" stroke="#262626" stroke-linejoin="miter" stroke-linecap="square" stroke-width="0.5"/>
   <polyline stroke-dasharray="16,0" fill="none" points="83.2002,55.5767 579.2,55.5767" stroke="#262626" stroke-linejoin="miter" stroke-linecap="square" stroke-width="0.5"/>
   <polyline stroke-dasharray="16,0" fill="none" points="83.2002,166.102 83.2002,55.5767" stroke="#262626" stroke-linejoin="miter" stroke-linecap="square" stroke-width="0.5"/>
   <polyline stroke-dasharray="16,0" fill="none" points="579.2,166.102 579.2,55.5767" stroke="#262626" stroke-linejoin="miter" stroke-linecap="square" stroke-width="0.5"/>
   <text font-family="FreeSans" font-style="normal" font-weight="bold" xml:space="preserve" transform="translate(302.7,45.5764) rotate(-0,28.5,0)" font-size="11">
    <tspan x="0 9 16 22 25 32 39 45 51 " y="-3" fill="rgb(0,0,0)">One phase</tspan>
   </text>
   <text font-family="FreeSans" font-style="normal" font-weight="normal" xml:space="preserve" transform="translate(44.7,110.839) rotate(-90,10.5,0)" font-size="11">
    <tspan x="0 8 11 14 " y="-2" fill="rgb(38,38,38)">U, V</tspan>
   </text>
   <text font-family="FreeSans" font-style="normal" font-weight="normal" xml:space="preserve" transform="translate(323.2,197.57) rotate(-0,8,-11)" font-size="11">
    <tspan x="0 3 6 9 " y="-2" fill="rgb(38,38,38)">t, S</tspan>
   </text>
   <polyline stroke-dasharray="1,1,1,1,1,1,1,1,1,1" fill="none" points="83.2002,110.287 85.1841,109.734 87.168,109.181 89.1519,108.628 91.1362,108.076 93.1201,107.523 95.104,106.971 97.0879,106.418 99.0723,105.866 101.056,105.313 103.04,104.76 105.024,104.208 107.008,103.655 108.992,103.103 110.976,102.55 112.96,101.997 114.944,101.444 116.928,100.892 118.912,100.339 120.896,99.7866 122.88,99.2339 124.864,98.6812 126.848,98.1289 128.832,97.5762 130.816,97.0234 132.8,96.4707 134.784,95.9185 136.768,95.3657 138.752,94.813 140.736,94.2603 142.72,93.7075 144.704,93.1553 146.688,92.6025 148.672,92.0498 150.656,91.4971 152.64,90.9443 154.624,90.3921 156.608,89.8394 158.592,89.2866 160.576,88.7339 162.56,88.1816 164.544,87.6289 166.528,87.0762 168.512,86.5234 170.496,85.9707 172.48,85.4185 174.464,84.8657 176.448,84.313 178.432,83.7603 180.416,83.208 182.4,82.6553 184.384,82.1025 186.368,81.5498 188.352,80.9971 190.336,80.4448 192.32,79.8921 194.304,79.3394 196.288,78.7866 198.272,78.2339 200.256,77.6816 202.24,77.1289 204.224,76.5762 206.208,76.0234 208.192,75.4712 210.176,74.9185 212.16,74.3657 214.144,73.813 216.128,73.2603 218.112,72.708 220.096,72.1553 222.08,71.6025 224.064,71.0498 226.048,70.4976 228.032,69.9448 230.016,69.3921 232,68.8394 233.984,68.2866 235.968,67.7344 237.952,67.1816 239.936,66.6289 241.92,66.0762 243.904,65.5239 245.888,64.9712 247.872,64.4185 249.856,63.8657 251.84,63.3135 253.824,62.7607 255.808,62.208 257.792,61.6553 259.776,61.1025 261.76,60.5503 263.744,59.9976 265.728,59.4448 267.712,58.8921 269.696,58.3398 271.68,57.7871 273.664,57.2344 275.648,56.6816 277.632,56.1289 279.616,55.5767 281.6,110.287 283.584,109.734 285.568,109.181 287.552,108.629 289.536,108.076 291.52,107.523 293.504,106.971 295.488,106.418 297.472,105.866 299.456,105.313 301.44,104.76 303.424,104.208 305.408,103.655 307.392,103.103 309.376,102.55 311.36,101.997 313.344,101.444 315.328,100.892 317.312,100.339 319.296,99.7866 321.28,99.2339 323.264,98.6812 325.248,98.1289 327.232,97.5762 329.216,97.0234 331.2,96.4707 333.184,95.9185 335.168,95.3657 337.152,94.813 339.136,94.2603 341.12,93.7075 343.104,93.1553 345.088,92.6025 347.072,92.0498 349.056,91.4971 351.04,90.9448 353.024,90.3921 355.008,89.8394 356.992,89.2866 358.976,88.7339 360.96,88.1816 362.944,87.6289 364.928,87.0762 366.912,86.5234 368.896,85.9712 370.88,85.4185 372.864,84.8657 374.848,84.313 376.832,83.7603 378.816,83.208 380.8,82.6553 382.784,82.1025 384.768,81.5498 386.752,80.9976 388.736,80.4448 390.72,79.8921 392.704,79.3394 394.688,78.7866 396.672,78.2344 398.656,77.6816 400.64,77.1289 402.624,76.5762 404.608,76.0239 406.592,75.4712 408.576,74.9185 410.56,74.3657 412.544,73.813 414.528,73.2607 416.512,72.708 418.496,72.1553 420.48,71.6025 422.464,71.0498 424.448,70.4976 426.432,69.9448 428.416,69.3921 430.4,68.8394 432.384,68.2871 434.368,67.7344 436.352,67.1816 438.336,66.6289 440.32,66.0762 442.304,65.5239 444.288,64.9712 446.272,64.4185 448.256,63.8657 450.24,63.3135 452.224,62.7607 454.208,62.208 456.192,61.6553 458.176,61.1025 460.16,60.5503 462.144,59.9976 464.128,59.4448 466.112,58.8921 468.096,58.3398 470.08,57.7871 472.064,57.2344 474.048,56.6816 476.032,56.1289 478.016,55.5767 480,110.287 481.984,109.734 483.968,109.181 485.952,108.629 487.936,108.076 489.92,107.523 491.904,106.971 493.888,106.418 495.872,105.866 497.856,105.313 499.84,104.76 501.824,104.208 503.808,103.655 505.792,103.103 507.776,102.55 509.76,101.997 511.744,101.444 513.728,100.892 515.712,100.339 517.696,99.7866 519.68,99.2339 521.664,98.6812 523.648,98.1289 525.632,97.5762 527.616,97.0234 529.6,96.4707 531.584,95.9185 533.568,95.3657 535.552,94.813 537.536,94.2603 539.52,93.7075 541.504,93.1553 543.488,92.6025 545.472,92.0498 547.456,91.4971 549.44,90.9448 551.424,90.3921 553.408,89.8394 555.392,89.2866 557.376,88.7339 559.36,88.1816 561.344,87.6289 563.328,87.0762 565.312,86.5234 567.296,85.9712 569.28,85.4185 571.264,84.8657 573.248,84.313 575.232,83.7603 577.216,83.208" stroke="#0071bc" stroke-linejoin="round" stroke-linecap="butt" stroke-width="0.5"/>
   <polyline fill="none" points="83.2002,107.372 85.1841,103.917 87.168,100.491 89.1519,97.104 91.1362,93.7715 93.1201,90.5054 95.104,87.3193 97.0879,84.2251 99.0723,81.2358 101.056,78.3623 103.04,75.6172 105.024,73.0103 107.008,70.5527 108.992,68.2544 110.976,66.124 112.96,64.1709 114.944,62.4023 116.928,60.8252 118.912,59.4468 120.896,58.2715 122.88,57.3047 124.864,56.5498 126.848,56.0093 128.832,55.6846 130.816,55.5767 132.8,55.6846 134.784,56.0093 136.768,56.5498 138.752,57.3047 140.736,58.2715 142.72,59.4468 144.704,60.8252 146.688,62.4023 148.672,64.1709 150.656,66.124 152.64,68.2544 154.624,70.5527 156.608,73.0103 158.592,75.6172 160.576,78.3623 162.56,81.2358 164.544,84.2251 166.528,87.3188 168.512,90.5054 170.496,93.771 172.48,97.104 174.464,100.49 176.448,103.917 178.432,107.372 180.416,110.839 182.4,114.307 184.384,117.761 186.368,121.188 188.352,124.574 190.336,127.907 192.32,131.173 194.304,134.359 196.288,137.453 198.272,140.442 200.256,143.316 202.24,146.061 204.224,148.668 206.208,151.125 208.192,153.424 210.176,155.554 212.16,157.507 214.144,159.276 216.128,160.853 218.112,162.231 220.096,163.407 222.08,164.374 224.064,165.128 226.048,165.669 228.032,165.994 230.016,166.102 232,165.994 233.984,165.669 235.968,165.128 237.952,164.374 239.936,163.407 241.92,162.231 243.904,160.853 245.888,159.276 247.872,157.508 249.856,155.554 251.84,153.424 253.824,151.125 255.808,148.668 257.792,146.062 259.776,143.316 261.76,140.443 263.744,137.453 265.728,134.359 267.712,131.173 269.696,127.907 271.68,124.575 273.664,121.188 275.648,117.761 277.632,114.307 279.616,110.839 281.6,107.372 283.584,103.917 285.568,100.491 287.552,97.104 289.536,93.7715 291.52,90.5054 293.504,87.3193 295.488,84.2256 297.472,81.2358 299.456,78.3628 301.44,75.6172 303.424,73.0107 305.408,70.5532 307.392,68.2544 309.376,66.1245 311.36,64.1709 313.344,62.4023 315.328,60.8257 317.312,59.4468 319.296,58.272 321.28,57.3047 323.264,56.5498 325.248,56.0093 327.232,55.6846 329.216,55.5767 331.2,55.6846 333.184,56.0093 335.168,56.5498 337.152,57.3047 339.136,58.2715 341.12,59.4468 343.104,60.8252 345.088,62.4019 347.072,64.1709 349.056,66.124 351.04,68.2544 353.024,70.5527 355.008,73.0103 356.992,75.6172 358.976,78.3623 360.96,81.2354 362.944,84.2251 364.928,87.3188 366.912,90.5049 368.896,93.771 370.88,97.1035 372.864,100.49 374.848,103.917 376.832,107.371 378.816,110.839 380.8,114.307 382.784,117.761 384.768,121.188 386.752,124.574 388.736,127.907 390.72,131.173 392.704,134.359 394.688,137.453 396.672,140.442 398.656,143.315 400.64,146.061 402.624,148.667 404.608,151.125 406.592,153.424 408.576,155.554 410.56,157.507 412.544,159.276 414.528,160.853 416.512,162.231 418.496,163.407 420.48,164.374 422.464,165.128 424.448,165.669 426.432,165.994 428.416,166.102 430.4,165.994 432.384,165.669 434.368,165.128 436.352,164.374 438.336,163.407 440.32,162.232 442.304,160.853 444.288,159.276 446.272,157.508 448.256,155.554 450.24,153.424 452.224,151.125 454.208,148.668 456.192,146.062 458.176,143.316 460.16,140.443 462.144,137.454 464.128,134.359 466.112,131.173 468.096,127.908 470.08,124.575 472.064,121.188 474.048,117.761 476.032,114.307 478.016,110.839 480,107.372 481.984,103.918 483.968,100.491 485.952,97.1045 487.936,93.7715 489.92,90.5059 491.904,87.3193 493.888,84.2256 495.872,81.2358 497.856,78.3628 499.84,75.6177 501.824,73.0107 503.808,70.5532 505.792,68.2549 507.776,66.1245 509.76,64.1709 511.744,62.4023 513.728,60.8257 515.712,59.4468 517.696,58.272 519.68,57.3052 521.664,56.5498 523.648,56.0093 525.632,55.6846 527.616,55.5767 529.6,55.6846 531.584,56.0093 533.568,56.5498 535.552,57.3047 537.536,58.2715 539.52,59.4468 541.504,60.8252 543.488,62.4019 545.472,64.1704 547.456,66.124 549.44,68.2539 551.424,70.5527 553.408,73.0103 555.392,75.6167 557.376,78.3623 559.36,81.2354 561.344,84.2246 563.328,87.3188 565.312,90.5049 567.296,93.771 569.28,97.1035 571.264,100.49 573.248,103.917 575.232,107.371 577.216,110.839" stroke="#d85218" stroke-linejoin="round" stroke-linecap="butt" stroke-width="0.5"/>
   <polyline stroke-dasharray="8,2,4,2,8,2,4,2" fill="none" points="83.2002,110.622 85.1841,109.972 87.168,108.901 89.1519,107.425 91.1362,105.568 93.1201,103.357 95.104,100.829 97.0879,98.022 99.0723,94.981 101.056,91.7534 103.04,88.3901 105.024,84.9443 107.008,81.4707 108.992,78.0239 110.976,74.6587 112.96,71.4287 114.944,68.3848 116.928,65.5757 118.912,63.0459 120.896,60.8354 122.88,58.979 124.864,57.5059 126.848,56.4385 128.832,55.7925 130.816,55.5767 132.8,55.7925 134.784,56.4385 136.768,57.5059 138.752,58.979 140.736,60.8354 142.72,63.0459 144.704,65.5757 146.688,68.3848 148.672,71.4287 150.656,74.6587 152.64,78.0239 154.624,81.4707 156.608,84.9443 158.592,88.3901 160.576,91.7534 162.56,94.981 164.544,98.022 166.528,100.829 168.512,103.357 170.496,105.568 172.48,107.425 174.464,108.901 176.448,109.972 178.432,110.622 180.416,110.839 182.4,110.622 184.384,109.972 186.368,108.901 188.352,107.425 190.336,105.568 192.32,103.357 194.304,100.829 196.288,98.022 198.272,94.981 200.256,91.7534 202.24,88.3901 204.224,84.9448 206.208,81.4707 208.192,78.0239 210.176,74.6587 212.16,71.4287 214.144,68.3848 216.128,65.5757 218.112,63.0459 220.096,60.8354 222.08,58.9795 224.064,57.5059 226.048,56.4385 228.032,55.7925 230.016,55.5767 232,55.7925 233.984,56.4385 235.968,57.5059 237.952,58.979 239.936,60.8354 241.92,63.0459 243.904,65.5757 245.888,68.3848 247.872,71.4282 249.856,74.6587 251.84,78.0239 253.824,81.4707 255.808,84.9443 257.792,88.3901 259.776,91.7534 261.76,94.981 263.744,98.022 265.728,100.829 267.712,103.357 269.696,105.567 271.68,107.425 273.664,108.901 275.648,109.972 277.632,110.622 279.616,110.839 281.6,110.622 283.584,109.972 285.568,108.901 287.552,107.425 289.536,105.568 291.52,103.357 293.504,100.829 295.488,98.0225 297.472,94.981 299.456,91.7534 301.44,88.3906 303.424,84.9448 305.408,81.4707 307.392,78.0239 309.376,74.6592 311.36,71.4287 313.344,68.3848 315.328,65.5757 317.312,63.0459 319.296,60.8354 321.28,58.9795 323.264,57.5059 325.248,56.4385 327.232,55.7925 329.216,55.5767 331.2,55.7925 333.184,56.4385 335.168,57.5059 337.152,58.979 339.136,60.8354 341.12,63.0459 343.104,65.5757 345.088,68.3848 347.072,71.4282 349.056,74.6587 351.04,78.0239 353.024,81.4707 355.008,84.9443 356.992,88.3901 358.976,91.7529 360.96,94.981 362.944,98.022 364.928,100.829 366.912,103.357 368.896,105.567 370.88,107.425 372.864,108.901 374.848,109.972 376.832,110.622 378.816,110.839 380.8,110.622 382.784,109.972 384.768,108.901 386.752,107.425 388.736,105.568 390.72,103.357 392.704,100.829 394.688,98.0225 396.672,94.9814 398.656,91.7534 400.64,88.3906 402.624,84.9448 404.608,81.4712 406.592,78.0244 408.576,74.6592 410.56,71.4287 412.544,68.3853 414.528,65.5762 416.512,63.0459 418.496,60.8354 420.48,58.9795 422.464,57.5063 424.448,56.4385 426.432,55.7925 428.416,55.5767 430.4,55.7925 432.384,56.4385 434.368,57.5059 436.352,58.979 438.336,60.8354 440.32,63.0459 442.304,65.5752 444.288,68.3843 446.272,71.4282 448.256,74.6582 450.24,78.0234 452.224,81.4702 454.208,84.9438 456.192,88.3896 458.176,91.7529 460.16,94.9805 462.144,98.022 464.128,100.829 466.112,103.357 468.096,105.567 470.08,107.425 472.064,108.901 474.048,109.972 476.032,110.622 478.016,110.839 480,110.622 481.984,109.972 483.968,108.901 485.952,107.426 487.936,105.568 489.92,103.357 491.904,100.829 493.888,98.0225 495.872,94.9814 497.856,91.7539 499.84,88.3906 501.824,84.9448 503.808,81.4712 505.792,78.0244 507.776,74.6592 509.76,71.4292 511.744,68.3853 513.728,65.5762 515.712,63.0464 517.696,60.8359 519.68,58.9795 521.664,57.5063 523.648,56.4385 525.632,55.7925 527.616,55.5767 529.6,55.7925 531.584,56.4385 533.568,57.5059 535.552,58.979 537.536,60.8354 539.52,63.0454 541.504,65.5752 543.488,68.3843 545.472,71.4282 547.456,74.6582 549.44,78.0234 551.424,81.4702 553.408,84.9438 555.392,88.3896 557.376,91.7529 559.36,94.9805 561.344,98.0215 563.328,100.829 565.312,103.357 567.296,105.567 569.28,107.425 571.264,108.901 573.248,109.972 575.232,110.622 577.216,110.839" stroke="#ecb01f" stroke-linejoin="round" stroke-linecap="butt" stroke-width="1.5"/>
  </g>
  <clipPath id="cp00640600">
   <polygon points="0,600 640,600 640,0 0,0"/>
  </clipPath>
  <g clip-path="url(#cp00640600)">
   <polygon fill="#ffffff" points="506.077,125.936 567.015,125.936 567.015,60.2314 506.077,60.2314" shape-rendering="crispEdges"/>
   <polyline stroke-dasharray="16,0" fill="none" points="506.077,125.936 567.015,125.936" stroke="#262626" stroke-linejoin="miter" stroke-linecap="square" stroke-width="0.5"/>
   <polyline stroke-dasharray="16,0" fill="none" points="506.077,60.2314 567.015,60.2314" stroke="#262626" stroke-linejoin="miter" stroke-linecap="square" stroke-width="0.5"/>
   <polyline stroke-dasharray="16,0" fill="none" points="506.077,125.936 506.077,60.2314" stroke="#262626" stroke-linejoin="miter" stroke-linecap="square" stroke-width="0.5"/>
   <polyline stroke-dasharray="16,0" fill="none" points="567.015,125.936 567.015,60.2314" stroke="#262626" stroke-linejoin="miter" stroke-linecap="square" stroke-width="0.5"/>
   <text font-family="FreeSans" font-style="normal" font-weight="normal" xml:space="preserve" transform="translate(536.032,76.1822) rotate(-0,-0,-5)" font-size="9">
    <tspan x="0 5 10 15 19 " y="-2" fill="rgb(0,0,0)">phase</tspan>
   </text>
   <text font-family="FreeSans" font-style="normal" font-weight="normal" xml:space="preserve" transform="translate(536.032,97.0836) rotate(-0,-0,-4)" font-size="9">
    <tspan x="0 6 " y="-0" fill="rgb(0,0,0)">Va</tspan>
   </text>
   <text font-family="FreeSans" font-style="normal" font-weight="normal" xml:space="preserve" transform="translate(536.032,119.985) rotate(-0,-0,-5)" font-size="9">
    <tspan x="0 6 9 11 " y="-2" fill="rgb(0,0,0)">P, W</tspan>
   </text>
   <polyline stroke-dasharray="1,1,1,1,1,1,1,1,1,1" fill="none" points="509.631,71.1821 532.479,71.1821" stroke="#0071bc" stroke-linejoin="round" stroke-linecap="butt" stroke-width="0.5"/>
   <polyline fill="none" points="509.631,93.0835 532.479,93.0835" stroke="#d85218" stroke-linejoin="round" stroke-linecap="butt" stroke-width="0.5"/>
   <polyline stroke-dasharray="8,2,4,2,8,2,4,2" fill="none" points="509.631,114.985 532.479,114.985" stroke="#ecb01f" stroke-linejoin="round" stroke-linecap="butt" stroke-width="1.5"/>
  </g>
  <clipPath id="cp00640600">
   <polygon points="0,600 640,600 640,0 0,0"/>
  </clipPath>
  <g clip-path="url(#cp00640600)">
   <polygon fill="#ffffff" points="83.2002,350.051 579.2,350.051 579.2,239.525 83.2002,239.525" shape-rendering="crispEdges"/>
   <polyline fill="none" points="83.2002,350.051 83.2002,345.112" stroke="#262626" stroke-linejoin="miter" stroke-linecap="butt" stroke-width="0.5"/>
   <polyline fill="none" points="83.2002,239.525 83.2002,244.464" stroke="#262626" stroke-linejoin="miter" stroke-linecap="butt" stroke-width="0.5"/>
   <polyline fill="none" points="182.4,350.051 182.4,345.112" stroke="#262626" stroke-linejoin="miter" stroke-linecap="butt" stroke-width="0.5"/>
   <polyline fill="none" points="182.4,239.525 182.4,244.464" stroke="#262626" stroke-linejoin="miter" stroke-linecap="butt" stroke-width="0.5"/>
   <polyline fill="none" points="281.6,350.051 281.6,345.112" stroke="#262626" stroke-linejoin="miter" stroke-linecap="butt" stroke-width="0.5"/>
   <polyline fill="none" points="281.6,239.525 281.6,244.464" stroke="#262626" stroke-linejoin="miter" stroke-linecap="butt" stroke-width="0.5"/>
   <polyline fill="none" points="380.8,350.051 380.8,345.112" stroke="#262626" stroke-linejoin="miter" stroke-linecap="butt" stroke-width="0.5"/>
   <polyline fill="none" points="380.8,239.525 380.8,244.464" stroke="#262626" stroke-linejoin="miter" stroke-linecap="butt" stroke-width="0.5"/>
   <polyline fill="none" points="480,350.051 480,345.112" stroke="#262626" stroke-linejoin="miter" stroke-linecap="butt" stroke-width="0.5"/>
   <polyline fill="none" points="480,239.525 480,244.464" stroke="#262626" stroke-linejoin="miter" stroke-linecap="butt" stroke-width="0.5"/>
   <polyline fill="none" points="579.2,350.051 579.2,345.112" stroke="#262626" stroke-linejoin="miter" stroke-linecap="butt" stroke-width="0.5"/>
   <polyline fill="none" points="579.2,239.525 579.2,244.464" stroke="#262626" stroke-linejoin="miter" stroke-linecap="butt" stroke-width="0.5"/>
   <text font-family="FreeSans" font-style="normal" font-weight="normal" xml:space="preserve" transform="translate(80.2,365.519) rotate(-0,3,-8)" font-size="10">
    <tspan x="0 " y="-0" fill="rgb(38,38,38)">0</tspan>
   </text>
   <text font-family="FreeSans" font-style="normal" font-weight="normal" xml:space="preserve" transform="translate(171.9,365.519) rotate(-0,10.5,-8)" font-size="10">
    <tspan x="0 6 9 15 " y="-0" fill="rgb(38,38,38)">0.01</tspan>
   </text>
   <text font-family="FreeSans" font-style="normal" font-weight="normal" xml:space="preserve" transform="translate(271.1,365.519) rotate(-0,10.5,-8)" font-size="10">
    <tspan x="0 6 9 15 " y="-0" fill="rgb(38,38,38)">0.02</tspan>
   </text>
   <text font-family="FreeSans" font-style="normal" font-weight="normal" xml:space="preserve" transform="translate(370.3,365.519) rotate(-0,10.5,-8)" font-size="10">
    <tspan x="0 6 9 15 " y="-0" fill="rgb(38,38,38)">0.03</tspan>
   </text>
   <text font-family="FreeSans" font-style="normal" font-weight="normal" xml:space="preserve" transform="translate(469.5,365.519) rotate(-0,10.5,-8)" font-size="10">
    <tspan x="0 6 9 15 " y="-0" fill="rgb(38,38,38)">0.04</tspan>
   </text>
   <text font-family="FreeSans" font-style="normal" font-weight="normal" xml:space="preserve" transform="translate(568.7,365.519) rotate(-0,10.5,-8)" font-size="10">
    <tspan x="0 6 9 15 " y="-0" fill="rgb(38,38,38)">0.05</tspan>
   </text>
   <polyline fill="none" points="83.2002,350.051 88.1602,350.051" stroke="#262626" stroke-linejoin="miter" stroke-linecap="butt" stroke-width="0.5"/>
   <polyline fill="none" points="579.2,350.051 574.24,350.051" stroke="#262626" stroke-linejoin="miter" stroke-linecap="butt" stroke-width="0.5"/>
   <polyline fill="none" points="83.2002,331.63 88.1602,331.63" stroke="#262626" stroke-linejoin="miter" stroke-linecap="butt" stroke-width="0.5"/>
   <polyline fill="none" points="579.2,331.63 574.24,331.63" stroke="#262626" stroke-linejoin="miter" stroke-linecap="butt" stroke-width="0.5"/>
   <polyline fill="none" points="83.2002,313.209 88.1602,313.209" stroke="#262626" stroke-linejoin="miter" stroke-linecap="butt" stroke-width="0.5"/>
   <polyline fill="none" points="579.2,313.209 574.24,313.209" stroke="#262626" stroke-linejoin="miter" stroke-linecap="butt" stroke-width="0.5"/>
   <polyline fill="none" points="83.2002,294.788 88.1602,294.788" stroke="#262626" stroke-linejoin="miter" stroke-linecap="butt" stroke-width="0.5"/>
   <polyline fill="none" points="579.2,294.788 574.24,294.788" stroke="#262626" stroke-linejoin="miter" stroke-linecap="butt" stroke-width="0.5"/>
   <polyline fill="none" points="83.2002,276.367 88.1602,276.367" stroke="#262626" stroke-linejoin="miter" stroke-linecap="butt" stroke-width="0.5"/>
   <polyline fill="none" points="579.2,276.367 574.24,276.367" stroke="#262626" stroke-linejoin="miter" stroke-linecap="butt" stroke-width="0.5"/>
   <polyline fill="none" points="83.2002,257.946 88.1602,257.946" stroke="#262626" stroke-linejoin="miter" stroke-linecap="butt" stroke-width="0.5"/>
   <polyline fill="none" points="579.2,257.946 574.24,257.946" stroke="#262626" stroke-linejoin="miter" stroke-linecap="butt" stroke-width="0.5"/>
   <polyline fill="none" points="83.2002,239.525 88.1602,239.525" stroke="#262626" stroke-linejoin="miter" stroke-linecap="butt" stroke-width="0.5"/>
   <polyline fill="none" points="579.2,239.525 574.24,239.525" stroke="#262626" stroke-linejoin="miter" stroke-linecap="butt" stroke-width="0.5"/>
   <text font-family="FreeSans" font-style="normal" font-weight="normal" xml:space="preserve" transform="translate(60.2,354.051) rotate(-0,18,-4)" font-size="10">
    <tspan x="0 3 9 12 " y="-0" fill="rgb(38,38,38)">-1.5</tspan>
   </text>
   <text font-family="FreeSans" font-style="normal" font-weight="normal" xml:space="preserve" transform="translate(69.2,335.63) rotate(-0,9,-4)" font-size="10">
    <tspan x="0 3 " y="-0" fill="rgb(38,38,38)">-1</tspan>
   </text>
   <text font-family="FreeSans" font-style="normal" font-weight="normal" xml:space="preserve" transform="translate(60.2,317.209) rotate(-0,18,-4)" font-size="10">
    <tspan x="0 3 9 12 " y="-0" fill="rgb(38,38,38)">-0.5</tspan>
   </text>
   <text font-family="FreeSans" font-style="normal" font-weight="normal" xml:space="preserve" transform="translate(72.2,298.788) rotate(-0,6,-4)" font-size="10">
    <tspan x="0 " y="-0" fill="rgb(38,38,38)">0</tspan>
   </text>
   <text font-family="FreeSans" font-style="normal" font-weight="normal" xml:space="preserve" transform="translate(63.2,280.367) rotate(-0,15,-4)" font-size="10">
    <tspan x="0 6 9 " y="-0" fill="rgb(38,38,38)">0.5</tspan>
   </text>
   <text font-family="FreeSans" font-style="normal" font-weight="normal" xml:space="preserve" transform="translate(72.2,261.946) rotate(-0,6,-4)" font-size="10">
    <tspan x="0 " y="-0" fill="rgb(38,38,38)">1</tspan>
   </text>
   <text font-family="FreeSans" font-style="normal" font-weight="normal" xml:space="preserve" transform="translate(63.2,243.525) rotate(-0,15,-4)" font-size="10">
    <tspan x="0 6 9 " y="-0" fill="rgb(38,38,38)">1.5</tspan>
   </text>
   <polyline stroke-dasharray="16,0" fill="none" points="83.2002,350.051 579.2,350.051" stroke="#262626" stroke-linejoin="miter" stroke-linecap="square" stroke-width="0.5"/>
   <polyline stroke-dasharray="16,0" fill="none" points="83.2002,239.525 579.2,239.525" stroke="#262626" stroke-linejoin="miter" stroke-linecap="square" stroke-width="0.5"/>
   <polyline stroke-dasharray="16,0" fill="none" points="83.2002,350.051 83.2002,239.525" stroke="#262626" stroke-linejoin="miter" stroke-linecap="square" stroke-width="0.5"/>
   <polyline stroke-dasharray="16,0" fill="none" points="579.2,350.051 579.2,239.525" stroke="#262626" stroke-linejoin="miter" stroke-linecap="square" stroke-width="0.5"/>
   <text font-family="FreeSans" font-style="normal" font-weight="bold" xml:space="preserve" transform="translate(302.2,229.525) rotate(-0,29,0)" font-size="11">
    <tspan x="0 7 16 23 26 33 40 46 52 " y="-3" fill="rgb(0,0,0)">Two phase</tspan>
   </text>
   <text font-family="FreeSans" font-style="normal" font-weight="normal" xml:space="preserve" transform="translate(44.7,294.788) rotate(-90,10.5,0)" font-size="11">
    <tspan x="0 8 11 14 " y="-2" fill="rgb(38,38,38)">U, V</tspan>
   </text>
   <text font-family="FreeSans" font-style="normal" font-weight="normal" xml:space="preserve" transform="translate(323.2,381.519) rotate(-0,8,-11)" font-size="11">
    <tspan x="0 3 6 9 " y="-2" fill="rgb(38,38,38)">t, S</tspan>
   </text>
   <polyline stroke-dasharray="1,1,1,1,1,1,1,1,1,1" fill="none" points="83.2002,294.42 85.1841,294.051 87.168,293.683 89.1519,293.314 91.1362,292.946 93.1201,292.578 95.104,292.209 97.0879,291.841 99.0723,291.473 101.056,291.104 103.04,290.736 105.024,290.367 107.008,289.999 108.992,289.63 110.976,289.262 112.96,288.894 114.944,288.525 116.928,288.157 118.912,287.788 120.896,287.42 122.88,287.051 124.864,286.683 126.848,286.314 128.832,285.946 130.816,285.578 132.8,285.209 134.784,284.841 136.768,284.473 138.752,284.104 140.736,283.736 142.72,283.367 144.704,282.999 146.688,282.63 148.672,282.262 150.656,281.894 152.64,281.525 154.624,281.157 156.608,280.788 158.592,280.42 160.576,280.051 162.56,279.683 164.544,279.314 166.528,278.946 168.512,278.578 170.496,278.209 172.48,277.841 174.464,277.473 176.448,277.104 178.432,276.736 180.416,276.367 182.4,275.999 184.384,275.63 186.368,275.262 188.352,274.894 190.336,274.525 192.32,274.157 194.304,273.789 196.288,273.42 198.272,273.052 200.256,272.683 202.24,272.315 204.224,271.946 206.208,271.578 208.192,271.209 210.176,270.841 212.16,270.473 214.144,270.104 216.128,269.736 218.112,269.367 220.096,268.999 222.08,268.63 224.064,268.262 226.048,267.894 228.032,267.525 230.016,267.157 232,266.789 233.984,266.42 235.968,266.052 237.952,265.683 239.936,265.315 241.92,264.946 243.904,264.578 245.888,264.209 247.872,263.841 249.856,263.473 251.84,263.104 253.824,262.736 255.808,262.368 257.792,261.999 259.776,261.63 261.76,261.262 263.744,260.894 265.728,260.525 267.712,260.157 269.696,259.789 271.68,259.42 273.664,259.052 275.648,258.683 277.632,258.315 279.616,257.946 281.6,294.42 283.584,294.051 285.568,293.683 287.552,293.314 289.536,292.946 291.52,292.578 293.504,292.209 295.488,291.841 297.472,291.473 299.456,291.104 301.44,290.736 303.424,290.367 305.408,289.999 307.392,289.63 309.376,289.262 311.36,288.894 313.344,288.525 315.328,288.157 317.312,287.788 319.296,287.42 321.28,287.051 323.264,286.683 325.248,286.314 327.232,285.946 329.216,285.578 331.2,285.209 333.184,284.841 335.168,284.473 337.152,284.104 339.136,283.736 341.12,283.367 343.104,282.999 345.088,282.63 347.072,282.262 349.056,281.894 351.04,281.525 353.024,281.157 355.008,280.789 356.992,280.42 358.976,280.052 360.96,279.683 362.944,279.314 364.928,278.946 366.912,278.578 368.896,278.209 370.88,277.841 372.864,277.473 374.848,277.104 376.832,276.736 378.816,276.367 380.8,275.999 382.784,275.63 384.768,275.262 386.752,274.894 388.736,274.525 390.72,274.157 392.704,273.789 394.688,273.42 396.672,273.052 398.656,272.683 400.64,272.315 402.624,271.946 404.608,271.578 406.592,271.209 408.576,270.841 410.56,270.473 412.544,270.104 414.528,269.736 416.512,269.367 418.496,268.999 420.48,268.63 422.464,268.262 424.448,267.894 426.432,267.525 428.416,267.157 430.4,266.789 432.384,266.42 434.368,266.052 436.352,265.683 438.336,265.315 440.32,264.946 442.304,264.578 444.288,264.209 446.272,263.841 448.256,263.473 450.24,263.104 452.224,262.736 454.208,262.368 456.192,261.999 458.176,261.63 460.16,261.262 462.144,260.894 464.128,260.525 466.112,260.157 468.096,259.789 470.08,259.42 472.064,259.052 474.048,258.683 476.032,258.315 478.016,257.946 480,294.42 481.984,294.051 483.968,293.683 485.952,293.314 487.936,292.946 489.92,292.578 491.904,292.209 493.888,291.841 495.872,291.473 497.856,291.104 499.84,290.736 501.824,290.367 503.808,289.999 505.792,289.63 507.776,289.262 509.76,288.894 511.744,288.525 513.728,288.157 515.712,287.788 517.696,287.42 519.68,287.051 521.664,286.683 523.648,286.314 525.632,285.946 527.616,285.578 529.6,285.209 531.584,284.841 533.568,284.473 535.552,284.104 537.536,283.736 539.52,283.367 541.504,282.999 543.488,282.63 545.472,282.262 547.456,281.894 549.44,281.525 551.424,281.157 553.408,280.789 555.392,280.42 557.376,280.052 559.36,279.683 561.344,279.314 563.328,278.946 565.312,278.578 567.296,278.209 569.28,277.841 571.264,277.473 573.248,277.104 575.232,276.736 577.216,276.367" stroke="#0071bc" stroke-linejoin="round" stroke-linecap="butt" stroke-width="0.5"/>
   <polyline fill="none" points="83.2002,292.477 85.1841,290.174 87.168,287.889 89.1519,285.631 91.1362,283.41 93.1201,281.232 95.104,279.108 97.0879,277.045 99.0723,275.053 101.056,273.137 103.04,271.307 105.024,269.569 107.008,267.931 108.992,266.398 110.976,264.978 112.96,263.676 114.944,262.497 116.928,261.446 118.912,260.526 120.896,259.743 122.88,259.099 124.864,258.595 126.848,258.235 128.832,258.019 130.816,257.946 132.8,258.019 134.784,258.235 136.768,258.595 138.752,259.099 140.736,259.743 142.72,260.526 144.704,261.446 146.688,262.497 148.672,263.676 150.656,264.978 152.64,266.398 154.624,267.931 156.608,269.569 158.592,271.307 160.576,273.137 162.56,275.053 164.544,277.045 166.528,279.108 168.512,281.232 170.496,283.41 172.48,285.631 174.464,287.889 176.448,290.174 178.432,292.477 180.416,294.788 182.4,297.1 184.384,299.403 186.368,301.688 188.352,303.945 190.336,306.167 192.32,308.344 194.304,310.468 196.288,312.531 198.272,314.524 200.256,316.439 202.24,318.27 204.224,320.007 206.208,321.646 208.192,323.178 210.176,324.598 212.16,325.9 214.144,327.08 216.128,328.131 218.112,329.05 220.096,329.833 222.08,330.478 224.064,330.981 226.048,331.341 228.032,331.558 230.016,331.63 232,331.558 233.984,331.342 235.968,330.981 237.952,330.478 239.936,329.833 241.92,329.05 243.904,328.131 245.888,327.08 247.872,325.9 249.856,324.598 251.84,323.178 253.824,321.646 255.808,320.007 257.792,318.27 259.776,316.439 261.76,314.524 263.744,312.531 265.728,310.468 267.712,308.344 269.696,306.167 271.68,303.945 273.664,301.688 275.648,299.403 277.632,297.1 279.616,294.789 281.6,292.477 283.584,290.174 285.568,287.889 287.552,285.631 289.536,283.41 291.52,281.232 293.504,279.108 295.488,277.046 297.472,275.053 299.456,273.137 301.44,271.307 303.424,269.569 305.408,267.931 307.392,266.398 309.376,264.979 311.36,263.676 313.344,262.497 315.328,261.446 317.312,260.527 319.296,259.743 321.28,259.099 323.264,258.595 325.248,258.235 327.232,258.019 329.216,257.946 331.2,258.019 333.184,258.235 335.168,258.595 337.152,259.099 339.136,259.743 341.12,260.526 343.104,261.446 345.088,262.497 347.072,263.676 349.056,264.978 351.04,266.398 353.024,267.931 355.008,269.569 356.992,271.307 358.976,273.137 360.96,275.052 362.944,277.045 364.928,279.108 366.912,281.232 368.896,283.41 370.88,285.631 372.864,287.889 374.848,290.174 376.832,292.476 378.816,294.788 380.8,297.1 382.784,299.402 384.768,301.687 386.752,303.945 388.736,306.167 390.72,308.344 392.704,310.468 394.688,312.531 396.672,314.524 398.656,316.439 400.64,318.27 402.624,320.007 404.608,321.646 406.592,323.178 408.576,324.598 410.56,325.9 412.544,327.08 414.528,328.131 416.512,329.05 418.496,329.833 420.48,330.478 422.464,330.981 424.448,331.341 426.432,331.558 428.416,331.63 430.4,331.558 432.384,331.342 434.368,330.981 436.352,330.478 438.336,329.833 440.32,329.05 442.304,328.131 444.288,327.08 446.272,325.9 448.256,324.598 450.24,323.178 452.224,321.646 454.208,320.007 456.192,318.27 458.176,316.439 460.16,314.524 462.144,312.531 464.128,310.468 466.112,308.344 468.096,306.167 470.08,303.945 472.064,301.688 474.048,299.403 476.032,297.1 478.016,294.789 480,292.477 481.984,290.174 483.968,287.889 485.952,285.632 487.936,283.41 489.92,281.232 491.904,279.108 493.888,277.046 495.872,275.053 497.856,273.137 499.84,271.307 501.824,269.569 503.808,267.931 505.792,266.398 507.776,264.979 509.76,263.676 511.744,262.497 513.728,261.446 515.712,260.527 517.696,259.743 519.68,259.099 521.664,258.595 523.648,258.235 525.632,258.019 527.616,257.946 529.6,258.019 531.584,258.235 533.568,258.595 535.552,259.099 537.536,259.743 539.52,260.526 541.504,261.445 543.488,262.497 545.472,263.676 547.456,264.978 549.44,266.398 551.424,267.931 553.408,269.569 555.392,271.307 557.376,273.137 559.36,275.052 561.344,277.045 563.328,279.108 565.312,281.232 567.296,283.409 569.28,285.631 571.264,287.889 573.248,290.173 575.232,292.476 577.216,294.788" stroke="#d85218" stroke-linejoin="round" stroke-linecap="butt" stroke-width="0.5"/>
   <polyline fill="none" points="83.2002,258.019 85.1841,258.235 87.168,258.595 89.1519,259.099 91.1362,259.743 93.1201,260.526 95.104,261.446 97.0879,262.497 99.0723,263.676 101.056,264.978 103.04,266.398 105.024,267.931 107.008,269.569 108.992,271.307 110.976,273.137 112.96,275.053 114.944,277.045 116.928,279.108 118.912,281.232 120.896,283.41 122.88,285.631 124.864,287.889 126.848,290.174 128.832,292.477 130.816,294.788 132.8,297.1 134.784,299.403 136.768,301.688 138.752,303.945 140.736,306.167 142.72,308.344 144.704,310.468 146.688,312.531 148.672,314.524 150.656,316.439 152.64,318.27 154.624,320.007 156.608,321.646 158.592,323.178 160.576,324.598 162.56,325.9 164.544,327.08 166.528,328.131 168.512,329.05 170.496,329.833 172.48,330.478 174.464,330.981 176.448,331.341 178.432,331.558 180.416,331.63 182.4,331.558 184.384,331.341 186.368,330.981 188.352,330.478 190.336,329.833 192.32,329.05 194.304,328.131 196.288,327.08 198.272,325.9 200.256,324.598 202.24,323.178 204.224,321.646 206.208,320.007 208.192,318.27 210.176,316.439 212.16,314.524 214.144,312.531 216.128,310.468 218.112,308.344 220.096,306.167 222.08,303.945 224.064,301.688 226.048,299.403 228.032,297.1 230.016,294.788 232,292.477 233.984,290.174 235.968,287.889 237.952,285.631 239.936,283.41 241.92,281.232 243.904,279.108 245.888,277.045 247.872,275.053 249.856,273.137 251.84,271.307 253.824,269.569 255.808,267.931 257.792,266.398 259.776,264.979 261.76,263.676 263.744,262.497 265.728,261.446 267.712,260.527 269.696,259.743 271.68,259.099 273.664,258.595 275.648,258.235 277.632,258.019 279.616,257.946 281.6,258.019 283.584,258.235 285.568,258.595 287.552,259.099 289.536,259.743 291.52,260.526 293.504,261.446 295.488,262.497 297.472,263.676 299.456,264.978 301.44,266.398 303.424,267.931 305.408,269.569 307.392,271.307 309.376,273.137 311.36,275.052 313.344,277.045 315.328,279.108 317.312,281.232 319.296,283.41 321.28,285.631 323.264,287.889 325.248,290.174 327.232,292.477 329.216,294.788 331.2,297.1 333.184,299.402 335.168,301.687 337.152,303.945 339.136,306.167 341.12,308.344 343.104,310.468 345.088,312.531 347.072,314.524 349.056,316.439 351.04,318.27 353.024,320.007 355.008,321.646 356.992,323.178 358.976,324.598 360.96,325.9 362.944,327.08 364.928,328.131 366.912,329.05 368.896,329.833 370.88,330.478 372.864,330.981 374.848,331.341 376.832,331.558 378.816,331.63 380.8,331.558 382.784,331.342 384.768,330.981 386.752,330.478 388.736,329.833 390.72,329.05 392.704,328.131 394.688,327.08 396.672,325.9 398.656,324.598 400.64,323.178 402.624,321.646 404.608,320.007 406.592,318.27 408.576,316.439 410.56,314.524 412.544,312.531 414.528,310.468 416.512,308.344 418.496,306.167 420.48,303.945 422.464,301.688 424.448,299.403 426.432,297.1 428.416,294.789 430.4,292.477 432.384,290.174 434.368,287.889 436.352,285.632 438.336,283.41 440.32,281.232 442.304,279.108 444.288,277.046 446.272,275.053 448.256,273.137 450.24,271.307 452.224,269.569 454.208,267.931 456.192,266.398 458.176,264.979 460.16,263.676 462.144,262.497 464.128,261.446 466.112,260.527 468.096,259.743 470.08,259.099 472.064,258.595 474.048,258.235 476.032,258.019 478.016,257.946 480,258.019 481.984,258.235 483.968,258.595 485.952,259.099 487.936,259.743 489.92,260.526 491.904,261.445 493.888,262.497 495.872,263.676 497.856,264.978 499.84,266.398 501.824,267.931 503.808,269.569 505.792,271.307 507.776,273.137 509.76,275.052 511.744,277.045 513.728,279.108 515.712,281.232 517.696,283.409 519.68,285.631 521.664,287.889 523.648,290.173 525.632,292.476 527.616,294.788 529.6,297.1 531.584,299.402 533.568,301.687 535.552,303.945 537.536,306.167 539.52,308.344 541.504,310.468 543.488,312.531 545.472,314.523 547.456,316.439 549.44,318.27 551.424,320.007 553.408,321.646 555.392,323.178 557.376,324.598 559.36,325.9 561.344,327.08 563.328,328.131 565.312,329.05 567.296,329.833 569.28,330.478 571.264,330.981 573.248,331.341 575.232,331.558 577.216,331.63" stroke="#ecb01f" stroke-linejoin="round" stroke-linecap="butt" stroke-width="0.5"/>
   <polyline stroke-dasharray="4,4,4,4" fill="none" points="83.2002,260.33 85.1841,262.849 87.168,265.495 89.1519,268.255 91.1362,271.122 93.1201,274.083 95.104,277.125 97.0879,280.24 99.0723,283.412 101.056,286.629 103.04,289.88 105.024,293.15 107.008,296.427 108.992,299.697 110.976,302.947 112.96,306.165 114.944,309.337 116.928,312.451 118.912,315.494 120.896,318.455 122.88,321.321 124.864,324.082 126.848,326.727 128.832,329.246 130.816,331.63 132.8,333.87 134.784,335.956 136.768,337.88 138.752,339.635 140.736,341.212 142.72,342.606 144.704,343.811 146.688,344.822 148.672,345.636 150.656,346.25 152.64,346.659 154.624,346.865 156.608,346.865 158.592,346.659 160.576,346.25 162.56,345.636 164.544,344.822 166.528,343.811 168.512,342.606 170.496,341.212 172.48,339.635 174.464,337.88 176.448,335.956 178.432,333.87 180.416,331.63 182.4,329.246 184.384,326.727 186.368,324.082 188.352,321.321 190.336,318.455 192.32,315.494 194.304,312.451 196.288,309.337 198.272,306.165 200.256,302.947 202.24,299.697 204.224,296.427 206.208,293.15 208.192,289.88 210.176,286.629 212.16,283.412 214.144,280.24 216.128,277.126 218.112,274.083 220.096,271.122 222.08,268.255 224.064,265.495 226.048,262.85 228.032,260.33 230.016,257.946 232,255.707 233.984,253.621 235.968,251.696 237.952,249.942 239.936,248.365 241.92,246.971 243.904,245.766 245.888,244.754 247.872,243.94 249.856,243.327 251.84,242.917 253.824,242.711 255.808,242.711 257.792,242.917 259.776,243.327 261.76,243.94 263.744,244.754 265.728,245.766 267.712,246.971 269.696,248.365 271.68,249.942 273.664,251.696 275.648,253.62 277.632,255.707 279.616,257.946 281.6,260.33 283.584,262.849 285.568,265.494 287.552,268.255 289.536,271.122 291.52,274.083 293.504,277.125 295.488,280.239 297.472,283.412 299.456,286.629 301.44,289.879 303.424,293.15 305.408,296.426 307.392,299.696 309.376,302.947 311.36,306.165 313.344,309.337 315.328,312.451 317.312,315.494 319.296,318.455 321.28,321.321 323.264,324.082 325.248,326.727 327.232,329.246 329.216,331.63 331.2,333.87 333.184,335.956 335.168,337.88 337.152,339.634 339.136,341.212 341.12,342.605 343.104,343.811 345.088,344.822 347.072,345.636 349.056,346.249 351.04,346.659 353.024,346.865 355.008,346.865 356.992,346.659 358.976,346.25 360.96,345.636 362.944,344.822 364.928,343.811 366.912,342.606 368.896,341.212 370.88,339.635 372.864,337.88 374.848,335.956 376.832,333.87 378.816,331.63 380.8,329.247 382.784,326.728 384.768,324.082 386.752,321.321 388.736,318.455 390.72,315.494 392.704,312.451 394.688,309.337 396.672,306.165 398.656,302.947 400.64,299.697 402.624,296.427 404.608,293.15 406.592,289.88 408.576,286.629 410.56,283.412 412.544,280.24 414.528,277.126 416.512,274.083 418.496,271.122 420.48,268.256 422.464,265.495 424.448,262.85 426.432,260.331 428.416,257.947 430.4,255.707 432.384,253.621 434.368,251.696 436.352,249.942 438.336,248.365 440.32,246.971 442.304,245.766 444.288,244.754 446.272,243.94 448.256,243.327 450.24,242.917 452.224,242.711 454.208,242.711 456.192,242.917 458.176,243.327 460.16,243.94 462.144,244.754 464.128,245.766 466.112,246.971 468.096,248.364 470.08,249.942 472.064,251.696 474.048,253.62 476.032,255.707 478.016,257.946 480,260.33 481.984,262.849 483.968,265.494 485.952,268.255 487.936,271.122 489.92,274.082 491.904,277.125 493.888,280.239 495.872,283.411 497.856,286.629 499.84,289.879 501.824,293.149 503.808,296.426 505.792,299.696 507.776,302.947 509.76,306.165 511.744,309.336 513.728,312.45 515.712,315.494 517.696,318.454 519.68,321.321 521.664,324.082 523.648,326.727 525.632,329.246 527.616,331.63 529.6,333.87 531.584,335.956 533.568,337.88 535.552,339.634 537.536,341.211 539.52,342.605 541.504,343.811 543.488,344.822 545.472,345.636 547.456,346.249 549.44,346.659 551.424,346.865 553.408,346.865 555.392,346.66 557.376,346.25 559.36,345.636 561.344,344.822 563.328,343.811 565.312,342.606 567.296,341.212 569.28,339.635 571.264,337.88 573.248,335.956 575.232,333.87 577.216,331.63" stroke="#7d2e8d" stroke-linejoin="round" stroke-linecap="butt" stroke-width="0.5"/>
   <polyline stroke-dasharray="8,2,4,2,8,2,4,2" fill="none" points="83.2002,278.674 85.1841,280.944 87.168,283.142 89.1519,285.234 91.1362,287.187 93.1201,288.97 95.104,290.554 97.0879,291.916 99.0723,293.032 101.056,293.885 103.04,294.461 105.024,294.752 107.008,294.752 108.992,294.461 110.976,293.885 112.96,293.032 114.944,291.916 116.928,290.554 118.912,288.97 120.896,287.187 122.88,285.234 124.864,283.142 126.848,280.944 128.832,278.674 130.816,276.367 132.8,274.06 134.784,271.788 136.768,269.587 138.752,267.493 140.736,265.54 142.72,263.757 144.704,262.173 146.688,260.813 148.672,259.699 150.656,258.848 152.64,258.272 154.624,257.982 156.608,257.982 158.592,258.272 160.576,258.848 162.56,259.699 164.544,260.813 166.528,262.173 168.512,263.757 170.496,265.54 172.48,267.493 174.464,269.587 176.448,271.787 178.432,274.06 180.416,276.367 182.4,278.674 184.384,280.944 186.368,283.142 188.352,285.234 190.336,287.187 192.32,288.97 194.304,290.554 196.288,291.916 198.272,293.032 200.256,293.885 202.24,294.461 204.224,294.752 206.208,294.752 208.192,294.461 210.176,293.885 212.16,293.032 214.144,291.916 216.128,290.554 218.112,288.97 220.096,287.187 222.08,285.234 224.064,283.142 226.048,280.944 228.032,278.674 230.016,276.367 232,274.06 233.984,271.788 235.968,269.587 237.952,267.493 239.936,265.54 241.92,263.757 243.904,262.173 245.888,260.813 247.872,259.699 249.856,258.848 251.84,258.272 253.824,257.982 255.808,257.982 257.792,258.272 259.776,258.848 261.76,259.699 263.744,260.813 265.728,262.173 267.712,263.757 269.696,265.54 271.68,267.493 273.664,269.587 275.648,271.787 277.632,274.06 279.616,276.367 281.6,278.674 283.584,280.944 285.568,283.142 287.552,285.234 289.536,287.187 291.52,288.97 293.504,290.554 295.488,291.916 297.472,293.032 299.456,293.885 301.44,294.461 303.424,294.752 305.408,294.752 307.392,294.461 309.376,293.885 311.36,293.032 313.344,291.916 315.328,290.555 317.312,288.97 319.296,287.187 321.28,285.234 323.264,283.142 325.248,280.944 327.232,278.674 329.216,276.367 331.2,274.06 333.184,271.788 335.168,269.587 337.152,267.493 339.136,265.54 341.12,263.757 343.104,262.173 345.088,260.813 347.072,259.699 349.056,258.848 351.04,258.272 353.024,257.982 355.008,257.982 356.992,258.272 358.976,258.848 360.96,259.699 362.944,260.813 364.928,262.173 366.912,263.756 368.896,265.54 370.88,267.493 372.864,269.587 374.848,271.787 376.832,274.06 378.816,276.367 380.8,278.674 382.784,280.944 384.768,283.142 386.752,285.234 388.736,287.187 390.72,288.97 392.704,290.554 394.688,291.916 396.672,293.032 398.656,293.885 400.64,294.461 402.624,294.752 404.608,294.752 406.592,294.461 408.576,293.885 410.56,293.032 412.544,291.916 414.528,290.555 416.512,288.97 418.496,287.187 420.48,285.234 422.464,283.143 424.448,280.944 426.432,278.674 428.416,276.368 430.4,274.06 432.384,271.788 434.368,269.587 436.352,267.494 438.336,265.54 440.32,263.757 442.304,262.173 444.288,260.813 446.272,259.699 448.256,258.848 450.24,258.272 452.224,257.982 454.208,257.982 456.192,258.272 458.176,258.848 460.16,259.699 462.144,260.813 464.128,262.173 466.112,263.756 468.096,265.539 470.08,267.493 472.064,269.586 474.048,271.787 476.032,274.059 478.016,276.367 480,278.674 481.984,280.944 483.968,283.142 485.952,285.234 487.936,287.187 489.92,288.97 491.904,290.554 493.888,291.916 495.872,293.032 497.856,293.885 499.84,294.461 501.824,294.752 503.808,294.752 505.792,294.461 507.776,293.885 509.76,293.032 511.744,291.916 513.728,290.555 515.712,288.97 517.696,287.187 519.68,285.234 521.664,283.143 523.648,280.944 525.632,278.674 527.616,276.368 529.6,274.06 531.584,271.788 533.568,269.587 535.552,267.494 537.536,265.54 539.52,263.757 541.504,262.173 543.488,260.813 545.472,259.699 547.456,258.848 549.44,258.272 551.424,257.982 553.408,257.982 555.392,258.272 557.376,258.848 559.36,259.699 561.344,260.813 563.328,262.173 565.312,263.756 567.296,265.539 569.28,267.493 571.264,269.586 573.248,271.787 575.232,274.059 577.216,276.367" stroke="#76ab2f" stroke-linejoin="round" stroke-linecap="butt" stroke-width="1.5"/>
  </g>
  <clipPath id="cp00640600">
   <polygon points="0,600 640,600 640,0 0,0"/>
  </clipPath>
  <g clip-path="url(#cp00640600)">
   <polygon fill="#ffffff" points="445.139,353.458 567.015,353.458 567.015,247.042 445.139,247.042" shape-rendering="crispEdges"/>
   <polyline stroke-dasharray="16,0" fill="none" points="445.139,353.458 567.015,353.458" stroke="#262626" stroke-linejoin="miter" stroke-linecap="square" stroke-width="0.5"/>
   <polyline stroke-dasharray="16,0" fill="none" points="445.139,247.042 567.015,247.042" stroke="#262626" stroke-linejoin="miter" stroke-linecap="square" stroke-width="0.5"/>
   <polyline stroke-dasharray="16,0" fill="none" points="445.139,353.458 445.139,247.042" stroke="#262626" stroke-linejoin="miter" stroke-linecap="square" stroke-width="0.5"/>
   <polyline stroke-dasharray="16,0" fill="none" points="567.015,353.458 567.015,247.042" stroke="#262626" stroke-linejoin="miter" stroke-linecap="square" stroke-width="0.5"/>
   <text font-family="FreeSans" font-style="normal" font-weight="normal" xml:space="preserve" transform="translate(475.095,262.993) rotate(-0,-0,-5)" font-size="9">
    <tspan x="0 5 10 15 19 " y="-2" fill="rgb(0,0,0)">phase</tspan>
   </text>
   <text font-family="FreeSans" font-style="normal" font-weight="normal" xml:space="preserve" transform="translate(475.095,283.895) rotate(-0,-0,-4)" font-size="9">
    <tspan x="0 6 " y="-0" fill="rgb(0,0,0)">Va</tspan>
   </text>
   <text font-family="FreeSans" font-style="normal" font-weight="normal" xml:space="preserve" transform="translate(475.095,305.796) rotate(-0,-0,-4)" font-size="9">
    <tspan x="0 6 " y="-0" fill="rgb(0,0,0)">Vb</tspan>
   </text>
   <text font-family="FreeSans" font-style="normal" font-weight="normal" xml:space="preserve" transform="translate(475.095,327.698) rotate(-0,-0,-4)" font-size="9">
    <tspan x="0 6 11 " y="-0" fill="rgb(0,0,0)">Vab</tspan>
   </text>
   <text font-family="FreeSans" font-style="normal" font-weight="normal" xml:space="preserve" transform="translate(475.095,350.599) rotate(-0,-0,-5)" font-size="9">
    <tspan x="0 6 9 11 " y="-2" fill="rgb(0,0,0)">P, W</tspan>
   </text>
   <polyline stroke-dasharray="1,1,1,1,1,1,1,1,1,1" fill="none" points="448.693,257.993 471.541,257.993" stroke="#0071bc" stroke-linejoin="round" stroke-linecap="butt" stroke-width="0.5"/>
   <polyline fill="none" points="448.693,279.895 471.541,279.895" stroke="#d85218" stroke-linejoin="round" stroke-linecap="butt" stroke-width="0.5"/>
   <polyline fill="none" points="448.693,301.796 471.541,301.796" stroke="#ecb01f" stroke-linejoin="round" stroke-linecap="butt" stroke-width="0.5"/>
   <polyline stroke-dasharray="4,4,4,4" fill="none" points="448.693,323.698 471.541,323.698" stroke="#7d2e8d" stroke-linejoin="round" stroke-linecap="butt" stroke-width="0.5"/>
   <polyline stroke-dasharray="8,2,4,2,8,2,4,2" fill="none" points="448.693,345.599 471.541,345.599" stroke="#76ab2f" stroke-linejoin="round" stroke-linecap="butt" stroke-width="1.5"/>
  </g>
  <clipPath id="cp00640600">
   <polygon points="0,600 640,600 640,0 0,0"/>
  </clipPath>
  <g clip-path="url(#cp00640600)">
   <polygon fill="#ffffff" points="83.2002,534 579.2,534 579.2,423.475 83.2002,423.475" shape-rendering="crispEdges"/>
   <polyline fill="none" points="83.2002,534 83.2002,529.061" stroke="#262626" stroke-linejoin="miter" stroke-linecap="butt" stroke-width="0.5"/>
   <polyline fill="none" points="83.2002,423.475 83.2002,428.414" stroke="#262626" stroke-linejoin="miter" stroke-linecap="butt" stroke-width="0.5"/>
   <polyline fill="none" points="182.4,534 182.4,529.061" stroke="#262626" stroke-linejoin="miter" stroke-linecap="butt" stroke-width="0.5"/>
   <polyline fill="none" points="182.4,423.475 182.4,428.414" stroke="#262626" stroke-linejoin="miter" stroke-linecap="butt" stroke-width="0.5"/>
   <polyline fill="none" points="281.6,534 281.6,529.061" stroke="#262626" stroke-linejoin="miter" stroke-linecap="butt" stroke-width="0.5"/>
   <polyline fill="none" points="281.6,423.475 281.6,428.414" stroke="#262626" stroke-linejoin="miter" stroke-linecap="butt" stroke-width="0.5"/>
   <polyline fill="none" points="380.8,534 380.8,529.061" stroke="#262626" stroke-linejoin="miter" stroke-linecap="butt" stroke-width="0.5"/>
   <polyline fill="none" points="380.8,423.475 380.8,428.414" stroke="#262626" stroke-linejoin="miter" stroke-linecap="butt" stroke-width="0.5"/>
   <polyline fill="none" points="480,534 480,529.061" stroke="#262626" stroke-linejoin="miter" stroke-linecap="butt" stroke-width="0.5"/>
   <polyline fill="none" points="480,423.475 480,428.414" stroke="#262626" stroke-linejoin="miter" stroke-linecap="butt" stroke-width="0.5"/>
   <polyline fill="none" points="579.2,534 579.2,529.061" stroke="#262626" stroke-linejoin="miter" stroke-linecap="butt" stroke-width="0.5"/>
   <polyline fill="none" points="579.2,423.475 579.2,428.414" stroke="#262626" stroke-linejoin="miter" stroke-linecap="butt" stroke-width="0.5"/>
   <text font-family="FreeSans" font-style="normal" font-weight="normal" xml:space="preserve" transform="translate(80.2,549.468) rotate(-0,3,-8)" font-size="10">
    <tspan x="0 " y="-0" fill="rgb(38,38,38)">0</tspan>
   </text>
   <text font-family="FreeSans" font-style="normal" font-weight="normal" xml:space="preserve" transform="translate(171.9,549.468) rotate(-0,10.5,-8)" font-size="10">
    <tspan x="0 6 9 15 " y="-0" fill="rgb(38,38,38)">0.01</tspan>
   </text>
   <text font-family="FreeSans" font-style="normal" font-weight="normal" xml:space="preserve" transform="translate(271.1,549.468) rotate(-0,10.5,-8)" font-size="10">
    <tspan x="0 6 9 15 " y="-0" fill="rgb(38,38,38)">0.02</tspan>
   </text>
   <text font-family="FreeSans" font-style="normal" font-weight="normal" xml:space="preserve" transform="translate(370.3,549.468) rotate(-0,10.5,-8)" font-size="10">
    <tspan x="0 6 9 15 " y="-0" fill="rgb(38,38,38)">0.03</tspan>
   </text>
   <text font-family="FreeSans" font-style="normal" font-weight="normal" xml:space="preserve" transform="translate(469.5,549.468) rotate(-0,10.5,-8)" font-size="10">
    <tspan x="0 6 9 15 " y="-0" fill="rgb(38,38,38)">0.04</tspan>
   </text>
   <text font-family="FreeSans" font-style="normal" font-weight="normal" xml:space="preserve" transform="translate(568.7,549.468) rotate(-0,10.5,-8)" font-size="10">
    <tspan x="0 6 9 15 " y="-0" fill="rgb(38,38,38)">0.05</tspan>
   </text>
   <polyline fill="none" points="83.2002,534 88.1602,534" stroke="#262626" stroke-linejoin="miter" stroke-linecap="butt" stroke-width="0.5"/>
   <polyline fill="none" points="579.2,534 574.24,534" stroke="#262626" stroke-linejoin="miter" stroke-linecap="butt" stroke-width="0.5"/>
   <polyline fill="none" points="83.2002,506.369 88.1602,506.369" stroke="#262626" stroke-linejoin="miter" stroke-linecap="butt" stroke-width="0.5"/>
   <polyline fill="none" points="579.2,506.369 574.24,506.369" stroke="#262626" stroke-linejoin="miter" stroke-linecap="butt" stroke-width="0.5"/>
   <polyline fill="none" points="83.2002,478.737 88.1602,478.737" stroke="#262626" stroke-linejoin="miter" stroke-linecap="butt" stroke-width="0.5"/>
   <polyline fill="none" points="579.2,478.737 574.24,478.737" stroke="#262626" stroke-linejoin="miter" stroke-linecap="butt" stroke-width="0.5"/>
   <polyline fill="none" points="83.2002,451.106 88.1602,451.106" stroke="#262626" stroke-linejoin="miter" stroke-linecap="butt" stroke-width="0.5"/>
   <polyline fill="none" points="579.2,451.106 574.24,451.106" stroke="#262626" stroke-linejoin="miter" stroke-linecap="butt" stroke-width="0.5"/>
   <polyline fill="none" points="83.2002,423.475 88.1602,423.475" stroke="#262626" stroke-linejoin="miter" stroke-linecap="butt" stroke-width="0.5"/>
   <polyline fill="none" points="579.2,423.475 574.24,423.475" stroke="#262626" stroke-linejoin="miter" stroke-linecap="butt" stroke-width="0.5"/>
   <text font-family="FreeSans" font-style="normal" font-weight="normal" xml:space="preserve" transform="translate(69.2,538) rotate(-0,9,-4)" font-size="10">
    <tspan x="0 3 " y="-0" fill="rgb(38,38,38)">-2</tspan>
   </text>
   <text font-family="FreeSans" font-style="normal" font-weight="normal" xml:space="preserve" transform="translate(69.2,510.369) rotate(-0,9,-4)" font-size="10">
    <tspan x="0 3 " y="-0" fill="rgb(38,38,38)">-1</tspan>
   </text>
   <text font-family="FreeSans" font-style="normal" font-weight="normal" xml:space="preserve" transform="translate(72.2,482.737) rotate(-0,6,-4)" font-size="10">
    <tspan x="0 " y="-0" fill="rgb(38,38,38)">0</tspan>
   </text>
   <text font-family="FreeSans" font-style="normal" font-weight="normal" xml:space="preserve" transform="translate(72.2,455.106) rotate(-0,6,-4)" font-size="10">
    <tspan x="0 " y="-0" fill="rgb(38,38,38)">1</tspan>
   </text>
   <text font-family="FreeSans" font-style="normal" font-weight="normal" xml:space="preserve" transform="translate(72.2,427.475) rotate(-0,6,-4)" font-size="10">
    <tspan x="0 " y="-0" fill="rgb(38,38,38)">2</tspan>
   </text>
   <polyline stroke-dasharray="16,0" fill="none" points="83.2002,534 579.2,534" stroke="#262626" stroke-linejoin="miter" stroke-linecap="square" stroke-width="0.5"/>
   <polyline stroke-dasharray="16,0" fill="none" points="83.2002,423.475 579.2,423.475" stroke="#262626" stroke-linejoin="miter" stroke-linecap="square" stroke-width="0.5"/>
   <polyline stroke-dasharray="16,0" fill="none" points="83.2002,534 83.2002,423.475" stroke="#262626" stroke-linejoin="miter" stroke-linecap="square" stroke-width="0.5"/>
   <polyline stroke-dasharray="16,0" fill="none" points="579.2,534 579.2,423.475" stroke="#262626" stroke-linejoin="miter" stroke-linecap="square" stroke-width="0.5"/>
   <text font-family="FreeSans" font-style="normal" font-weight="bold" xml:space="preserve" transform="translate(298.7,413.475) rotate(-0,32.5,0)" font-size="11">
    <tspan x="0 7 14 18 24 30 33 40 47 53 59 " y="-3" fill="rgb(0,0,0)">Three phase</tspan>
   </text>
   <text font-family="FreeSans" font-style="normal" font-weight="normal" xml:space="preserve" transform="translate(53.7,478.737) rotate(-90,10.5,0)" font-size="11">
    <tspan x="0 8 11 14 " y="-2" fill="rgb(38,38,38)">U, V</tspan>
   </text>
   <text font-family="FreeSans" font-style="normal" font-weight="normal" xml:space="preserve" transform="translate(323.2,565.468) rotate(-0,8,-11)" font-size="11">
    <tspan x="0 3 6 9 " y="-2" fill="rgb(38,38,38)">t, S</tspan>
   </text>
   <polyline stroke-dasharray="1,1,1,1,1,1,1,1,1,1" fill="none" points="83.2002,478.461 85.1841,478.185 87.168,477.908 89.1519,477.632 91.1362,477.356 93.1201,477.08 95.104,476.803 97.0879,476.527 99.0723,476.25 101.056,475.974 103.04,475.698 105.024,475.421 107.008,475.145 108.992,474.869 110.976,474.593 112.96,474.316 114.944,474.04 116.928,473.764 118.912,473.487 120.896,473.211 122.88,472.935 124.864,472.658 126.848,472.382 128.832,472.106 130.816,471.83 132.8,471.553 134.784,471.277 136.768,471 138.752,470.724 140.736,470.448 142.72,470.171 144.704,469.895 146.688,469.619 148.672,469.343 150.656,469.066 152.64,468.79 154.624,468.514 156.608,468.237 158.592,467.961 160.576,467.685 162.56,467.408 164.544,467.132 166.528,466.856 168.512,466.58 170.496,466.303 172.48,466.027 174.464,465.75 176.448,465.474 178.432,465.198 180.416,464.921 182.4,464.646 184.384,464.369 186.368,464.093 188.352,463.816 190.336,463.54 192.32,463.264 194.304,462.987 196.288,462.711 198.272,462.435 200.256,462.159 202.24,461.882 204.224,461.606 206.208,461.33 208.192,461.053 210.176,460.777 212.16,460.5 214.144,460.224 216.128,459.948 218.112,459.672 220.096,459.396 222.08,459.119 224.064,458.843 226.048,458.566 228.032,458.29 230.016,458.014 232,457.737 233.984,457.461 235.968,457.185 237.952,456.909 239.936,456.632 241.92,456.356 243.904,456.08 245.888,455.803 247.872,455.527 249.856,455.25 251.84,454.974 253.824,454.698 255.808,454.422 257.792,454.146 259.776,453.869 261.76,453.593 263.744,453.316 265.728,453.04 267.712,452.764 269.696,452.487 271.68,452.211 273.664,451.935 275.648,451.659 277.632,451.382 279.616,451.106 281.6,478.461 283.584,478.185 285.568,477.908 287.552,477.632 289.536,477.356 291.52,477.08 293.504,476.803 295.488,476.527 297.472,476.25 299.456,475.974 301.44,475.698 303.424,475.421 305.408,475.145 307.392,474.869 309.376,474.593 311.36,474.316 313.344,474.04 315.328,473.764 317.312,473.487 319.296,473.211 321.28,472.935 323.264,472.658 325.248,472.382 327.232,472.106 329.216,471.83 331.2,471.553 333.184,471.277 335.168,471 337.152,470.724 339.136,470.448 341.12,470.171 343.104,469.896 345.088,469.619 347.072,469.343 349.056,469.066 351.04,468.79 353.024,468.514 355.008,468.237 356.992,467.961 358.976,467.685 360.96,467.409 362.944,467.132 364.928,466.856 366.912,466.58 368.896,466.303 370.88,466.027 372.864,465.75 374.848,465.474 376.832,465.198 378.816,464.921 380.8,464.646 382.784,464.369 384.768,464.093 386.752,463.816 388.736,463.54 390.72,463.264 392.704,462.987 394.688,462.711 396.672,462.435 398.656,462.159 400.64,461.882 402.624,461.606 404.608,461.33 406.592,461.053 408.576,460.777 410.56,460.5 412.544,460.224 414.528,459.948 416.512,459.672 418.496,459.396 420.48,459.119 422.464,458.843 424.448,458.566 426.432,458.29 428.416,458.014 430.4,457.737 432.384,457.461 434.368,457.185 436.352,456.909 438.336,456.632 440.32,456.356 442.304,456.08 444.288,455.803 446.272,455.527 448.256,455.25 450.24,454.974 452.224,454.698 454.208,454.422 456.192,454.146 458.176,453.869 460.16,453.593 462.144,453.316 464.128,453.04 466.112,452.764 468.096,452.487 470.08,452.211 472.064,451.935 474.048,451.659 476.032,451.382 478.016,451.106 480,478.461 481.984,478.185 483.968,477.908 485.952,477.632 487.936,477.356 489.92,477.08 491.904,476.803 493.888,476.527 495.872,476.25 497.856,475.974 499.84,475.698 501.824,475.421 503.808,475.145 505.792,474.869 507.776,474.593 509.76,474.316 511.744,474.04 513.728,473.764 515.712,473.487 517.696,473.211 519.68,472.935 521.664,472.658 523.648,472.382 525.632,472.106 527.616,471.83 529.6,471.553 531.584,471.277 533.568,471 535.552,470.724 537.536,470.448 539.52,470.171 541.504,469.896 543.488,469.619 545.472,469.343 547.456,469.066 549.44,468.79 551.424,468.514 553.408,468.237 555.392,467.961 557.376,467.685 559.36,467.409 561.344,467.132 563.328,466.856 565.312,466.58 567.296,466.303 569.28,466.027 571.264,465.75 573.248,465.474 575.232,465.198 577.216,464.921" stroke="#0071bc" stroke-linejoin="round" stroke-linecap="butt" stroke-width="0.5"/>
   <polyline fill="none" points="83.2002,477.003 85.1841,475.276 87.168,473.563 89.1519,471.87 91.1362,470.203 93.1201,468.57 95.104,466.977 97.0879,465.43 99.0723,463.936 101.056,462.499 103.04,461.126 105.024,459.823 107.008,458.594 108.992,457.445 110.976,456.38 112.96,455.403 114.944,454.519 116.928,453.73 118.912,453.041 120.896,452.454 122.88,451.97 124.864,451.593 126.848,451.322 128.832,451.16 130.816,451.106 132.8,451.16 134.784,451.322 136.768,451.593 138.752,451.97 140.736,452.454 142.72,453.041 144.704,453.73 146.688,454.519 148.672,455.403 150.656,456.38 152.64,457.445 154.624,458.594 156.608,459.823 158.592,461.126 160.576,462.499 162.56,463.936 164.544,465.43 166.528,466.977 168.512,468.57 170.496,470.203 172.48,471.87 174.464,473.563 176.448,475.276 178.432,477.003 180.416,478.737 182.4,480.471 184.384,482.198 186.368,483.912 188.352,485.605 190.336,487.271 192.32,488.904 194.304,490.497 196.288,492.044 198.272,493.539 200.256,494.976 202.24,496.348 204.224,497.652 206.208,498.88 208.192,500.03 210.176,501.095 212.16,502.071 214.144,502.956 216.128,503.744 218.112,504.434 220.096,505.021 222.08,505.504 224.064,505.882 226.048,506.152 228.032,506.314 230.016,506.369 232,506.314 233.984,506.152 235.968,505.882 237.952,505.504 239.936,505.021 241.92,504.434 243.904,503.744 245.888,502.956 247.872,502.071 249.856,501.095 251.84,500.03 253.824,498.88 255.808,497.652 257.792,496.348 259.776,494.976 261.76,493.539 263.744,492.044 265.728,490.498 267.712,488.904 269.696,487.271 271.68,485.605 273.664,483.912 275.648,482.198 277.632,480.471 279.616,478.737 281.6,477.003 283.584,475.276 285.568,473.563 287.552,471.87 289.536,470.204 291.52,468.57 293.504,466.978 295.488,465.43 297.472,463.936 299.456,462.499 301.44,461.126 303.424,459.823 305.408,458.594 307.392,457.445 309.376,456.38 311.36,455.403 313.344,454.519 315.328,453.73 317.312,453.041 319.296,452.454 321.28,451.97 323.264,451.593 325.248,451.322 327.232,451.16 329.216,451.106 331.2,451.16 333.184,451.322 335.168,451.593 337.152,451.97 339.136,452.454 341.12,453.041 343.104,453.73 345.088,454.519 347.072,455.403 349.056,456.38 351.04,457.445 353.024,458.594 355.008,459.823 356.992,461.126 358.976,462.499 360.96,463.936 362.944,465.43 364.928,466.977 366.912,468.57 368.896,470.203 370.88,471.87 372.864,473.563 374.848,475.276 376.832,477.003 378.816,478.737 380.8,480.471 382.784,482.198 384.768,483.912 386.752,485.605 388.736,487.271 390.72,488.904 392.704,490.497 394.688,492.044 396.672,493.539 398.656,494.976 400.64,496.348 402.624,497.651 404.608,498.88 406.592,500.03 408.576,501.095 410.56,502.071 412.544,502.956 414.528,503.744 416.512,504.434 418.496,505.021 420.48,505.504 422.464,505.882 424.448,506.152 426.432,506.314 428.416,506.369 430.4,506.314 432.384,506.152 434.368,505.882 436.352,505.504 438.336,505.021 440.32,504.434 442.304,503.744 444.288,502.956 446.272,502.072 448.256,501.095 450.24,500.03 452.224,498.88 454.208,497.652 456.192,496.349 458.176,494.976 460.16,493.539 462.144,492.044 464.128,490.498 466.112,488.904 468.096,487.271 470.08,485.605 472.064,483.912 474.048,482.198 476.032,480.471 478.016,478.737 480,477.004 481.984,475.277 483.968,473.563 485.952,471.87 487.936,470.204 489.92,468.571 491.904,466.978 493.888,465.431 495.872,463.936 497.856,462.499 499.84,461.126 501.824,459.823 503.808,458.594 505.792,457.445 507.776,456.38 509.76,455.403 511.744,454.519 513.728,453.73 515.712,453.041 517.696,452.454 519.68,451.97 521.664,451.593 523.648,451.322 525.632,451.16 527.616,451.106 529.6,451.16 531.584,451.322 533.568,451.593 535.552,451.97 537.536,452.454 539.52,453.041 541.504,453.73 543.488,454.519 545.472,455.403 547.456,456.38 549.44,457.445 551.424,458.594 553.408,459.823 555.392,461.126 557.376,462.499 559.36,463.936 561.344,465.43 563.328,466.977 565.312,468.57 567.296,470.203 569.28,471.87 571.264,473.563 573.248,475.276 575.232,477.003 577.216,478.737" stroke="#d85218" stroke-linejoin="round" stroke-linecap="butt" stroke-width="0.5"/>
   <polyline fill="none" points="83.2002,455.719 85.1841,456.725 87.168,457.819 89.1519,458.995 91.1362,460.25 93.1201,461.576 95.104,462.971 97.0879,464.428 99.0723,465.94 101.056,467.503 103.04,469.11 105.024,470.755 107.008,472.432 108.992,474.132 110.976,475.851 112.96,477.581 114.944,479.315 116.928,481.048 118.912,482.771 120.896,484.479 122.88,486.164 124.864,487.82 126.848,489.44 128.832,491.019 130.816,492.549 132.8,494.025 134.784,495.44 136.768,496.791 138.752,498.07 140.736,499.272 142.72,500.394 144.704,501.43 146.688,502.376 148.672,503.229 150.656,503.985 152.64,504.641 154.624,505.194 156.608,505.642 158.592,505.984 160.576,506.218 162.56,506.345 164.544,506.363 166.528,506.272 168.512,506.074 170.496,505.768 172.48,505.355 174.464,504.836 176.448,504.215 178.432,503.492 180.416,502.671 182.4,501.756 184.384,500.75 186.368,499.656 188.352,498.479 190.336,497.225 192.32,495.898 194.304,494.503 196.288,493.047 198.272,491.534 200.256,489.971 202.24,488.364 204.224,486.719 206.208,485.043 208.192,483.342 210.176,481.624 212.16,479.894 214.144,478.159 216.128,476.427 218.112,474.704 220.096,472.996 222.08,471.311 224.064,469.655 226.048,468.035 228.032,466.456 230.016,464.926 232,463.45 233.984,462.034 235.968,460.684 237.952,459.405 239.936,458.202 241.92,457.081 243.904,456.044 245.888,455.098 247.872,454.245 249.856,453.489 251.84,452.834 253.824,452.281 255.808,451.833 257.792,451.491 259.776,451.256 261.76,451.13 263.744,451.112 265.728,451.202 267.712,451.4 269.696,451.707 271.68,452.12 273.664,452.638 275.648,453.26 277.632,453.982 279.616,454.803 281.6,455.719 283.584,456.725 285.568,457.819 287.552,458.995 289.536,460.25 291.52,461.576 293.504,462.971 295.488,464.428 297.472,465.94 299.456,467.503 301.44,469.11 303.424,470.755 305.408,472.431 307.392,474.132 309.376,475.851 311.36,477.581 313.344,479.315 315.328,481.048 317.312,482.771 319.296,484.479 321.28,486.164 323.264,487.819 325.248,489.44 327.232,491.019 329.216,492.548 331.2,494.024 333.184,495.44 335.168,496.791 337.152,498.07 339.136,499.272 341.12,500.394 343.104,501.43 345.088,502.376 347.072,503.229 349.056,503.985 351.04,504.641 353.024,505.194 355.008,505.642 356.992,505.984 358.976,506.218 360.96,506.345 362.944,506.363 364.928,506.272 366.912,506.074 368.896,505.768 370.88,505.355 372.864,504.837 374.848,504.215 376.832,503.492 378.816,502.671 380.8,501.756 382.784,500.75 384.768,499.656 386.752,498.479 388.736,497.226 390.72,495.898 392.704,494.504 394.688,493.047 396.672,491.534 398.656,489.971 400.64,488.364 402.624,486.719 404.608,485.043 406.592,483.343 408.576,481.624 410.56,479.894 412.544,478.159 414.528,476.427 416.512,474.704 418.496,472.996 420.48,471.311 422.464,469.655 424.448,468.035 426.432,466.457 428.416,464.926 430.4,463.45 432.384,462.034 434.368,460.684 436.352,459.405 438.336,458.202 440.32,457.081 442.304,456.044 444.288,455.098 446.272,454.245 448.256,453.49 450.24,452.834 452.224,452.281 454.208,451.833 456.192,451.491 458.176,451.256 460.16,451.13 462.144,451.112 464.128,451.202 466.112,451.4 468.096,451.707 470.08,452.12 472.064,452.638 474.048,453.26 476.032,453.982 478.016,454.803 480,455.718 481.984,456.725 483.968,457.819 485.952,458.995 487.936,460.249 489.92,461.576 491.904,462.971 493.888,464.427 495.872,465.94 497.856,467.503 499.84,469.11 501.824,470.755 503.808,472.431 505.792,474.132 507.776,475.851 509.76,477.581 511.744,479.315 513.728,481.048 515.712,482.771 517.696,484.479 519.68,486.164 521.664,487.819 523.648,489.44 525.632,491.018 527.616,492.548 529.6,494.024 531.584,495.44 533.568,496.791 535.552,498.07 537.536,499.272 539.52,500.394 541.504,501.43 543.488,502.376 545.472,503.229 547.456,503.985 549.44,504.641 551.424,505.194 553.408,505.642 555.392,505.984 557.376,506.218 559.36,506.345 561.344,506.363 563.328,506.272 565.312,506.074 567.296,505.768 569.28,505.355 571.264,504.837 573.248,504.215 575.232,503.492 577.216,502.672" stroke="#ecb01f" stroke-linejoin="round" stroke-linecap="butt" stroke-width="0.5"/>
   <polyline fill="none" points="83.2002,503.49 85.1841,504.21 87.168,504.83 89.1519,505.347 91.1362,505.759 93.1201,506.065 95.104,506.264 97.0879,506.354 99.0723,506.336 101.056,506.209 103.04,505.975 105.024,505.634 107.008,505.186 108.992,504.635 110.976,503.981 112.96,503.228 114.944,502.377 116.928,501.434 118.912,500.4 120.896,499.28 122.88,498.078 124.864,496.8 126.848,495.45 128.832,494.034 130.816,492.557 132.8,491.027 134.784,489.449 136.768,487.829 138.752,486.172 140.736,484.486 142.72,482.776 144.704,481.051 146.688,479.316 148.672,477.58 150.656,475.847 152.64,474.126 154.624,472.424 156.608,470.747 158.592,469.102 160.576,467.495 162.56,465.932 164.544,464.419 166.528,462.962 168.512,461.567 170.496,460.241 172.48,458.987 174.464,457.812 176.448,456.721 178.432,455.716 180.416,454.803 182.4,453.985 184.384,453.264 186.368,452.645 188.352,452.127 190.336,451.715 192.32,451.41 194.304,451.211 196.288,451.121 198.272,451.139 200.256,451.265 202.24,451.5 204.224,451.841 206.208,452.289 208.192,452.84 210.176,453.494 212.16,454.247 214.144,455.097 216.128,456.041 218.112,457.075 220.096,458.195 222.08,459.396 224.064,460.675 226.048,462.025 228.032,463.441 230.016,464.917 232,466.447 233.984,468.025 235.968,469.646 237.952,471.303 239.936,472.989 241.92,474.698 243.904,476.423 245.888,478.158 247.872,479.895 249.856,481.627 251.84,483.348 253.824,485.051 255.808,486.728 257.792,488.373 259.776,489.98 261.76,491.543 263.744,493.056 265.728,494.512 267.712,495.907 269.696,497.234 271.68,498.487 273.664,499.662 275.648,500.754 277.632,501.758 279.616,502.671 281.6,503.49 283.584,504.21 285.568,504.83 287.552,505.347 289.536,505.759 291.52,506.065 293.504,506.264 295.488,506.354 297.472,506.336 299.456,506.209 301.44,505.975 303.424,505.634 305.408,505.186 307.392,504.635 309.376,503.981 311.36,503.228 313.344,502.377 315.328,501.434 317.312,500.4 319.296,499.28 321.28,498.078 323.264,496.8 325.248,495.45 327.232,494.034 329.216,492.557 331.2,491.027 333.184,489.449 335.168,487.829 337.152,486.172 339.136,484.486 341.12,482.777 343.104,481.051 345.088,479.316 347.072,477.58 349.056,475.847 351.04,474.126 353.024,472.424 355.008,470.747 356.992,469.102 358.976,467.495 360.96,465.932 362.944,464.419 364.928,462.962 366.912,461.567 368.896,460.241 370.88,458.987 372.864,457.812 374.848,456.721 376.832,455.716 378.816,454.803 380.8,453.985 382.784,453.265 384.768,452.645 386.752,452.127 388.736,451.715 390.72,451.41 392.704,451.211 394.688,451.121 396.672,451.139 398.656,451.265 400.64,451.5 402.624,451.841 404.608,452.288 406.592,452.84 408.576,453.494 410.56,454.247 412.544,455.097 414.528,456.041 416.512,457.075 418.496,458.195 420.48,459.396 422.464,460.675 424.448,462.025 426.432,463.441 428.416,464.917 430.4,466.447 432.384,468.025 434.368,469.646 436.352,471.302 438.336,472.989 440.32,474.698 442.304,476.423 444.288,478.158 446.272,479.895 448.256,481.627 450.24,483.348 452.224,485.05 454.208,486.728 456.192,488.373 458.176,489.98 460.16,491.542 462.144,493.056 464.128,494.512 466.112,495.907 468.096,497.234 470.08,498.487 472.064,499.662 474.048,500.754 476.032,501.758 478.016,502.671 480,503.49 481.984,504.21 483.968,504.83 485.952,505.347 487.936,505.759 489.92,506.065 491.904,506.264 493.888,506.354 495.872,506.336 497.856,506.209 499.84,505.975 501.824,505.634 503.808,505.187 505.792,504.635 507.776,503.981 509.76,503.228 511.744,502.377 513.728,501.434 515.712,500.4 517.696,499.28 519.68,498.078 521.664,496.8 523.648,495.45 525.632,494.034 527.616,492.558 529.6,491.027 531.584,489.449 533.568,487.829 535.552,486.172 537.536,484.486 539.52,482.777 541.504,481.051 543.488,479.316 545.472,477.58 547.456,475.847 549.44,474.126 551.424,472.424 553.408,470.747 555.392,469.102 557.376,467.495 559.36,465.932 561.344,464.419 563.328,462.962 565.312,461.567 567.296,460.241 569.28,458.987 571.264,457.812 573.248,456.721 575.232,455.716 577.216,454.803" stroke="#7d2e8d" stroke-linejoin="round" stroke-linecap="butt" stroke-width="0.5"/>
   <polyline stroke-dasharray="4,4,4,4" fill="none" points="83.2002,457.453 85.1841,460.186 87.168,462.993 89.1519,465.863 91.1362,468.783 93.1201,471.743 95.104,474.731 97.0879,477.735 99.0723,480.742 101.056,483.742 103.04,486.722 105.024,489.67 107.008,492.575 108.992,495.425 110.976,498.208 112.96,500.915 114.944,503.534 116.928,506.055 118.912,508.467 120.896,510.762 122.88,512.931 124.864,514.964 126.848,516.855 128.832,518.596 130.816,520.18 132.8,521.602 134.784,522.855 136.768,523.936 138.752,524.837 140.736,525.556 142.72,526.09 144.704,526.438 146.688,526.595 148.672,526.563 150.656,526.343 152.64,525.933 154.624,525.337 156.608,524.557 158.592,523.595 160.576,522.457 162.56,521.146 164.544,519.67 166.528,518.033 168.512,516.241 170.496,514.302 172.48,512.223 174.464,510.011 176.448,507.676 178.432,505.226 180.416,502.671 182.4,500.022 184.384,497.289 186.368,494.481 188.352,491.612 190.336,488.691 192.32,485.731 194.304,482.744 196.288,479.74 198.272,476.732 200.256,473.733 202.24,470.753 204.224,467.805 206.208,464.9 208.192,462.05 210.176,459.266 212.16,456.56 214.144,453.94 216.128,451.42 218.112,449.007 220.096,446.712 222.08,444.544 224.064,442.51 226.048,440.62 228.032,438.879 230.016,437.294 232,435.873 233.984,434.619 235.968,433.539 237.952,432.638 239.936,431.918 241.92,431.384 243.904,431.037 245.888,430.879 247.872,430.911 249.856,431.132 251.84,431.542 253.824,432.138 255.808,432.918 257.792,433.879 259.776,435.018 261.76,436.328 263.744,437.805 265.728,439.442 267.712,441.233 269.696,443.172 271.68,445.252 273.664,447.463 275.648,449.799 277.632,452.249 279.616,454.803 281.6,457.452 283.584,460.186 285.568,462.993 287.552,465.863 289.536,468.783 291.52,471.743 293.504,474.731 295.488,477.734 297.472,480.742 299.456,483.742 301.44,486.721 303.424,489.669 305.408,492.574 307.392,495.424 309.376,498.208 311.36,500.915 313.344,503.534 315.328,506.055 317.312,508.467 319.296,510.762 321.28,512.931 323.264,514.964 325.248,516.855 327.232,518.596 329.216,520.18 331.2,521.602 333.184,522.855 335.168,523.936 337.152,524.837 339.136,525.556 341.12,526.09 343.104,526.437 345.088,526.595 347.072,526.563 349.056,526.343 351.04,525.933 353.024,525.337 355.008,524.557 356.992,523.595 358.976,522.457 360.96,521.146 362.944,519.67 364.928,518.033 366.912,516.241 368.896,514.302 370.88,512.223 372.864,510.011 374.848,507.676 376.832,505.226 378.816,502.672 380.8,500.022 382.784,497.289 384.768,494.481 386.752,491.612 388.736,488.691 390.72,485.731 392.704,482.744 394.688,479.74 396.672,476.733 398.656,473.733 400.64,470.753 402.624,467.805 404.608,464.9 406.592,462.05 408.576,459.267 410.56,456.56 412.544,453.941 414.528,451.42 416.512,449.007 418.496,446.712 420.48,444.544 422.464,442.51 424.448,440.62 426.432,438.879 428.416,437.295 430.4,435.873 432.384,434.619 434.368,433.539 436.352,432.638 438.336,431.918 440.32,431.384 442.304,431.037 444.288,430.879 446.272,430.911 448.256,431.132 450.24,431.542 452.224,432.138 454.208,432.918 456.192,433.879 458.176,435.018 460.16,436.328 462.144,437.805 464.128,439.442 466.112,441.233 468.096,443.172 470.08,445.252 472.064,447.463 474.048,449.798 476.032,452.248 478.016,454.803 480,457.452 481.984,460.186 483.968,462.993 485.952,465.862 487.936,468.783 489.92,471.743 491.904,474.73 493.888,477.734 495.872,480.742 497.856,483.741 499.84,486.721 501.824,489.669 503.808,492.574 505.792,495.424 507.776,498.208 509.76,500.915 511.744,503.534 513.728,506.055 515.712,508.467 517.696,510.762 519.68,512.931 521.664,514.964 523.648,516.855 525.632,518.596 527.616,520.18 529.6,521.602 531.584,522.855 533.568,523.935 535.552,524.837 537.536,525.556 539.52,526.09 541.504,526.437 543.488,526.595 545.472,526.563 547.456,526.343 549.44,525.933 551.424,525.337 553.408,524.557 555.392,523.595 557.376,522.457 559.36,521.146 561.344,519.67 563.328,518.033 565.312,516.241 567.296,514.302 569.28,512.223 571.264,510.011 573.248,507.676 575.232,505.227 577.216,502.672" stroke="#76ab2f" stroke-linejoin="round" stroke-linecap="butt" stroke-width="0.5"/>
   <polyline stroke-dasharray="4,4,4,4" fill="none" points="83.2002,526.508 85.1841,526.222 87.168,525.749 89.1519,525.089 91.1362,524.247 93.1201,523.226 95.104,522.03 97.0879,520.664 99.0723,519.133 101.056,517.443 103.04,515.602 105.024,513.615 107.008,511.492 108.992,509.24 110.976,506.867 112.96,504.384 114.944,501.799 116.928,499.123 118.912,496.366 120.896,493.539 122.88,490.652 124.864,487.717 126.848,484.747 128.832,481.752 130.816,478.746 132.8,475.74 134.784,472.746 136.768,469.775 138.752,466.839 140.736,463.951 142.72,461.12 144.704,458.358 146.688,455.677 148.672,453.087 150.656,450.599 152.64,448.223 154.624,445.967 156.608,443.842 158.592,441.855 160.576,440.013 162.56,438.324 164.544,436.793 166.528,435.427 168.512,434.23 170.496,433.21 172.48,432.37 174.464,431.713 176.448,431.243 178.432,430.961 180.416,430.869 182.4,430.966 184.384,431.252 186.368,431.726 188.352,432.385 190.336,433.228 192.32,434.249 194.304,435.445 196.288,436.811 198.272,438.342 200.256,440.031 202.24,441.873 204.224,443.859 206.208,445.982 208.192,448.235 210.176,450.607 212.16,453.09 214.144,455.675 216.128,458.352 218.112,461.108 220.096,463.936 222.08,466.823 224.064,469.757 226.048,472.728 228.032,475.722 230.016,478.729 232,481.734 233.984,484.729 235.968,487.699 237.952,490.635 239.936,493.524 241.92,496.355 243.904,499.116 245.888,501.797 247.872,504.387 249.856,506.875 251.84,509.252 253.824,511.507 255.808,513.632 257.792,515.62 259.776,517.461 261.76,519.15 263.744,520.681 265.728,522.048 267.712,523.244 269.696,524.265 271.68,525.105 273.664,525.762 275.648,526.232 277.632,526.513 279.616,526.606 281.6,526.508 283.584,526.222 285.568,525.749 287.552,525.089 289.536,524.247 291.52,523.226 293.504,522.03 295.488,520.664 297.472,519.133 299.456,517.443 301.44,515.602 303.424,513.616 305.408,511.492 307.392,509.24 309.376,506.868 311.36,504.384 313.344,501.799 315.328,499.123 317.312,496.366 319.296,493.539 321.28,490.652 323.264,487.717 325.248,484.747 327.232,481.752 329.216,478.746 331.2,475.74 333.184,472.746 335.168,469.775 337.152,466.84 339.136,463.951 341.12,461.12 343.104,458.358 345.088,455.677 347.072,453.087 349.056,450.599 351.04,448.223 353.024,445.967 355.008,443.842 356.992,441.855 358.976,440.014 360.96,438.325 362.944,436.793 364.928,435.427 366.912,434.23 368.896,433.21 370.88,432.37 372.864,431.713 374.848,431.243 376.832,430.961 378.816,430.869 380.8,430.966 382.784,431.252 384.768,431.726 386.752,432.385 388.736,433.228 390.72,434.249 392.704,435.445 394.688,436.811 396.672,438.342 398.656,440.031 400.64,441.873 402.624,443.859 404.608,445.982 406.592,448.234 408.576,450.607 410.56,453.09 412.544,455.675 414.528,458.351 416.512,461.108 418.496,463.936 420.48,466.823 422.464,469.757 424.448,472.728 426.432,475.722 428.416,478.729 430.4,481.734 432.384,484.729 434.368,487.699 436.352,490.635 438.336,493.524 440.32,496.354 442.304,499.116 444.288,501.797 446.272,504.387 448.256,506.875 450.24,509.251 452.224,511.507 454.208,513.632 456.192,515.62 458.176,517.461 460.16,519.15 462.144,520.681 464.128,522.047 466.112,523.244 468.096,524.265 470.08,525.105 472.064,525.762 474.048,526.232 476.032,526.513 478.016,526.606 480,526.508 481.984,526.222 483.968,525.749 485.952,525.089 487.936,524.247 489.92,523.226 491.904,522.03 493.888,520.664 495.872,519.133 497.856,517.443 499.84,515.602 501.824,513.616 503.808,511.492 505.792,509.24 507.776,506.868 509.76,504.384 511.744,501.8 513.728,499.124 515.712,496.366 517.696,493.539 519.68,490.652 521.664,487.718 523.648,484.747 525.632,481.752 527.616,478.746 529.6,475.74 531.584,472.746 533.568,469.775 535.552,466.84 537.536,463.951 539.52,461.12 541.504,458.358 543.488,455.677 545.472,453.087 547.456,450.6 549.44,448.223 551.424,445.968 553.408,443.842 555.392,441.855 557.376,440.014 559.36,438.325 561.344,436.794 563.328,435.427 565.312,434.23 567.296,433.21 569.28,432.37 571.264,431.713 573.248,431.243 575.232,430.961 577.216,430.869" stroke="#4cbded" stroke-linejoin="round" stroke-linecap="butt" stroke-width="0.5"/>
   <polyline stroke-dasharray="4,4,4,4" fill="none" points="83.2002,452.251 85.1841,449.804 87.168,447.47 89.1519,445.26 91.1362,443.182 93.1201,441.243 95.104,439.451 97.0879,437.813 99.0723,436.337 101.056,435.027 103.04,433.889 105.024,432.927 107.008,432.145 108.992,431.547 110.976,431.136 112.96,430.913 114.944,430.878 116.928,431.034 118.912,431.379 120.896,431.911 122.88,432.629 124.864,433.53 126.848,434.61 128.832,435.864 130.816,437.286 132.8,438.87 134.784,440.61 136.768,442.501 138.752,444.536 140.736,446.705 142.72,449.002 144.704,451.417 146.688,453.939 148.672,456.561 150.656,459.27 152.64,462.056 154.624,464.908 156.608,467.813 158.592,470.762 160.576,473.742 162.56,476.741 164.544,479.749 166.528,482.752 168.512,485.74 170.496,488.7 172.48,491.62 174.464,494.488 176.448,497.293 178.432,500.024 180.416,502.671 182.4,505.224 184.384,507.671 186.368,510.004 188.352,512.214 190.336,514.293 192.32,516.232 194.304,518.023 196.288,519.661 198.272,521.138 200.256,522.448 202.24,523.586 204.224,524.548 206.208,525.33 208.192,525.927 210.176,526.338 212.16,526.562 214.144,526.596 216.128,526.44 218.112,526.096 220.096,525.563 222.08,524.845 224.064,523.944 226.048,522.865 228.032,521.611 230.016,520.189 232,518.604 233.984,516.864 235.968,514.973 237.952,512.939 239.936,510.77 241.92,508.473 243.904,506.058 245.888,503.535 247.872,500.914 249.856,498.205 251.84,495.418 253.824,492.567 255.808,489.661 257.792,486.713 259.776,483.733 261.76,480.733 263.744,477.726 265.728,474.722 267.712,471.734 269.696,468.775 271.68,465.855 273.664,462.987 275.648,460.182 277.632,457.45 279.616,454.803 281.6,452.251 283.584,449.804 285.568,447.47 287.552,445.26 289.536,443.182 291.52,441.243 293.504,439.451 295.488,437.813 297.472,436.337 299.456,435.027 301.44,433.889 303.424,432.927 305.408,432.146 307.392,431.547 309.376,431.136 311.36,430.913 313.344,430.878 315.328,431.034 317.312,431.378 319.296,431.911 321.28,432.629 323.264,433.53 325.248,434.61 327.232,435.864 329.216,437.286 331.2,438.87 333.184,440.61 335.168,442.501 337.152,444.535 339.136,446.705 341.12,449.001 343.104,451.417 345.088,453.939 347.072,456.561 349.056,459.27 351.04,462.056 353.024,464.907 355.008,467.813 356.992,470.762 358.976,473.742 360.96,476.741 362.944,479.749 364.928,482.752 366.912,485.74 368.896,488.7 370.88,491.62 372.864,494.488 374.848,497.293 376.832,500.024 378.816,502.671 380.8,505.223 382.784,507.671 384.768,510.004 386.752,512.214 388.736,514.293 390.72,516.232 392.704,518.023 394.688,519.661 396.672,521.138 398.656,522.448 400.64,523.586 402.624,524.548 404.608,525.329 406.592,525.927 408.576,526.338 410.56,526.562 412.544,526.596 414.528,526.44 416.512,526.096 418.496,525.563 420.48,524.845 422.464,523.944 424.448,522.865 426.432,521.611 428.416,520.189 430.4,518.604 432.384,516.864 434.368,514.974 436.352,512.939 438.336,510.77 440.32,508.473 442.304,506.058 444.288,503.535 446.272,500.914 448.256,498.205 450.24,495.419 452.224,492.567 454.208,489.662 456.192,486.713 458.176,483.733 460.16,480.734 462.144,477.726 464.128,474.723 466.112,471.735 468.096,468.775 470.08,465.855 472.064,462.987 474.048,460.182 476.032,457.45 478.016,454.803 480,452.251 481.984,449.804 483.968,447.471 485.952,445.26 487.936,443.182 489.92,441.243 491.904,439.451 493.888,437.814 495.872,436.337 497.856,435.027 499.84,433.889 501.824,432.927 503.808,432.146 505.792,431.547 507.776,431.136 509.76,430.913 511.744,430.878 513.728,431.034 515.712,431.378 517.696,431.911 519.68,432.629 521.664,433.53 523.648,434.61 525.632,435.864 527.616,437.286 529.6,438.87 531.584,440.61 533.568,442.501 535.552,444.535 537.536,446.705 539.52,449.001 541.504,451.417 543.488,453.939 545.472,456.561 547.456,459.27 549.44,462.056 551.424,464.907 553.408,467.813 555.392,470.762 557.376,473.741 559.36,476.741 561.344,479.748 563.328,482.752 565.312,485.74 567.296,488.7 569.28,491.62 571.264,494.488 573.248,497.293 575.232,500.024 577.216,502.671" stroke="#a1132e" stroke-linejoin="round" stroke-linecap="butt" stroke-width="0.5"/>
   <polyline stroke-dasharray="8,2,4,2,8,2,4,2" fill="none" points="83.2002,437.279 85.1841,437.285 87.168,437.292 89.1519,437.299 91.1362,437.306 93.1201,437.311 95.104,437.314 97.0879,437.316 99.0723,437.316 101.056,437.313 103.04,437.309 105.024,437.304 107.008,437.297 108.992,437.29 110.976,437.283 112.96,437.277 114.944,437.272 116.928,437.27 118.912,437.269 120.896,437.271 122.88,437.273 124.864,437.278 126.848,437.283 128.832,437.288 130.816,437.29 132.8,437.29 134.784,437.287 136.768,437.284 138.752,437.281 140.736,437.278 142.72,437.276 144.704,437.274 146.688,437.274 148.672,437.274 150.656,437.275 152.64,437.276 154.624,437.279 156.608,437.282 158.592,437.285 160.576,437.288 162.56,437.29 164.544,437.29 166.528,437.287 168.512,437.282 170.496,437.276 172.48,437.272 174.464,437.27 176.448,437.269 178.432,437.271 180.416,437.274 182.4,437.279 184.384,437.285 186.368,437.292 188.352,437.299 190.336,437.306 192.32,437.311 194.304,437.314 196.288,437.316 198.272,437.316 200.256,437.313 202.24,437.309 204.224,437.304 206.208,437.297 208.192,437.29 210.176,437.283 212.16,437.277 214.144,437.272 216.128,437.27 218.112,437.269 220.096,437.271 222.08,437.273 224.064,437.278 226.048,437.283 228.032,437.288 230.016,437.29 232,437.29 233.984,437.287 235.968,437.284 237.952,437.281 239.936,437.278 241.92,437.276 243.904,437.274 245.888,437.274 247.872,437.274 249.856,437.275 251.84,437.276 253.824,437.279 255.808,437.282 257.792,437.285 259.776,437.288 261.76,437.29 263.744,437.29 265.728,437.287 267.712,437.282 269.696,437.276 271.68,437.272 273.664,437.27 275.648,437.269 277.632,437.271 279.616,437.274 281.6,437.279 283.584,437.285 285.568,437.292 287.552,437.299 289.536,437.306 291.52,437.311 293.504,437.314 295.488,437.316 297.472,437.316 299.456,437.313 301.44,437.309 303.424,437.304 305.408,437.297 307.392,437.29 309.376,437.283 311.36,437.277 313.344,437.272 315.328,437.27 317.312,437.269 319.296,437.271 321.28,437.273 323.264,437.278 325.248,437.283 327.232,437.288 329.216,437.29 331.2,437.29 333.184,437.287 335.168,437.284 337.152,437.281 339.136,437.278 341.12,437.276 343.104,437.274 345.088,437.274 347.072,437.274 349.056,437.275 351.04,437.276 353.024,437.279 355.008,437.282 356.992,437.285 358.976,437.288 360.96,437.29 362.944,437.29 364.928,437.287 366.912,437.282 368.896,437.276 370.88,437.272 372.864,437.27 374.848,437.269 376.832,437.271 378.816,437.274 380.8,437.279 382.784,437.285 384.768,437.292 386.752,437.299 388.736,437.306 390.72,437.311 392.704,437.314 394.688,437.316 396.672,437.316 398.656,437.313 400.64,437.309 402.624,437.304 404.608,437.297 406.592,437.29 408.576,437.283 410.56,437.277 412.544,437.272 414.528,437.27 416.512,437.269 418.496,437.271 420.48,437.273 422.464,437.278 424.448,437.283 426.432,437.288 428.416,437.29 430.4,437.29 432.384,437.287 434.368,437.284 436.352,437.281 438.336,437.278 440.32,437.276 442.304,437.274 444.288,437.274 446.272,437.274 448.256,437.275 450.24,437.276 452.224,437.279 454.208,437.282 456.192,437.285 458.176,437.288 460.16,437.29 462.144,437.29 464.128,437.287 466.112,437.282 468.096,437.276 470.08,437.272 472.064,437.27 474.048,437.269 476.032,437.271 478.016,437.274 480,437.279 481.984,437.285 483.968,437.292 485.952,437.299 487.936,437.306 489.92,437.311 491.904,437.314 493.888,437.316 495.872,437.316 497.856,437.313 499.84,437.309 501.824,437.304 503.808,437.297 505.792,437.29 507.776,437.283 509.76,437.277 511.744,437.272 513.728,437.27 515.712,437.269 517.696,437.271 519.68,437.273 521.664,437.278 523.648,437.283 525.632,437.288 527.616,437.29 529.6,437.29 531.584,437.287 533.568,437.284 535.552,437.281 537.536,437.278 539.52,437.276 541.504,437.274 543.488,437.274 545.472,437.274 547.456,437.275 549.44,437.276 551.424,437.279 553.408,437.282 555.392,437.285 557.376,437.288 559.36,437.29 561.344,437.29 563.328,437.287 565.312,437.282 567.296,437.276 569.28,437.272 571.264,437.27 573.248,437.269 575.232,437.271 577.216,437.274" stroke="#0071bc" stroke-linejoin="round" stroke-linecap="butt" stroke-width="1.5"/>
  </g>
  <clipPath id="cp00640600">
   <polygon points="0,600 640,600 640,0 0,0"/>
  </clipPath>
  <g clip-path="url(#cp00640600)">
   <polygon fill="#ffffff" points="445.139,539.122 567.015,539.122 567.015,448.135 445.139,448.135" shape-rendering="crispEdges"/>
   <polyline stroke-dasharray="16,0" fill="none" points="445.139,539.122 567.015,539.122" stroke="#262626" stroke-linejoin="miter" stroke-linecap="square" stroke-width="0.5"/>
   <polyline stroke-dasharray="16,0" fill="none" points="445.139,448.135 567.015,448.135" stroke="#262626" stroke-linejoin="miter" stroke-linecap="square" stroke-width="0.5"/>
   <polyline stroke-dasharray="16,0" fill="none" points="445.139,539.122 445.139,448.135" stroke="#262626" stroke-linejoin="miter" stroke-linecap="square" stroke-width="0.5"/>
   <polyline stroke-dasharray="16,0" fill="none" points="567.015,539.122 567.015,448.135" stroke="#262626" stroke-linejoin="miter" stroke-linecap="square" stroke-width="0.5"/>
   <text font-family="FreeSans" font-style="normal" font-weight="normal" xml:space="preserve" transform="translate(475.095,464.085) rotate(-0,-0,-5)" font-size="9">
    <tspan x="0 5 10 15 19 " y="-2" fill="rgb(0,0,0)">phase</tspan>
   </text>
   <text font-family="FreeSans" font-style="normal" font-weight="normal" xml:space="preserve" transform="translate(475.095,484.987) rotate(-0,-0,-4)" font-size="9">
    <tspan x="0 6 " y="-0" fill="rgb(0,0,0)">Va</tspan>
   </text>
   <text font-family="FreeSans" font-style="normal" font-weight="normal" xml:space="preserve" transform="translate(475.095,506.888) rotate(-0,-0,-4)" font-size="9">
    <tspan x="0 6 " y="-0" fill="rgb(0,0,0)">Vb</tspan>
   </text>
   <text font-family="FreeSans" font-style="normal" font-weight="normal" xml:space="preserve" transform="translate(475.095,528.79) rotate(-0,-0,-4)" font-size="9">
    <tspan x="0 6 " y="-0" fill="rgb(0,0,0)">Vc</tspan>
   </text>
   <text font-family="FreeSans" font-style="normal" font-weight="normal" xml:space="preserve" transform="translate(475.095,550.691) rotate(-0,-0,-4)" font-size="9">
    <tspan x="0 6 11 " y="-0" fill="rgb(0,0,0)">Vab</tspan>
   </text>
   <text font-family="FreeSans" font-style="normal" font-weight="normal" xml:space="preserve" transform="translate(536.032,463.085) rotate(-0,-0,-4)" font-size="9">
    <tspan x="0 6 11 " y="-0" fill="rgb(0,0,0)">Vbc</tspan>
   </text>
   <text font-family="FreeSans" font-style="normal" font-weight="normal" xml:space="preserve" transform="translate(536.032,484.987) rotate(-0,-0,-4)" font-size="9">
    <tspan x="0 6 11 " y="-0" fill="rgb(0,0,0)">Vca</tspan>
   </text>
   <text font-family="FreeSans" font-style="normal" font-weight="normal" xml:space="preserve" transform="translate(536.032,507.888) rotate(-0,-0,-5)" font-size="9">
    <tspan x="0 6 9 11 " y="-2" fill="rgb(0,0,0)">P, W</tspan>
   </text>
   <polyline stroke-dasharray="1,1,1,1,1,1,1,1,1,1" fill="none" points="448.693,459.085 471.541,459.085" stroke="#0071bc" stroke-linejoin="round" stroke-linecap="butt" stroke-width="0.5"/>
   <polyline fill="none" points="448.693,480.987 471.541,480.987" stroke="#d85218" stroke-linejoin="round" stroke-linecap="butt" stroke-width="0.5"/>
   <polyline fill="none" points="448.693,502.888 471.541,502.888" stroke="#ecb01f" stroke-linejoin="round" stroke-linecap="butt" stroke-width="0.5"/>
   <polyline fill="none" points="448.693,524.79 471.541,524.79" stroke="#7d2e8d" stroke-linejoin="round" stroke-linecap="butt" stroke-width="0.5"/>
   <polyline stroke-dasharray="4,4,4,4" fill="none" points="509.631,459.085 532.478,459.085" stroke="#4cbded" stroke-linejoin="round" stroke-linecap="butt" stroke-width="0.5"/>
   <polyline stroke-dasharray="4,4,4,4" fill="none" points="509.631,480.987 532.478,480.987" stroke="#a1132e" stroke-linejoin="round" stroke-linecap="butt" stroke-width="0.5"/>
   <polyline stroke-dasharray="8,2,4,2,8,2,4,2" fill="none" points="509.631,502.888 532.478,502.888" stroke="#0071bc" stroke-linejoin="round" stroke-linecap="butt" stroke-width="1.5"/>
  </g>
 </g>
</svg>
